G04*
G04 #@! TF.GenerationSoftware,Altium Limited,Altium Designer,22.5.1 (42)*
G04*
G04 Layer_Color=16711935*
%FSLAX25Y25*%
%MOIN*%
G70*
G04*
G04 #@! TF.SameCoordinates,0C7ABF94-C2AC-4CB0-9C94-541A5C69193A*
G04*
G04*
G04 #@! TF.FilePolarity,Positive*
G04*
G01*
G75*
%ADD10C,0.00787*%
%ADD13C,0.01181*%
%ADD14C,0.00500*%
%ADD17C,0.00400*%
%ADD73C,0.00800*%
%ADD74C,0.00000*%
G36*
X15653Y40657D02*
X12700D01*
Y47350D01*
X15653D01*
Y40657D01*
D02*
G37*
G36*
X38700Y35157D02*
X35747D01*
Y41850D01*
X38700D01*
Y35157D01*
D02*
G37*
G36*
X15653Y32157D02*
X12700D01*
Y38850D01*
X15653D01*
Y32157D01*
D02*
G37*
G36*
X26100Y41843D02*
X28253D01*
Y35150D01*
X26100D01*
Y32150D01*
X23147D01*
Y38843D01*
X25300D01*
Y40650D01*
X23147D01*
Y47343D01*
X26100D01*
Y41843D01*
D02*
G37*
G36*
X67050Y60747D02*
X60357D01*
Y63700D01*
X67050D01*
Y60747D01*
D02*
G37*
G36*
X57127D02*
X50434D01*
Y63700D01*
X57127D01*
Y60747D01*
D02*
G37*
G36*
X67043Y50300D02*
X60350D01*
Y53253D01*
X67043D01*
Y50300D01*
D02*
G37*
G36*
X57120D02*
X50427D01*
Y53253D01*
X57120D01*
Y50300D01*
D02*
G37*
G36*
X58928Y42509D02*
X55614D01*
Y44300D01*
X58928D01*
Y42509D01*
D02*
G37*
G36*
Y36399D02*
X55621D01*
Y38600D01*
X58928D01*
Y36399D01*
D02*
G37*
G36*
Y30699D02*
X55626D01*
Y32500D01*
X58928D01*
Y30699D01*
D02*
G37*
G36*
X106665Y74157D02*
X103712D01*
Y80850D01*
X106665D01*
Y74157D01*
D02*
G37*
G36*
X117112Y74150D02*
X114159D01*
Y80843D01*
X117112D01*
Y74150D01*
D02*
G37*
G36*
X84200Y59157D02*
X81247D01*
Y65850D01*
X84200D01*
Y59157D01*
D02*
G37*
G36*
X73753Y59150D02*
X70800D01*
Y65843D01*
X73753D01*
Y59150D01*
D02*
G37*
G36*
X120350Y49235D02*
X113657D01*
Y52188D01*
X120350D01*
Y49235D01*
D02*
G37*
G36*
X97741Y47157D02*
X94788D01*
Y53850D01*
X97741D01*
Y47157D01*
D02*
G37*
G36*
X108188Y47150D02*
X105235D01*
Y53843D01*
X108188D01*
Y47150D01*
D02*
G37*
G36*
X120343Y38788D02*
X113650D01*
Y41741D01*
X120343D01*
Y38788D01*
D02*
G37*
G36*
X71828Y38900D02*
Y36100D01*
X70128Y34400D01*
X69028D01*
Y40600D01*
X70128D01*
X71828Y38900D01*
D02*
G37*
G36*
X93153Y28657D02*
X90200D01*
Y35350D01*
X93153D01*
Y28657D01*
D02*
G37*
G36*
X103600Y28650D02*
X100647D01*
Y35343D01*
X103600D01*
Y28650D01*
D02*
G37*
G36*
X91141Y14157D02*
X88188D01*
Y20850D01*
X91141D01*
Y14157D01*
D02*
G37*
G36*
X101588Y14150D02*
X98635D01*
Y20843D01*
X101588D01*
Y14150D01*
D02*
G37*
D10*
X14394Y40063D02*
G03*
X14394Y40063I-394J0D01*
G01*
D13*
X80490Y46516D02*
G03*
X80490Y46516I-591J0D01*
G01*
D14*
X4000Y67996D02*
Y103744D01*
Y67996D02*
X44000D01*
Y103744D01*
X4000D02*
X44000D01*
X74447Y50221D02*
Y60063D01*
Y50221D02*
X92164D01*
Y60063D01*
X74447D02*
X92164D01*
X36601Y42650D02*
X49199D01*
X36601Y36350D02*
X49199D01*
Y42650D01*
X36601Y36350D02*
Y42650D01*
X17117Y58650D02*
X29715D01*
X17117Y52350D02*
X29715D01*
Y58650D01*
X17117Y52350D02*
Y58650D01*
X36601Y34150D02*
X49199D01*
X36601Y27850D02*
X49199D01*
Y34150D01*
X36601Y27850D02*
Y34150D01*
X93201Y44150D02*
X105799D01*
X93201Y37850D02*
X105799D01*
Y44150D01*
X93201Y37850D02*
Y44150D01*
X56750Y88201D02*
Y100799D01*
X63050Y88201D02*
Y100799D01*
X56750D02*
X63050D01*
X56750Y88201D02*
X63050D01*
X80250D02*
Y100799D01*
X73950Y88201D02*
Y100799D01*
Y88201D02*
X80250D01*
X73950Y100799D02*
X80250D01*
X65250Y88201D02*
Y100799D01*
X71550Y88201D02*
Y100799D01*
X65250D02*
X71550D01*
X65250Y88201D02*
X71550D01*
X43201Y18650D02*
X55799D01*
X43201Y12350D02*
X55799D01*
Y18650D01*
X43201Y12350D02*
Y18650D01*
X88601Y5350D02*
X101199D01*
X88601Y11650D02*
X101199D01*
X88601Y5350D02*
Y11650D01*
X101199Y5350D02*
Y11650D01*
X98601Y8650D02*
X111199D01*
X98601Y2350D02*
X111199D01*
X98601D02*
Y8650D01*
X111199Y2350D02*
Y8650D01*
X112601Y73850D02*
X125199D01*
X112601Y80150D02*
X125199D01*
Y73850D02*
Y80150D01*
X112601Y73850D02*
Y80150D01*
X72601Y68850D02*
X85199D01*
X72601Y75150D02*
X85199D01*
Y68850D02*
Y75150D01*
X72601Y68850D02*
Y75150D01*
X72101Y73850D02*
X84699D01*
X72101Y80150D02*
X84699D01*
X72101Y73850D02*
Y80150D01*
X84699Y73850D02*
Y80150D01*
X53701Y9150D02*
X66299D01*
X53701Y2850D02*
X66299D01*
Y9150D01*
X53701Y2850D02*
Y9150D01*
X70601Y56650D02*
X83199D01*
X70601Y50350D02*
X83199D01*
X70601D02*
Y56650D01*
X83199Y50350D02*
Y56650D01*
X6201Y41650D02*
X18799D01*
X6201Y35350D02*
X18799D01*
X6201D02*
Y41650D01*
X18799Y35350D02*
Y41650D01*
X64900Y36279D02*
X84900D01*
X64900Y8721D02*
Y36279D01*
Y8721D02*
X84900D01*
Y36279D01*
D17*
X93101Y28902D02*
X100699D01*
X93101Y35098D02*
X100699D01*
X97689Y53598D02*
X105287D01*
X97689Y47402D02*
X105287D01*
X60602Y53201D02*
Y60799D01*
X66798Y53201D02*
Y60799D01*
X106613Y74402D02*
X114211D01*
X106613Y80598D02*
X114211D01*
X113902Y41689D02*
Y49287D01*
X120098Y41689D02*
Y49287D01*
X91089Y20598D02*
X98687D01*
X91089Y14402D02*
X98687D01*
X73701Y59402D02*
X81299D01*
X73701Y65598D02*
X81299D01*
X15601Y32402D02*
X23199D01*
X15601Y38598D02*
X23199D01*
X50679Y53201D02*
Y60799D01*
X56876Y53201D02*
Y60799D01*
X15601Y40902D02*
X23199D01*
X15601Y47098D02*
X23199D01*
X28201Y41598D02*
X35799D01*
X28201Y35402D02*
X35799D01*
D73*
X59006Y28642D02*
Y46358D01*
X68652Y32579D02*
Y42421D01*
X70128Y34400D02*
X71828Y36100D01*
Y38900D01*
X70128Y40600D02*
X71828Y38900D01*
X69028Y40600D02*
X70128D01*
X69028Y34400D02*
Y40600D01*
Y34400D02*
X70128D01*
D74*
X66200Y57700D02*
G03*
X66200Y55300I0J-1200D01*
G01*
X62900Y64400D02*
X64900D01*
Y68700D01*
X62900D02*
X64900D01*
X62900Y64400D02*
Y68700D01*
X57900Y64400D02*
X59900D01*
Y68700D01*
X57900D02*
X59900D01*
X57900Y64400D02*
Y68700D01*
X52900Y64400D02*
X54900D01*
Y68700D01*
X52900D02*
X54900D01*
X52900Y64400D02*
Y68700D01*
X47900Y64400D02*
X49900D01*
Y68700D01*
X47900D02*
X49900D01*
X47900Y64400D02*
Y68700D01*
Y48600D02*
X49900D01*
X47900Y44300D02*
Y48600D01*
Y44300D02*
X49900D01*
Y48600D01*
X52900D02*
X54900D01*
X52900Y44300D02*
Y48600D01*
Y44300D02*
X54900D01*
Y48600D01*
X57900D02*
X59900D01*
X57900Y44300D02*
Y48600D01*
Y44300D02*
X59900D01*
Y48600D01*
X62900D02*
X64900D01*
X62900Y44300D02*
Y48600D01*
Y44300D02*
X64900D01*
Y48600D01*
X46600D02*
Y64400D01*
Y48600D02*
X66200D01*
Y55300D01*
Y57700D01*
Y64400D01*
X46600D02*
X66200D01*
M02*
