G04*
G04 #@! TF.GenerationSoftware,Altium Limited,Altium Designer,22.5.1 (42)*
G04*
G04 Layer_Color=32896*
%FSLAX25Y25*%
%MOIN*%
G70*
G04*
G04 #@! TF.SameCoordinates,0C7ABF94-C2AC-4CB0-9C94-541A5C69193A*
G04*
G04*
G04 #@! TF.FilePolarity,Positive*
G04*
G01*
G75*
%ADD10C,0.00787*%
%ADD14C,0.00500*%
%ADD15C,0.00394*%
%ADD16C,0.00197*%
%ADD18C,0.00591*%
%ADD73C,0.00800*%
G36*
X84220Y31966D02*
X84252Y31920D01*
X84289Y31873D01*
X84324Y31832D01*
X84359Y31797D01*
X84386Y31768D01*
X84397Y31760D01*
X84406Y31751D01*
X84409Y31748D01*
X84412Y31745D01*
X84473Y31696D01*
X84534Y31649D01*
X84592Y31608D01*
X84650Y31576D01*
X84700Y31547D01*
X84720Y31535D01*
X84738Y31527D01*
X84752Y31518D01*
X84764Y31515D01*
X84770Y31509D01*
X84772D01*
Y31271D01*
X84729Y31288D01*
X84685Y31308D01*
X84641Y31329D01*
X84601Y31349D01*
X84566Y31367D01*
X84537Y31381D01*
X84519Y31393D01*
X84516Y31396D01*
X84513D01*
X84461Y31428D01*
X84415Y31460D01*
X84374Y31489D01*
X84342Y31515D01*
X84313Y31535D01*
X84295Y31553D01*
X84281Y31565D01*
X84278Y31567D01*
Y29993D01*
X84030D01*
Y32016D01*
X84190D01*
X84220Y31966D01*
D02*
G37*
G36*
X86117Y32036D02*
X86210Y32021D01*
X86291Y32004D01*
X86329Y31992D01*
X86364Y31981D01*
X86396Y31969D01*
X86425Y31957D01*
X86449Y31949D01*
X86472Y31940D01*
X86487Y31931D01*
X86498Y31925D01*
X86507Y31923D01*
X86510Y31920D01*
X86588Y31870D01*
X86655Y31812D01*
X86713Y31754D01*
X86763Y31696D01*
X86801Y31643D01*
X86815Y31620D01*
X86827Y31600D01*
X86839Y31585D01*
X86844Y31573D01*
X86847Y31565D01*
X86850Y31562D01*
X86891Y31471D01*
X86920Y31378D01*
X86940Y31285D01*
X86955Y31201D01*
X86961Y31163D01*
X86964Y31125D01*
X86967Y31096D01*
Y31067D01*
X86970Y31047D01*
Y31029D01*
Y31018D01*
Y31015D01*
X86964Y30910D01*
X86952Y30808D01*
X86937Y30718D01*
X86926Y30674D01*
X86917Y30636D01*
X86908Y30601D01*
X86897Y30569D01*
X86888Y30540D01*
X86882Y30517D01*
X86874Y30500D01*
X86871Y30485D01*
X86865Y30476D01*
Y30473D01*
X86821Y30386D01*
X86772Y30307D01*
X86719Y30240D01*
X86693Y30214D01*
X86670Y30188D01*
X86646Y30165D01*
X86623Y30145D01*
X86603Y30127D01*
X86585Y30115D01*
X86574Y30104D01*
X86562Y30095D01*
X86556Y30092D01*
X86553Y30089D01*
X86513Y30066D01*
X86472Y30046D01*
X86385Y30013D01*
X86297Y29990D01*
X86213Y29976D01*
X86172Y29970D01*
X86137Y29964D01*
X86105Y29961D01*
X86079D01*
X86056Y29958D01*
X86024D01*
X85966Y29961D01*
X85910Y29967D01*
X85858Y29973D01*
X85808Y29984D01*
X85762Y29999D01*
X85718Y30013D01*
X85677Y30028D01*
X85640Y30046D01*
X85608Y30060D01*
X85576Y30075D01*
X85552Y30089D01*
X85529Y30104D01*
X85514Y30115D01*
X85500Y30121D01*
X85494Y30127D01*
X85491Y30130D01*
X85451Y30165D01*
X85416Y30200D01*
X85384Y30240D01*
X85352Y30281D01*
X85299Y30363D01*
X85259Y30444D01*
X85241Y30482D01*
X85227Y30517D01*
X85215Y30549D01*
X85206Y30575D01*
X85197Y30598D01*
X85192Y30616D01*
X85189Y30628D01*
Y30630D01*
X85456Y30697D01*
X85468Y30651D01*
X85483Y30607D01*
X85497Y30566D01*
X85512Y30529D01*
X85529Y30494D01*
X85547Y30465D01*
X85567Y30435D01*
X85584Y30409D01*
X85599Y30386D01*
X85616Y30369D01*
X85631Y30351D01*
X85643Y30336D01*
X85654Y30328D01*
X85663Y30319D01*
X85666Y30316D01*
X85669Y30313D01*
X85698Y30290D01*
X85730Y30272D01*
X85794Y30240D01*
X85855Y30217D01*
X85916Y30203D01*
X85969Y30191D01*
X85989Y30188D01*
X86009D01*
X86027Y30185D01*
X86047D01*
X86114Y30188D01*
X86178Y30200D01*
X86236Y30214D01*
X86289Y30232D01*
X86329Y30249D01*
X86347Y30258D01*
X86361Y30264D01*
X86373Y30270D01*
X86382Y30275D01*
X86387Y30278D01*
X86391D01*
X86446Y30319D01*
X86492Y30363D01*
X86533Y30412D01*
X86565Y30459D01*
X86591Y30500D01*
X86609Y30534D01*
X86615Y30549D01*
X86620Y30558D01*
X86623Y30564D01*
Y30566D01*
X86646Y30642D01*
X86664Y30718D01*
X86678Y30793D01*
X86687Y30863D01*
X86690Y30895D01*
X86693Y30924D01*
Y30950D01*
X86696Y30971D01*
Y30988D01*
Y31003D01*
Y31012D01*
Y31015D01*
X86693Y31090D01*
X86687Y31160D01*
X86676Y31224D01*
X86664Y31282D01*
X86655Y31332D01*
X86650Y31352D01*
X86644Y31370D01*
X86641Y31384D01*
X86638Y31393D01*
X86635Y31399D01*
Y31402D01*
X86606Y31468D01*
X86574Y31530D01*
X86539Y31579D01*
X86501Y31623D01*
X86469Y31658D01*
X86443Y31681D01*
X86422Y31696D01*
X86420Y31701D01*
X86417D01*
X86356Y31739D01*
X86289Y31768D01*
X86225Y31789D01*
X86164Y31800D01*
X86108Y31809D01*
X86085Y31812D01*
X86064D01*
X86050Y31815D01*
X86027D01*
X85954Y31812D01*
X85887Y31800D01*
X85832Y31783D01*
X85782Y31765D01*
X85744Y31745D01*
X85715Y31730D01*
X85698Y31719D01*
X85692Y31713D01*
X85646Y31669D01*
X85602Y31620D01*
X85567Y31567D01*
X85538Y31515D01*
X85514Y31468D01*
X85506Y31445D01*
X85500Y31428D01*
X85494Y31413D01*
X85488Y31402D01*
X85486Y31396D01*
Y31393D01*
X85224Y31454D01*
X85241Y31506D01*
X85259Y31553D01*
X85282Y31597D01*
X85302Y31640D01*
X85325Y31678D01*
X85352Y31713D01*
X85375Y31748D01*
X85398Y31777D01*
X85421Y31800D01*
X85442Y31824D01*
X85462Y31844D01*
X85477Y31858D01*
X85491Y31873D01*
X85503Y31882D01*
X85509Y31885D01*
X85512Y31888D01*
X85552Y31914D01*
X85593Y31940D01*
X85634Y31960D01*
X85677Y31978D01*
X85765Y32004D01*
X85843Y32021D01*
X85881Y32030D01*
X85913Y32033D01*
X85945Y32036D01*
X85971Y32039D01*
X85992Y32042D01*
X86021D01*
X86117Y32036D01*
D02*
G37*
G36*
X100698Y57010D02*
X100776Y56995D01*
X100843Y56972D01*
X100901Y56949D01*
X100928Y56934D01*
X100948Y56923D01*
X100968Y56911D01*
X100983Y56899D01*
X100995Y56890D01*
X101003Y56885D01*
X101009Y56882D01*
X101012Y56879D01*
X101067Y56823D01*
X101111Y56762D01*
X101146Y56698D01*
X101175Y56634D01*
X101192Y56579D01*
X101201Y56556D01*
X101207Y56535D01*
X101210Y56518D01*
X101213Y56506D01*
X101216Y56498D01*
Y56495D01*
X100968Y56451D01*
X100957Y56515D01*
X100939Y56570D01*
X100919Y56617D01*
X100899Y56655D01*
X100878Y56684D01*
X100861Y56704D01*
X100849Y56719D01*
X100846Y56722D01*
X100808Y56751D01*
X100768Y56774D01*
X100730Y56789D01*
X100692Y56800D01*
X100657Y56806D01*
X100631Y56812D01*
X100608D01*
X100555Y56809D01*
X100509Y56797D01*
X100468Y56783D01*
X100433Y56768D01*
X100407Y56751D01*
X100386Y56736D01*
X100372Y56725D01*
X100369Y56722D01*
X100337Y56687D01*
X100314Y56649D01*
X100299Y56611D01*
X100287Y56576D01*
X100282Y56544D01*
X100276Y56521D01*
Y56503D01*
Y56501D01*
Y56498D01*
Y56466D01*
X100282Y56437D01*
X100296Y56387D01*
X100317Y56343D01*
X100340Y56306D01*
X100363Y56279D01*
X100383Y56259D01*
X100398Y56247D01*
X100401Y56244D01*
X100404D01*
X100453Y56218D01*
X100500Y56198D01*
X100549Y56183D01*
X100593Y56175D01*
X100631Y56169D01*
X100663Y56163D01*
X100701D01*
X100712Y56166D01*
X100727D01*
X100756Y55948D01*
X100718Y55956D01*
X100683Y55962D01*
X100654Y55968D01*
X100628Y55971D01*
X100608Y55974D01*
X100581D01*
X100520Y55968D01*
X100465Y55956D01*
X100416Y55939D01*
X100375Y55919D01*
X100343Y55898D01*
X100319Y55881D01*
X100305Y55869D01*
X100299Y55863D01*
X100261Y55820D01*
X100232Y55773D01*
X100212Y55726D01*
X100200Y55680D01*
X100191Y55642D01*
X100189Y55610D01*
X100186Y55598D01*
Y55590D01*
Y55584D01*
Y55581D01*
X100191Y55517D01*
X100206Y55459D01*
X100223Y55409D01*
X100247Y55366D01*
X100270Y55331D01*
X100287Y55304D01*
X100302Y55287D01*
X100308Y55281D01*
X100354Y55240D01*
X100404Y55211D01*
X100453Y55191D01*
X100500Y55177D01*
X100541Y55168D01*
X100573Y55165D01*
X100584Y55162D01*
X100602D01*
X100654Y55165D01*
X100704Y55177D01*
X100747Y55191D01*
X100782Y55208D01*
X100811Y55223D01*
X100835Y55238D01*
X100846Y55249D01*
X100852Y55252D01*
X100887Y55293D01*
X100916Y55339D01*
X100942Y55389D01*
X100962Y55441D01*
X100977Y55485D01*
X100983Y55505D01*
X100986Y55523D01*
X100989Y55537D01*
X100992Y55549D01*
X100995Y55555D01*
Y55558D01*
X101242Y55526D01*
X101236Y55479D01*
X101227Y55436D01*
X101201Y55354D01*
X101169Y55284D01*
X101152Y55255D01*
X101134Y55226D01*
X101117Y55200D01*
X101099Y55179D01*
X101085Y55159D01*
X101070Y55145D01*
X101061Y55133D01*
X101053Y55124D01*
X101047Y55118D01*
X101044Y55115D01*
X101009Y55089D01*
X100974Y55063D01*
X100939Y55043D01*
X100901Y55025D01*
X100829Y54996D01*
X100759Y54979D01*
X100727Y54973D01*
X100698Y54967D01*
X100672Y54964D01*
X100648Y54961D01*
X100631Y54958D01*
X100605D01*
X100549Y54961D01*
X100500Y54967D01*
X100450Y54976D01*
X100404Y54987D01*
X100360Y55002D01*
X100322Y55016D01*
X100285Y55034D01*
X100252Y55051D01*
X100221Y55066D01*
X100194Y55083D01*
X100171Y55098D01*
X100154Y55112D01*
X100139Y55124D01*
X100127Y55133D01*
X100122Y55139D01*
X100119Y55142D01*
X100084Y55177D01*
X100055Y55214D01*
X100028Y55252D01*
X100005Y55290D01*
X99988Y55325D01*
X99970Y55363D01*
X99947Y55433D01*
X99941Y55465D01*
X99935Y55494D01*
X99929Y55520D01*
X99927Y55543D01*
X99924Y55561D01*
Y55575D01*
Y55584D01*
Y55587D01*
X99927Y55657D01*
X99938Y55721D01*
X99956Y55776D01*
X99973Y55822D01*
X99991Y55860D01*
X100008Y55889D01*
X100020Y55907D01*
X100023Y55913D01*
X100063Y55956D01*
X100107Y55994D01*
X100154Y56023D01*
X100200Y56047D01*
X100241Y56064D01*
X100273Y56076D01*
X100285Y56079D01*
X100293Y56081D01*
X100299Y56084D01*
X100302D01*
X100252Y56111D01*
X100212Y56137D01*
X100177Y56166D01*
X100148Y56192D01*
X100125Y56215D01*
X100107Y56236D01*
X100098Y56247D01*
X100095Y56253D01*
X100072Y56294D01*
X100055Y56335D01*
X100040Y56375D01*
X100031Y56413D01*
X100025Y56445D01*
X100023Y56468D01*
Y56486D01*
Y56492D01*
X100025Y56541D01*
X100034Y56591D01*
X100046Y56634D01*
X100060Y56672D01*
X100075Y56704D01*
X100087Y56730D01*
X100095Y56745D01*
X100098Y56751D01*
X100127Y56794D01*
X100162Y56832D01*
X100197Y56864D01*
X100232Y56893D01*
X100261Y56914D01*
X100287Y56931D01*
X100305Y56940D01*
X100308Y56943D01*
X100311D01*
X100363Y56966D01*
X100416Y56984D01*
X100468Y56998D01*
X100514Y57007D01*
X100552Y57013D01*
X100584Y57016D01*
X100657D01*
X100698Y57010D01*
D02*
G37*
G36*
X102400Y57036D02*
X102493Y57021D01*
X102575Y57004D01*
X102612Y56992D01*
X102647Y56981D01*
X102679Y56969D01*
X102708Y56957D01*
X102732Y56949D01*
X102755Y56940D01*
X102770Y56931D01*
X102781Y56925D01*
X102790Y56923D01*
X102793Y56920D01*
X102872Y56870D01*
X102938Y56812D01*
X102997Y56754D01*
X103046Y56695D01*
X103084Y56643D01*
X103098Y56620D01*
X103110Y56599D01*
X103122Y56585D01*
X103128Y56573D01*
X103130Y56564D01*
X103133Y56562D01*
X103174Y56471D01*
X103203Y56378D01*
X103224Y56285D01*
X103238Y56201D01*
X103244Y56163D01*
X103247Y56125D01*
X103250Y56096D01*
Y56067D01*
X103253Y56047D01*
Y56029D01*
Y56018D01*
Y56015D01*
X103247Y55910D01*
X103235Y55808D01*
X103221Y55718D01*
X103209Y55674D01*
X103200Y55636D01*
X103192Y55601D01*
X103180Y55569D01*
X103171Y55540D01*
X103165Y55517D01*
X103157Y55500D01*
X103154Y55485D01*
X103148Y55476D01*
Y55473D01*
X103104Y55386D01*
X103055Y55307D01*
X103002Y55240D01*
X102976Y55214D01*
X102953Y55188D01*
X102930Y55165D01*
X102906Y55145D01*
X102886Y55127D01*
X102869Y55115D01*
X102857Y55104D01*
X102845Y55095D01*
X102840Y55092D01*
X102837Y55089D01*
X102796Y55066D01*
X102755Y55045D01*
X102668Y55014D01*
X102580Y54990D01*
X102496Y54976D01*
X102455Y54970D01*
X102420Y54964D01*
X102388Y54961D01*
X102362D01*
X102339Y54958D01*
X102307D01*
X102249Y54961D01*
X102193Y54967D01*
X102141Y54973D01*
X102092Y54984D01*
X102045Y54999D01*
X102001Y55014D01*
X101961Y55028D01*
X101923Y55045D01*
X101891Y55060D01*
X101859Y55075D01*
X101836Y55089D01*
X101812Y55104D01*
X101798Y55115D01*
X101783Y55121D01*
X101777Y55127D01*
X101774Y55130D01*
X101734Y55165D01*
X101699Y55200D01*
X101667Y55240D01*
X101635Y55281D01*
X101582Y55363D01*
X101542Y55444D01*
X101524Y55482D01*
X101510Y55517D01*
X101498Y55549D01*
X101489Y55575D01*
X101480Y55598D01*
X101475Y55616D01*
X101472Y55628D01*
Y55630D01*
X101740Y55697D01*
X101751Y55651D01*
X101766Y55607D01*
X101780Y55566D01*
X101795Y55529D01*
X101812Y55494D01*
X101830Y55465D01*
X101850Y55436D01*
X101868Y55409D01*
X101882Y55386D01*
X101900Y55369D01*
X101914Y55351D01*
X101926Y55336D01*
X101937Y55328D01*
X101946Y55319D01*
X101949Y55316D01*
X101952Y55313D01*
X101981Y55290D01*
X102013Y55273D01*
X102077Y55240D01*
X102138Y55217D01*
X102199Y55203D01*
X102252Y55191D01*
X102272Y55188D01*
X102292D01*
X102310Y55185D01*
X102330D01*
X102397Y55188D01*
X102461Y55200D01*
X102519Y55214D01*
X102572Y55232D01*
X102612Y55249D01*
X102630Y55258D01*
X102645Y55264D01*
X102656Y55270D01*
X102665Y55275D01*
X102671Y55278D01*
X102674D01*
X102729Y55319D01*
X102776Y55363D01*
X102816Y55412D01*
X102848Y55459D01*
X102874Y55500D01*
X102892Y55534D01*
X102898Y55549D01*
X102903Y55558D01*
X102906Y55563D01*
Y55566D01*
X102930Y55642D01*
X102947Y55718D01*
X102962Y55793D01*
X102970Y55863D01*
X102973Y55895D01*
X102976Y55924D01*
Y55950D01*
X102979Y55971D01*
Y55988D01*
Y56003D01*
Y56012D01*
Y56015D01*
X102976Y56090D01*
X102970Y56160D01*
X102959Y56224D01*
X102947Y56282D01*
X102938Y56332D01*
X102933Y56352D01*
X102927Y56370D01*
X102924Y56384D01*
X102921Y56393D01*
X102918Y56399D01*
Y56402D01*
X102889Y56468D01*
X102857Y56530D01*
X102822Y56579D01*
X102784Y56623D01*
X102752Y56658D01*
X102726Y56681D01*
X102706Y56695D01*
X102703Y56701D01*
X102700D01*
X102639Y56739D01*
X102572Y56768D01*
X102508Y56789D01*
X102447Y56800D01*
X102391Y56809D01*
X102368Y56812D01*
X102348D01*
X102333Y56815D01*
X102310D01*
X102237Y56812D01*
X102170Y56800D01*
X102115Y56783D01*
X102065Y56765D01*
X102028Y56745D01*
X101998Y56730D01*
X101981Y56719D01*
X101975Y56713D01*
X101929Y56669D01*
X101885Y56620D01*
X101850Y56567D01*
X101821Y56515D01*
X101798Y56468D01*
X101789Y56445D01*
X101783Y56428D01*
X101777Y56413D01*
X101771Y56402D01*
X101769Y56396D01*
Y56393D01*
X101507Y56454D01*
X101524Y56506D01*
X101542Y56553D01*
X101565Y56597D01*
X101585Y56640D01*
X101609Y56678D01*
X101635Y56713D01*
X101658Y56748D01*
X101681Y56777D01*
X101705Y56800D01*
X101725Y56823D01*
X101745Y56844D01*
X101760Y56858D01*
X101774Y56873D01*
X101786Y56882D01*
X101792Y56885D01*
X101795Y56888D01*
X101836Y56914D01*
X101876Y56940D01*
X101917Y56960D01*
X101961Y56978D01*
X102048Y57004D01*
X102127Y57021D01*
X102164Y57030D01*
X102196Y57033D01*
X102228Y57036D01*
X102255Y57039D01*
X102275Y57042D01*
X102304D01*
X102400Y57036D01*
D02*
G37*
G36*
X111308Y72536D02*
X111401Y72521D01*
X111482Y72504D01*
X111520Y72492D01*
X111555Y72481D01*
X111587Y72469D01*
X111616Y72457D01*
X111639Y72449D01*
X111662Y72440D01*
X111677Y72431D01*
X111689Y72425D01*
X111697Y72422D01*
X111700Y72420D01*
X111779Y72370D01*
X111846Y72312D01*
X111904Y72254D01*
X111953Y72196D01*
X111991Y72143D01*
X112006Y72120D01*
X112018Y72100D01*
X112029Y72085D01*
X112035Y72073D01*
X112038Y72065D01*
X112041Y72062D01*
X112082Y71971D01*
X112111Y71878D01*
X112131Y71785D01*
X112146Y71701D01*
X112151Y71663D01*
X112154Y71625D01*
X112157Y71596D01*
Y71567D01*
X112160Y71547D01*
Y71529D01*
Y71517D01*
Y71514D01*
X112154Y71410D01*
X112143Y71308D01*
X112128Y71218D01*
X112117Y71174D01*
X112108Y71136D01*
X112099Y71101D01*
X112087Y71069D01*
X112079Y71040D01*
X112073Y71017D01*
X112064Y70999D01*
X112061Y70985D01*
X112055Y70976D01*
Y70973D01*
X112012Y70886D01*
X111962Y70807D01*
X111910Y70740D01*
X111884Y70714D01*
X111860Y70688D01*
X111837Y70665D01*
X111814Y70644D01*
X111793Y70627D01*
X111776Y70615D01*
X111764Y70604D01*
X111753Y70595D01*
X111747Y70592D01*
X111744Y70589D01*
X111703Y70566D01*
X111662Y70546D01*
X111575Y70513D01*
X111488Y70490D01*
X111404Y70476D01*
X111363Y70470D01*
X111328Y70464D01*
X111296Y70461D01*
X111270D01*
X111246Y70458D01*
X111214D01*
X111156Y70461D01*
X111101Y70467D01*
X111048Y70473D01*
X110999Y70484D01*
X110952Y70499D01*
X110909Y70513D01*
X110868Y70528D01*
X110830Y70546D01*
X110798Y70560D01*
X110766Y70575D01*
X110743Y70589D01*
X110720Y70604D01*
X110705Y70615D01*
X110691Y70621D01*
X110685Y70627D01*
X110682Y70630D01*
X110641Y70665D01*
X110606Y70700D01*
X110574Y70740D01*
X110542Y70781D01*
X110490Y70863D01*
X110449Y70944D01*
X110432Y70982D01*
X110417Y71017D01*
X110405Y71049D01*
X110397Y71075D01*
X110388Y71098D01*
X110382Y71116D01*
X110379Y71127D01*
Y71130D01*
X110647Y71197D01*
X110659Y71151D01*
X110673Y71107D01*
X110688Y71066D01*
X110702Y71029D01*
X110720Y70994D01*
X110737Y70965D01*
X110758Y70935D01*
X110775Y70909D01*
X110790Y70886D01*
X110807Y70868D01*
X110822Y70851D01*
X110833Y70837D01*
X110845Y70828D01*
X110854Y70819D01*
X110856Y70816D01*
X110859Y70813D01*
X110889Y70790D01*
X110921Y70772D01*
X110985Y70740D01*
X111046Y70717D01*
X111107Y70703D01*
X111159Y70691D01*
X111179Y70688D01*
X111200D01*
X111217Y70685D01*
X111238D01*
X111305Y70688D01*
X111369Y70700D01*
X111427Y70714D01*
X111479Y70732D01*
X111520Y70749D01*
X111537Y70758D01*
X111552Y70764D01*
X111564Y70770D01*
X111572Y70775D01*
X111578Y70778D01*
X111581D01*
X111636Y70819D01*
X111683Y70863D01*
X111724Y70912D01*
X111756Y70959D01*
X111782Y70999D01*
X111799Y71034D01*
X111805Y71049D01*
X111811Y71058D01*
X111814Y71064D01*
Y71066D01*
X111837Y71142D01*
X111855Y71218D01*
X111869Y71293D01*
X111878Y71363D01*
X111881Y71395D01*
X111884Y71424D01*
Y71451D01*
X111887Y71471D01*
Y71488D01*
Y71503D01*
Y71512D01*
Y71514D01*
X111884Y71590D01*
X111878Y71660D01*
X111866Y71724D01*
X111855Y71782D01*
X111846Y71832D01*
X111840Y71852D01*
X111834Y71870D01*
X111831Y71884D01*
X111828Y71893D01*
X111826Y71899D01*
Y71902D01*
X111796Y71969D01*
X111764Y72030D01*
X111730Y72079D01*
X111692Y72123D01*
X111660Y72158D01*
X111633Y72181D01*
X111613Y72196D01*
X111610Y72201D01*
X111607D01*
X111546Y72239D01*
X111479Y72268D01*
X111415Y72289D01*
X111354Y72300D01*
X111299Y72309D01*
X111275Y72312D01*
X111255D01*
X111241Y72315D01*
X111217D01*
X111145Y72312D01*
X111078Y72300D01*
X111022Y72283D01*
X110973Y72265D01*
X110935Y72245D01*
X110906Y72230D01*
X110889Y72219D01*
X110883Y72213D01*
X110836Y72169D01*
X110793Y72120D01*
X110758Y72067D01*
X110728Y72015D01*
X110705Y71969D01*
X110696Y71945D01*
X110691Y71928D01*
X110685Y71913D01*
X110679Y71902D01*
X110676Y71896D01*
Y71893D01*
X110414Y71954D01*
X110432Y72006D01*
X110449Y72053D01*
X110472Y72097D01*
X110493Y72140D01*
X110516Y72178D01*
X110542Y72213D01*
X110565Y72248D01*
X110589Y72277D01*
X110612Y72300D01*
X110632Y72324D01*
X110653Y72344D01*
X110667Y72359D01*
X110682Y72373D01*
X110694Y72382D01*
X110699Y72385D01*
X110702Y72387D01*
X110743Y72414D01*
X110784Y72440D01*
X110825Y72460D01*
X110868Y72478D01*
X110955Y72504D01*
X111034Y72521D01*
X111072Y72530D01*
X111104Y72533D01*
X111136Y72536D01*
X111162Y72539D01*
X111182Y72542D01*
X111212D01*
X111308Y72536D01*
D02*
G37*
G36*
X110237Y71203D02*
Y70976D01*
X109361D01*
Y70493D01*
X109113D01*
Y70976D01*
X108840D01*
Y71203D01*
X109113D01*
Y72507D01*
X109314D01*
X110237Y71203D01*
D02*
G37*
G36*
X111827Y47657D02*
X111876Y47651D01*
X111925Y47642D01*
X111969Y47631D01*
X112010Y47616D01*
X112050Y47602D01*
X112085Y47584D01*
X112118Y47570D01*
X112147Y47552D01*
X112173Y47535D01*
X112193Y47520D01*
X112214Y47506D01*
X112228Y47494D01*
X112237Y47485D01*
X112243Y47480D01*
X112246Y47477D01*
X112277Y47442D01*
X112307Y47407D01*
X112330Y47369D01*
X112350Y47331D01*
X112371Y47293D01*
X112385Y47256D01*
X112406Y47186D01*
X112414Y47154D01*
X112420Y47124D01*
X112423Y47098D01*
X112426Y47075D01*
X112429Y47058D01*
Y46994D01*
X112423Y46959D01*
X112408Y46889D01*
X112388Y46825D01*
X112365Y46767D01*
X112341Y46720D01*
X112330Y46700D01*
X112321Y46682D01*
X112312Y46668D01*
X112307Y46659D01*
X112304Y46653D01*
X112301Y46650D01*
X112845Y46758D01*
Y47564D01*
X113081D01*
Y46563D01*
X112045Y46368D01*
X112013Y46601D01*
X112045Y46621D01*
X112071Y46647D01*
X112097Y46671D01*
X112118Y46694D01*
X112132Y46717D01*
X112147Y46735D01*
X112152Y46746D01*
X112155Y46749D01*
X112173Y46787D01*
X112187Y46825D01*
X112196Y46860D01*
X112205Y46895D01*
X112208Y46924D01*
X112211Y46947D01*
Y47002D01*
X112205Y47037D01*
X112190Y47098D01*
X112170Y47151D01*
X112150Y47197D01*
X112126Y47232D01*
X112106Y47258D01*
X112091Y47273D01*
X112088Y47279D01*
X112085D01*
X112036Y47319D01*
X111984Y47349D01*
X111928Y47369D01*
X111873Y47383D01*
X111827Y47392D01*
X111806Y47395D01*
X111789D01*
X111774Y47398D01*
X111762D01*
X111757D01*
X111754D01*
X111713D01*
X111675Y47392D01*
X111602Y47378D01*
X111541Y47357D01*
X111492Y47337D01*
X111451Y47314D01*
X111419Y47293D01*
X111410Y47285D01*
X111402Y47279D01*
X111399Y47276D01*
X111396Y47273D01*
X111372Y47250D01*
X111352Y47226D01*
X111317Y47174D01*
X111294Y47124D01*
X111279Y47075D01*
X111268Y47034D01*
X111265Y46999D01*
X111262Y46988D01*
Y46970D01*
X111265Y46915D01*
X111276Y46866D01*
X111291Y46822D01*
X111309Y46787D01*
X111326Y46755D01*
X111340Y46732D01*
X111352Y46720D01*
X111355Y46714D01*
X111396Y46679D01*
X111439Y46650D01*
X111489Y46627D01*
X111533Y46610D01*
X111576Y46598D01*
X111608Y46589D01*
X111623Y46586D01*
X111632Y46583D01*
X111637D01*
X111640D01*
X111620Y46324D01*
X111573Y46330D01*
X111530Y46339D01*
X111448Y46365D01*
X111378Y46397D01*
X111346Y46415D01*
X111320Y46432D01*
X111294Y46446D01*
X111271Y46464D01*
X111253Y46479D01*
X111239Y46493D01*
X111227Y46505D01*
X111215Y46510D01*
X111213Y46516D01*
X111209Y46519D01*
X111183Y46554D01*
X111160Y46589D01*
X111140Y46627D01*
X111122Y46665D01*
X111096Y46738D01*
X111079Y46810D01*
X111070Y46842D01*
X111067Y46874D01*
X111064Y46900D01*
X111061Y46924D01*
X111058Y46944D01*
Y46970D01*
X111061Y47031D01*
X111070Y47090D01*
X111082Y47145D01*
X111096Y47194D01*
X111116Y47241D01*
X111137Y47285D01*
X111157Y47325D01*
X111180Y47360D01*
X111204Y47392D01*
X111224Y47421D01*
X111247Y47445D01*
X111265Y47465D01*
X111279Y47480D01*
X111291Y47491D01*
X111300Y47497D01*
X111303Y47500D01*
X111340Y47529D01*
X111381Y47552D01*
X111419Y47576D01*
X111460Y47593D01*
X111538Y47622D01*
X111614Y47640D01*
X111646Y47645D01*
X111678Y47651D01*
X111704Y47654D01*
X111727Y47657D01*
X111748Y47660D01*
X111762D01*
X111771D01*
X111774D01*
X111827Y47657D01*
D02*
G37*
G36*
X111797Y45830D02*
X111751Y45818D01*
X111707Y45803D01*
X111666Y45789D01*
X111629Y45774D01*
X111594Y45757D01*
X111565Y45739D01*
X111536Y45719D01*
X111509Y45702D01*
X111486Y45687D01*
X111469Y45669D01*
X111451Y45655D01*
X111436Y45643D01*
X111428Y45632D01*
X111419Y45623D01*
X111416Y45620D01*
X111413Y45617D01*
X111390Y45588D01*
X111372Y45556D01*
X111340Y45492D01*
X111317Y45431D01*
X111303Y45370D01*
X111291Y45317D01*
X111288Y45297D01*
Y45277D01*
X111285Y45259D01*
Y45239D01*
X111288Y45172D01*
X111300Y45108D01*
X111314Y45050D01*
X111332Y44997D01*
X111349Y44957D01*
X111358Y44939D01*
X111364Y44925D01*
X111370Y44913D01*
X111375Y44904D01*
X111378Y44898D01*
Y44895D01*
X111419Y44840D01*
X111463Y44794D01*
X111512Y44753D01*
X111559Y44721D01*
X111600Y44695D01*
X111634Y44677D01*
X111649Y44671D01*
X111658Y44666D01*
X111663Y44663D01*
X111666D01*
X111742Y44639D01*
X111818Y44622D01*
X111893Y44607D01*
X111963Y44599D01*
X111995Y44596D01*
X112024Y44593D01*
X112050D01*
X112071Y44590D01*
X112088D01*
X112103D01*
X112112D01*
X112115D01*
X112190Y44593D01*
X112260Y44599D01*
X112324Y44610D01*
X112382Y44622D01*
X112432Y44631D01*
X112452Y44636D01*
X112470Y44642D01*
X112484Y44645D01*
X112493Y44648D01*
X112499Y44651D01*
X112502D01*
X112568Y44680D01*
X112630Y44712D01*
X112679Y44747D01*
X112723Y44785D01*
X112758Y44817D01*
X112781Y44843D01*
X112795Y44864D01*
X112801Y44866D01*
Y44869D01*
X112839Y44930D01*
X112868Y44997D01*
X112889Y45061D01*
X112900Y45123D01*
X112909Y45178D01*
X112912Y45201D01*
Y45221D01*
X112915Y45236D01*
Y45259D01*
X112912Y45332D01*
X112900Y45399D01*
X112883Y45454D01*
X112865Y45504D01*
X112845Y45542D01*
X112830Y45571D01*
X112819Y45588D01*
X112813Y45594D01*
X112769Y45640D01*
X112720Y45684D01*
X112668Y45719D01*
X112615Y45748D01*
X112568Y45771D01*
X112545Y45780D01*
X112528Y45786D01*
X112513Y45792D01*
X112502Y45798D01*
X112496Y45801D01*
X112493D01*
X112554Y46062D01*
X112606Y46045D01*
X112653Y46027D01*
X112697Y46004D01*
X112740Y45984D01*
X112778Y45961D01*
X112813Y45934D01*
X112848Y45911D01*
X112877Y45888D01*
X112900Y45864D01*
X112924Y45844D01*
X112944Y45824D01*
X112959Y45809D01*
X112973Y45795D01*
X112982Y45783D01*
X112985Y45777D01*
X112988Y45774D01*
X113014Y45734D01*
X113040Y45693D01*
X113060Y45652D01*
X113078Y45608D01*
X113104Y45521D01*
X113121Y45443D01*
X113130Y45405D01*
X113133Y45373D01*
X113136Y45341D01*
X113139Y45314D01*
X113142Y45294D01*
Y45265D01*
X113136Y45169D01*
X113121Y45076D01*
X113104Y44994D01*
X113092Y44957D01*
X113081Y44922D01*
X113069Y44890D01*
X113057Y44861D01*
X113049Y44837D01*
X113040Y44814D01*
X113031Y44800D01*
X113025Y44788D01*
X113022Y44779D01*
X113020Y44776D01*
X112970Y44698D01*
X112912Y44631D01*
X112854Y44572D01*
X112795Y44523D01*
X112743Y44485D01*
X112720Y44471D01*
X112699Y44459D01*
X112685Y44447D01*
X112673Y44442D01*
X112665Y44439D01*
X112662Y44436D01*
X112571Y44395D01*
X112478Y44366D01*
X112385Y44346D01*
X112301Y44331D01*
X112263Y44325D01*
X112225Y44322D01*
X112196Y44319D01*
X112167D01*
X112147Y44316D01*
X112129D01*
X112118D01*
X112115D01*
X112010Y44322D01*
X111908Y44334D01*
X111818Y44348D01*
X111774Y44360D01*
X111736Y44369D01*
X111701Y44377D01*
X111669Y44389D01*
X111640Y44398D01*
X111617Y44404D01*
X111600Y44412D01*
X111585Y44415D01*
X111576Y44421D01*
X111573D01*
X111486Y44465D01*
X111407Y44514D01*
X111340Y44567D01*
X111314Y44593D01*
X111288Y44616D01*
X111265Y44639D01*
X111244Y44663D01*
X111227Y44683D01*
X111215Y44701D01*
X111204Y44712D01*
X111195Y44724D01*
X111192Y44730D01*
X111189Y44732D01*
X111166Y44773D01*
X111145Y44814D01*
X111114Y44901D01*
X111090Y44989D01*
X111076Y45073D01*
X111070Y45114D01*
X111064Y45149D01*
X111061Y45181D01*
Y45207D01*
X111058Y45230D01*
Y45262D01*
X111061Y45320D01*
X111067Y45376D01*
X111073Y45428D01*
X111084Y45478D01*
X111099Y45524D01*
X111114Y45568D01*
X111128Y45608D01*
X111145Y45646D01*
X111160Y45678D01*
X111175Y45710D01*
X111189Y45734D01*
X111204Y45757D01*
X111215Y45771D01*
X111221Y45786D01*
X111227Y45792D01*
X111230Y45795D01*
X111265Y45835D01*
X111300Y45870D01*
X111340Y45902D01*
X111381Y45934D01*
X111463Y45987D01*
X111544Y46027D01*
X111582Y46045D01*
X111617Y46060D01*
X111649Y46071D01*
X111675Y46080D01*
X111698Y46089D01*
X111716Y46094D01*
X111727Y46097D01*
X111730D01*
X111797Y45830D01*
D02*
G37*
G36*
X82502Y18013D02*
X82557Y18007D01*
X82609Y17995D01*
X82659Y17981D01*
X82703Y17960D01*
X82746Y17943D01*
X82784Y17920D01*
X82819Y17899D01*
X82848Y17879D01*
X82877Y17855D01*
X82901Y17838D01*
X82918Y17821D01*
X82933Y17803D01*
X82944Y17792D01*
X82950Y17786D01*
X82953Y17783D01*
X82991Y17730D01*
X83023Y17669D01*
X83052Y17605D01*
X83078Y17538D01*
X83098Y17469D01*
X83116Y17399D01*
X83130Y17326D01*
X83142Y17259D01*
X83151Y17192D01*
X83157Y17131D01*
X83162Y17076D01*
X83165Y17029D01*
Y16988D01*
X83168Y16959D01*
Y16948D01*
Y16939D01*
Y16936D01*
Y16933D01*
X83165Y16840D01*
X83160Y16753D01*
X83151Y16671D01*
X83136Y16596D01*
X83122Y16529D01*
X83107Y16467D01*
X83090Y16412D01*
X83069Y16363D01*
X83052Y16322D01*
X83034Y16284D01*
X83020Y16255D01*
X83002Y16229D01*
X82991Y16208D01*
X82982Y16197D01*
X82976Y16188D01*
X82973Y16185D01*
X82936Y16145D01*
X82895Y16109D01*
X82854Y16080D01*
X82813Y16054D01*
X82770Y16031D01*
X82729Y16014D01*
X82688Y15999D01*
X82647Y15987D01*
X82613Y15979D01*
X82578Y15970D01*
X82548Y15964D01*
X82522Y15961D01*
X82499D01*
X82484Y15958D01*
X82470D01*
X82403Y15961D01*
X82342Y15973D01*
X82287Y15984D01*
X82237Y16002D01*
X82199Y16016D01*
X82170Y16031D01*
X82158Y16034D01*
X82150Y16040D01*
X82147Y16043D01*
X82144D01*
X82095Y16078D01*
X82048Y16118D01*
X82010Y16159D01*
X81978Y16200D01*
X81952Y16238D01*
X81934Y16267D01*
X81929Y16278D01*
X81923Y16287D01*
X81920Y16290D01*
Y16293D01*
X81891Y16354D01*
X81870Y16418D01*
X81856Y16476D01*
X81847Y16532D01*
X81838Y16578D01*
Y16596D01*
X81836Y16613D01*
Y16627D01*
Y16636D01*
Y16642D01*
Y16645D01*
X81838Y16697D01*
X81844Y16747D01*
X81853Y16796D01*
X81862Y16840D01*
X81876Y16881D01*
X81891Y16921D01*
X81905Y16956D01*
X81923Y16988D01*
X81940Y17018D01*
X81955Y17044D01*
X81969Y17064D01*
X81984Y17084D01*
X81993Y17099D01*
X82001Y17108D01*
X82007Y17113D01*
X82010Y17116D01*
X82042Y17148D01*
X82077Y17177D01*
X82115Y17201D01*
X82150Y17221D01*
X82185Y17242D01*
X82220Y17256D01*
X82287Y17276D01*
X82316Y17285D01*
X82345Y17291D01*
X82368Y17294D01*
X82391Y17297D01*
X82409Y17300D01*
X82432D01*
X82484Y17297D01*
X82534Y17288D01*
X82580Y17279D01*
X82621Y17268D01*
X82656Y17253D01*
X82682Y17244D01*
X82700Y17236D01*
X82703Y17233D01*
X82706D01*
X82752Y17204D01*
X82793Y17172D01*
X82831Y17140D01*
X82860Y17105D01*
X82886Y17076D01*
X82906Y17052D01*
X82918Y17035D01*
X82921Y17032D01*
Y17084D01*
X82918Y17137D01*
X82915Y17183D01*
X82909Y17230D01*
X82906Y17271D01*
X82901Y17309D01*
X82895Y17343D01*
X82886Y17375D01*
X82880Y17404D01*
X82874Y17428D01*
X82868Y17448D01*
X82866Y17466D01*
X82860Y17477D01*
X82857Y17486D01*
X82854Y17492D01*
Y17495D01*
X82825Y17553D01*
X82796Y17605D01*
X82764Y17646D01*
X82735Y17681D01*
X82709Y17710D01*
X82688Y17730D01*
X82674Y17742D01*
X82668Y17745D01*
X82633Y17768D01*
X82598Y17783D01*
X82563Y17794D01*
X82528Y17803D01*
X82502Y17809D01*
X82479Y17812D01*
X82458D01*
X82406Y17806D01*
X82356Y17794D01*
X82316Y17777D01*
X82278Y17760D01*
X82249Y17739D01*
X82228Y17722D01*
X82217Y17710D01*
X82211Y17704D01*
X82191Y17678D01*
X82170Y17646D01*
X82153Y17611D01*
X82141Y17576D01*
X82129Y17544D01*
X82121Y17518D01*
X82118Y17501D01*
X82115Y17498D01*
Y17495D01*
X81867Y17515D01*
X81885Y17596D01*
X81911Y17669D01*
X81940Y17733D01*
X81972Y17786D01*
X82004Y17826D01*
X82016Y17844D01*
X82030Y17858D01*
X82039Y17867D01*
X82048Y17876D01*
X82051Y17879D01*
X82054Y17882D01*
X82083Y17905D01*
X82115Y17925D01*
X82179Y17960D01*
X82243Y17984D01*
X82304Y17998D01*
X82359Y18010D01*
X82383Y18013D01*
X82403D01*
X82420Y18016D01*
X82444D01*
X82502Y18013D01*
D02*
G37*
G36*
X84312Y18036D02*
X84405Y18021D01*
X84487Y18004D01*
X84524Y17992D01*
X84559Y17981D01*
X84591Y17969D01*
X84620Y17957D01*
X84644Y17949D01*
X84667Y17940D01*
X84681Y17931D01*
X84693Y17925D01*
X84702Y17922D01*
X84705Y17920D01*
X84783Y17870D01*
X84850Y17812D01*
X84908Y17754D01*
X84958Y17695D01*
X84996Y17643D01*
X85010Y17620D01*
X85022Y17600D01*
X85034Y17585D01*
X85039Y17573D01*
X85042Y17564D01*
X85045Y17562D01*
X85086Y17471D01*
X85115Y17378D01*
X85135Y17285D01*
X85150Y17201D01*
X85156Y17163D01*
X85159Y17125D01*
X85162Y17096D01*
Y17067D01*
X85164Y17047D01*
Y17029D01*
Y17018D01*
Y17015D01*
X85159Y16910D01*
X85147Y16808D01*
X85132Y16718D01*
X85121Y16674D01*
X85112Y16636D01*
X85103Y16601D01*
X85092Y16569D01*
X85083Y16540D01*
X85077Y16517D01*
X85069Y16499D01*
X85066Y16485D01*
X85060Y16476D01*
Y16473D01*
X85016Y16386D01*
X84967Y16307D01*
X84914Y16240D01*
X84888Y16214D01*
X84865Y16188D01*
X84842Y16165D01*
X84818Y16145D01*
X84798Y16127D01*
X84780Y16115D01*
X84769Y16104D01*
X84757Y16095D01*
X84751Y16092D01*
X84748Y16089D01*
X84708Y16066D01*
X84667Y16046D01*
X84580Y16014D01*
X84492Y15990D01*
X84408Y15976D01*
X84367Y15970D01*
X84332Y15964D01*
X84300Y15961D01*
X84274D01*
X84251Y15958D01*
X84219D01*
X84161Y15961D01*
X84105Y15967D01*
X84053Y15973D01*
X84003Y15984D01*
X83957Y15999D01*
X83913Y16014D01*
X83872Y16028D01*
X83835Y16046D01*
X83803Y16060D01*
X83771Y16075D01*
X83747Y16089D01*
X83724Y16104D01*
X83710Y16115D01*
X83695Y16121D01*
X83689Y16127D01*
X83686Y16130D01*
X83645Y16165D01*
X83611Y16200D01*
X83579Y16240D01*
X83547Y16281D01*
X83494Y16363D01*
X83453Y16444D01*
X83436Y16482D01*
X83421Y16517D01*
X83410Y16549D01*
X83401Y16575D01*
X83392Y16598D01*
X83386Y16616D01*
X83384Y16627D01*
Y16630D01*
X83651Y16697D01*
X83663Y16651D01*
X83678Y16607D01*
X83692Y16566D01*
X83707Y16529D01*
X83724Y16494D01*
X83741Y16465D01*
X83762Y16435D01*
X83779Y16409D01*
X83794Y16386D01*
X83811Y16368D01*
X83826Y16351D01*
X83838Y16337D01*
X83849Y16328D01*
X83858Y16319D01*
X83861Y16316D01*
X83864Y16313D01*
X83893Y16290D01*
X83925Y16273D01*
X83989Y16240D01*
X84050Y16217D01*
X84111Y16203D01*
X84163Y16191D01*
X84184Y16188D01*
X84204D01*
X84222Y16185D01*
X84242D01*
X84309Y16188D01*
X84373Y16200D01*
X84431Y16214D01*
X84484Y16232D01*
X84524Y16249D01*
X84542Y16258D01*
X84556Y16264D01*
X84568Y16270D01*
X84577Y16275D01*
X84583Y16278D01*
X84585D01*
X84641Y16319D01*
X84687Y16363D01*
X84728Y16412D01*
X84760Y16459D01*
X84786Y16499D01*
X84804Y16534D01*
X84809Y16549D01*
X84815Y16558D01*
X84818Y16564D01*
Y16566D01*
X84842Y16642D01*
X84859Y16718D01*
X84873Y16793D01*
X84882Y16863D01*
X84885Y16895D01*
X84888Y16924D01*
Y16951D01*
X84891Y16971D01*
Y16988D01*
Y17003D01*
Y17012D01*
Y17015D01*
X84888Y17090D01*
X84882Y17160D01*
X84871Y17224D01*
X84859Y17282D01*
X84850Y17332D01*
X84844Y17352D01*
X84839Y17370D01*
X84836Y17384D01*
X84833Y17393D01*
X84830Y17399D01*
Y17402D01*
X84801Y17469D01*
X84769Y17530D01*
X84734Y17579D01*
X84696Y17623D01*
X84664Y17658D01*
X84638Y17681D01*
X84617Y17695D01*
X84614Y17701D01*
X84612D01*
X84550Y17739D01*
X84484Y17768D01*
X84420Y17789D01*
X84359Y17800D01*
X84303Y17809D01*
X84280Y17812D01*
X84259D01*
X84245Y17815D01*
X84222D01*
X84149Y17812D01*
X84082Y17800D01*
X84027Y17783D01*
X83977Y17765D01*
X83939Y17745D01*
X83910Y17730D01*
X83893Y17719D01*
X83887Y17713D01*
X83841Y17669D01*
X83797Y17620D01*
X83762Y17567D01*
X83733Y17515D01*
X83710Y17469D01*
X83701Y17445D01*
X83695Y17428D01*
X83689Y17413D01*
X83683Y17402D01*
X83680Y17396D01*
Y17393D01*
X83419Y17454D01*
X83436Y17506D01*
X83453Y17553D01*
X83477Y17596D01*
X83497Y17640D01*
X83520Y17678D01*
X83547Y17713D01*
X83570Y17748D01*
X83593Y17777D01*
X83616Y17800D01*
X83637Y17823D01*
X83657Y17844D01*
X83672Y17858D01*
X83686Y17873D01*
X83698Y17882D01*
X83704Y17885D01*
X83707Y17887D01*
X83747Y17914D01*
X83788Y17940D01*
X83829Y17960D01*
X83872Y17978D01*
X83960Y18004D01*
X84038Y18021D01*
X84076Y18030D01*
X84108Y18033D01*
X84140Y18036D01*
X84166Y18039D01*
X84187Y18042D01*
X84216D01*
X84312Y18036D01*
D02*
G37*
G36*
X70481Y56861D02*
X70242D01*
Y57847D01*
X70158Y57778D01*
X70067Y57711D01*
X69980Y57652D01*
X69896Y57597D01*
X69858Y57574D01*
X69823Y57553D01*
X69791Y57533D01*
X69765Y57519D01*
X69741Y57507D01*
X69727Y57498D01*
X69715Y57492D01*
X69712Y57489D01*
X69596Y57431D01*
X69480Y57379D01*
X69369Y57335D01*
X69320Y57318D01*
X69270Y57300D01*
X69226Y57283D01*
X69186Y57271D01*
X69151Y57260D01*
X69122Y57251D01*
X69095Y57242D01*
X69078Y57236D01*
X69066Y57233D01*
X69064D01*
X68944Y57204D01*
X68886Y57193D01*
X68834Y57184D01*
X68784Y57175D01*
X68735Y57166D01*
X68694Y57161D01*
X68653Y57155D01*
X68618Y57152D01*
X68586Y57149D01*
X68557Y57146D01*
X68534D01*
X68516Y57143D01*
X68505D01*
X68496D01*
X68493D01*
Y57396D01*
X68604Y57405D01*
X68706Y57420D01*
X68799Y57434D01*
X68842Y57443D01*
X68883Y57452D01*
X68918Y57457D01*
X68950Y57466D01*
X68979Y57472D01*
X69002Y57478D01*
X69020Y57484D01*
X69034Y57486D01*
X69043Y57489D01*
X69046D01*
X69180Y57533D01*
X69305Y57580D01*
X69366Y57603D01*
X69424Y57626D01*
X69477Y57652D01*
X69529Y57676D01*
X69576Y57696D01*
X69616Y57716D01*
X69651Y57734D01*
X69683Y57748D01*
X69709Y57763D01*
X69727Y57772D01*
X69739Y57778D01*
X69741Y57780D01*
X69803Y57815D01*
X69864Y57850D01*
X69919Y57885D01*
X69971Y57920D01*
X70018Y57952D01*
X70065Y57984D01*
X70105Y58016D01*
X70140Y58042D01*
X70175Y58069D01*
X70204Y58092D01*
X70227Y58115D01*
X70248Y58132D01*
X70265Y58144D01*
X70277Y58156D01*
X70283Y58162D01*
X70286Y58165D01*
X70481D01*
Y56861D01*
D02*
G37*
G36*
X69197Y56349D02*
X69151Y56337D01*
X69107Y56322D01*
X69066Y56308D01*
X69029Y56293D01*
X68994Y56276D01*
X68965Y56258D01*
X68936Y56238D01*
X68909Y56221D01*
X68886Y56206D01*
X68868Y56189D01*
X68851Y56174D01*
X68836Y56162D01*
X68828Y56151D01*
X68819Y56142D01*
X68816Y56139D01*
X68813Y56136D01*
X68790Y56107D01*
X68773Y56075D01*
X68740Y56011D01*
X68717Y55950D01*
X68703Y55889D01*
X68691Y55836D01*
X68688Y55816D01*
Y55796D01*
X68685Y55778D01*
Y55758D01*
X68688Y55691D01*
X68700Y55627D01*
X68714Y55569D01*
X68732Y55516D01*
X68749Y55476D01*
X68758Y55458D01*
X68764Y55444D01*
X68770Y55432D01*
X68775Y55423D01*
X68778Y55418D01*
Y55415D01*
X68819Y55359D01*
X68863Y55313D01*
X68912Y55272D01*
X68959Y55240D01*
X68999Y55214D01*
X69034Y55196D01*
X69049Y55190D01*
X69058Y55185D01*
X69064Y55182D01*
X69066D01*
X69142Y55159D01*
X69218Y55141D01*
X69293Y55127D01*
X69363Y55118D01*
X69395Y55115D01*
X69424Y55112D01*
X69450D01*
X69471Y55109D01*
X69488D01*
X69503D01*
X69512D01*
X69515D01*
X69590Y55112D01*
X69660Y55118D01*
X69724Y55129D01*
X69782Y55141D01*
X69832Y55150D01*
X69852Y55156D01*
X69870Y55161D01*
X69884Y55164D01*
X69893Y55167D01*
X69899Y55170D01*
X69902D01*
X69968Y55199D01*
X70030Y55231D01*
X70079Y55266D01*
X70123Y55304D01*
X70158Y55336D01*
X70181Y55362D01*
X70196Y55383D01*
X70201Y55386D01*
Y55388D01*
X70239Y55449D01*
X70268Y55516D01*
X70289Y55580D01*
X70300Y55642D01*
X70309Y55697D01*
X70312Y55720D01*
Y55740D01*
X70315Y55755D01*
Y55778D01*
X70312Y55851D01*
X70300Y55918D01*
X70283Y55973D01*
X70265Y56023D01*
X70245Y56061D01*
X70230Y56090D01*
X70219Y56107D01*
X70213Y56113D01*
X70169Y56160D01*
X70120Y56203D01*
X70067Y56238D01*
X70015Y56267D01*
X69968Y56291D01*
X69945Y56299D01*
X69928Y56305D01*
X69913Y56311D01*
X69902Y56317D01*
X69896Y56320D01*
X69893D01*
X69954Y56581D01*
X70006Y56564D01*
X70053Y56547D01*
X70097Y56523D01*
X70140Y56503D01*
X70178Y56480D01*
X70213Y56453D01*
X70248Y56430D01*
X70277Y56407D01*
X70300Y56384D01*
X70323Y56363D01*
X70344Y56343D01*
X70359Y56328D01*
X70373Y56314D01*
X70382Y56302D01*
X70385Y56296D01*
X70388Y56293D01*
X70414Y56253D01*
X70440Y56212D01*
X70460Y56171D01*
X70478Y56128D01*
X70504Y56040D01*
X70521Y55962D01*
X70530Y55924D01*
X70533Y55892D01*
X70536Y55860D01*
X70539Y55834D01*
X70542Y55813D01*
Y55784D01*
X70536Y55688D01*
X70521Y55595D01*
X70504Y55514D01*
X70492Y55476D01*
X70481Y55441D01*
X70469Y55409D01*
X70457Y55380D01*
X70449Y55356D01*
X70440Y55333D01*
X70431Y55318D01*
X70425Y55307D01*
X70423Y55298D01*
X70420Y55295D01*
X70370Y55217D01*
X70312Y55150D01*
X70254Y55092D01*
X70196Y55042D01*
X70143Y55004D01*
X70120Y54990D01*
X70100Y54978D01*
X70085Y54966D01*
X70073Y54961D01*
X70065Y54958D01*
X70062Y54955D01*
X69971Y54914D01*
X69878Y54885D01*
X69785Y54865D01*
X69701Y54850D01*
X69663Y54844D01*
X69625Y54841D01*
X69596Y54838D01*
X69567D01*
X69547Y54835D01*
X69529D01*
X69517D01*
X69515D01*
X69410Y54841D01*
X69308Y54853D01*
X69218Y54868D01*
X69174Y54879D01*
X69136Y54888D01*
X69101Y54897D01*
X69069Y54908D01*
X69040Y54917D01*
X69017Y54923D01*
X68999Y54931D01*
X68985Y54934D01*
X68976Y54940D01*
X68973D01*
X68886Y54984D01*
X68807Y55033D01*
X68740Y55086D01*
X68714Y55112D01*
X68688Y55135D01*
X68665Y55159D01*
X68644Y55182D01*
X68627Y55202D01*
X68615Y55220D01*
X68604Y55231D01*
X68595Y55243D01*
X68592Y55249D01*
X68589Y55252D01*
X68566Y55292D01*
X68546Y55333D01*
X68514Y55420D01*
X68490Y55508D01*
X68476Y55592D01*
X68470Y55633D01*
X68464Y55668D01*
X68461Y55700D01*
Y55726D01*
X68458Y55749D01*
Y55781D01*
X68461Y55839D01*
X68467Y55895D01*
X68473Y55947D01*
X68484Y55997D01*
X68499Y56043D01*
X68514Y56087D01*
X68528Y56128D01*
X68546Y56165D01*
X68560Y56197D01*
X68575Y56229D01*
X68589Y56253D01*
X68604Y56276D01*
X68615Y56291D01*
X68621Y56305D01*
X68627Y56311D01*
X68630Y56314D01*
X68665Y56354D01*
X68700Y56389D01*
X68740Y56421D01*
X68781Y56453D01*
X68863Y56506D01*
X68944Y56547D01*
X68982Y56564D01*
X69017Y56579D01*
X69049Y56590D01*
X69075Y56599D01*
X69098Y56608D01*
X69116Y56613D01*
X69128Y56616D01*
X69130D01*
X69197Y56349D01*
D02*
G37*
G36*
X7076Y36513D02*
X7123Y36507D01*
X7169Y36498D01*
X7210Y36487D01*
X7288Y36454D01*
X7323Y36440D01*
X7352Y36423D01*
X7382Y36402D01*
X7405Y36388D01*
X7428Y36370D01*
X7446Y36356D01*
X7460Y36344D01*
X7469Y36335D01*
X7475Y36329D01*
X7478Y36326D01*
X7510Y36292D01*
X7536Y36251D01*
X7562Y36213D01*
X7582Y36172D01*
X7600Y36129D01*
X7614Y36088D01*
X7635Y36012D01*
X7643Y35974D01*
X7649Y35942D01*
X7652Y35910D01*
X7655Y35884D01*
X7658Y35864D01*
Y35849D01*
Y35838D01*
Y35835D01*
X7655Y35779D01*
X7649Y35730D01*
X7643Y35680D01*
X7632Y35634D01*
X7617Y35593D01*
X7603Y35552D01*
X7588Y35517D01*
X7571Y35485D01*
X7556Y35456D01*
X7542Y35430D01*
X7527Y35410D01*
X7513Y35389D01*
X7501Y35375D01*
X7495Y35366D01*
X7489Y35360D01*
X7486Y35357D01*
X7454Y35325D01*
X7419Y35299D01*
X7384Y35273D01*
X7347Y35253D01*
X7312Y35235D01*
X7277Y35221D01*
X7210Y35200D01*
X7181Y35192D01*
X7152Y35186D01*
X7129Y35183D01*
X7105Y35180D01*
X7088Y35177D01*
X7064D01*
X7009Y35180D01*
X6957Y35189D01*
X6910Y35200D01*
X6867Y35215D01*
X6835Y35227D01*
X6808Y35238D01*
X6791Y35247D01*
X6785Y35250D01*
X6739Y35279D01*
X6698Y35311D01*
X6663Y35343D01*
X6634Y35372D01*
X6613Y35401D01*
X6596Y35421D01*
X6584Y35436D01*
X6581Y35442D01*
Y35418D01*
Y35404D01*
Y35395D01*
Y35392D01*
X6584Y35334D01*
X6587Y35279D01*
X6593Y35229D01*
X6599Y35183D01*
X6608Y35145D01*
X6613Y35116D01*
X6616Y35104D01*
Y35096D01*
X6619Y35093D01*
Y35090D01*
X6634Y35037D01*
X6648Y34991D01*
X6663Y34950D01*
X6677Y34915D01*
X6689Y34889D01*
X6701Y34868D01*
X6707Y34854D01*
X6709Y34851D01*
X6733Y34819D01*
X6756Y34793D01*
X6779Y34770D01*
X6803Y34749D01*
X6820Y34732D01*
X6837Y34720D01*
X6849Y34714D01*
X6852Y34711D01*
X6884Y34694D01*
X6919Y34682D01*
X6951Y34674D01*
X6983Y34668D01*
X7009Y34665D01*
X7029Y34662D01*
X7050D01*
X7096Y34665D01*
X7140Y34674D01*
X7178Y34685D01*
X7210Y34700D01*
X7233Y34711D01*
X7254Y34723D01*
X7265Y34732D01*
X7268Y34735D01*
X7297Y34767D01*
X7321Y34804D01*
X7341Y34845D01*
X7355Y34886D01*
X7367Y34921D01*
X7376Y34953D01*
X7379Y34965D01*
Y34970D01*
X7382Y34976D01*
Y34979D01*
X7620Y34959D01*
X7603Y34874D01*
X7580Y34802D01*
X7550Y34738D01*
X7521Y34685D01*
X7492Y34644D01*
X7478Y34627D01*
X7466Y34613D01*
X7457Y34604D01*
X7449Y34595D01*
X7446Y34592D01*
X7443Y34589D01*
X7414Y34566D01*
X7382Y34545D01*
X7318Y34514D01*
X7254Y34490D01*
X7192Y34476D01*
X7137Y34464D01*
X7114Y34461D01*
X7094D01*
X7079Y34458D01*
X7056D01*
X6974Y34464D01*
X6901Y34476D01*
X6835Y34496D01*
X6779Y34519D01*
X6756Y34528D01*
X6733Y34540D01*
X6715Y34551D01*
X6698Y34560D01*
X6686Y34566D01*
X6677Y34572D01*
X6672Y34578D01*
X6669D01*
X6611Y34627D01*
X6558Y34682D01*
X6517Y34740D01*
X6482Y34796D01*
X6453Y34845D01*
X6442Y34868D01*
X6433Y34886D01*
X6427Y34903D01*
X6421Y34915D01*
X6418Y34921D01*
Y34924D01*
X6404Y34967D01*
X6389Y35017D01*
X6369Y35116D01*
X6354Y35221D01*
X6346Y35320D01*
X6340Y35363D01*
X6337Y35407D01*
Y35445D01*
X6334Y35477D01*
Y35503D01*
Y35523D01*
Y35538D01*
Y35541D01*
Y35608D01*
X6337Y35672D01*
X6343Y35730D01*
X6349Y35785D01*
X6354Y35835D01*
X6360Y35881D01*
X6369Y35925D01*
X6378Y35963D01*
X6386Y35995D01*
X6392Y36024D01*
X6401Y36050D01*
X6407Y36070D01*
X6413Y36085D01*
X6418Y36097D01*
X6421Y36102D01*
Y36105D01*
X6456Y36175D01*
X6494Y36236D01*
X6538Y36289D01*
X6576Y36332D01*
X6613Y36364D01*
X6643Y36388D01*
X6654Y36396D01*
X6663Y36402D01*
X6666Y36408D01*
X6669D01*
X6730Y36443D01*
X6791Y36469D01*
X6852Y36489D01*
X6907Y36501D01*
X6957Y36510D01*
X6977Y36513D01*
X6992D01*
X7006Y36516D01*
X7027D01*
X7076Y36513D01*
D02*
G37*
G36*
X8813Y36536D02*
X8907Y36521D01*
X8988Y36504D01*
X9026Y36492D01*
X9061Y36481D01*
X9093Y36469D01*
X9122Y36457D01*
X9145Y36449D01*
X9168Y36440D01*
X9183Y36431D01*
X9195Y36425D01*
X9203Y36423D01*
X9206Y36420D01*
X9285Y36370D01*
X9352Y36312D01*
X9410Y36254D01*
X9459Y36195D01*
X9497Y36143D01*
X9512Y36120D01*
X9523Y36099D01*
X9535Y36085D01*
X9541Y36073D01*
X9544Y36064D01*
X9547Y36062D01*
X9587Y35971D01*
X9617Y35878D01*
X9637Y35785D01*
X9651Y35701D01*
X9657Y35663D01*
X9660Y35625D01*
X9663Y35596D01*
Y35567D01*
X9666Y35547D01*
Y35529D01*
Y35517D01*
Y35515D01*
X9660Y35410D01*
X9648Y35308D01*
X9634Y35218D01*
X9622Y35174D01*
X9614Y35136D01*
X9605Y35101D01*
X9593Y35069D01*
X9584Y35040D01*
X9579Y35017D01*
X9570Y34999D01*
X9567Y34985D01*
X9561Y34976D01*
Y34973D01*
X9518Y34886D01*
X9468Y34807D01*
X9416Y34740D01*
X9390Y34714D01*
X9366Y34688D01*
X9343Y34665D01*
X9320Y34644D01*
X9299Y34627D01*
X9282Y34615D01*
X9270Y34604D01*
X9259Y34595D01*
X9253Y34592D01*
X9250Y34589D01*
X9209Y34566D01*
X9168Y34545D01*
X9081Y34514D01*
X8994Y34490D01*
X8909Y34476D01*
X8869Y34470D01*
X8834Y34464D01*
X8802Y34461D01*
X8776D01*
X8752Y34458D01*
X8720D01*
X8662Y34461D01*
X8607Y34467D01*
X8554Y34473D01*
X8505Y34484D01*
X8458Y34499D01*
X8415Y34514D01*
X8374Y34528D01*
X8336Y34545D01*
X8304Y34560D01*
X8272Y34575D01*
X8249Y34589D01*
X8225Y34604D01*
X8211Y34615D01*
X8196Y34621D01*
X8191Y34627D01*
X8188Y34630D01*
X8147Y34665D01*
X8112Y34700D01*
X8080Y34740D01*
X8048Y34781D01*
X7996Y34863D01*
X7955Y34944D01*
X7937Y34982D01*
X7923Y35017D01*
X7911Y35049D01*
X7903Y35075D01*
X7894Y35098D01*
X7888Y35116D01*
X7885Y35127D01*
Y35130D01*
X8153Y35197D01*
X8164Y35151D01*
X8179Y35107D01*
X8194Y35066D01*
X8208Y35029D01*
X8225Y34994D01*
X8243Y34965D01*
X8263Y34936D01*
X8281Y34909D01*
X8295Y34886D01*
X8313Y34868D01*
X8327Y34851D01*
X8339Y34837D01*
X8351Y34828D01*
X8359Y34819D01*
X8362Y34816D01*
X8365Y34813D01*
X8394Y34790D01*
X8426Y34773D01*
X8490Y34740D01*
X8551Y34717D01*
X8613Y34703D01*
X8665Y34691D01*
X8685Y34688D01*
X8706D01*
X8723Y34685D01*
X8743D01*
X8810Y34688D01*
X8874Y34700D01*
X8933Y34714D01*
X8985Y34732D01*
X9026Y34749D01*
X9043Y34758D01*
X9058Y34764D01*
X9069Y34770D01*
X9078Y34775D01*
X9084Y34778D01*
X9087D01*
X9142Y34819D01*
X9189Y34863D01*
X9229Y34912D01*
X9262Y34959D01*
X9288Y34999D01*
X9305Y35034D01*
X9311Y35049D01*
X9317Y35058D01*
X9320Y35063D01*
Y35066D01*
X9343Y35142D01*
X9360Y35218D01*
X9375Y35293D01*
X9384Y35363D01*
X9387Y35395D01*
X9390Y35424D01*
Y35451D01*
X9392Y35471D01*
Y35488D01*
Y35503D01*
Y35512D01*
Y35515D01*
X9390Y35590D01*
X9384Y35660D01*
X9372Y35724D01*
X9360Y35782D01*
X9352Y35832D01*
X9346Y35852D01*
X9340Y35870D01*
X9337Y35884D01*
X9334Y35893D01*
X9331Y35899D01*
Y35902D01*
X9302Y35969D01*
X9270Y36030D01*
X9235Y36079D01*
X9198Y36123D01*
X9166Y36158D01*
X9139Y36181D01*
X9119Y36195D01*
X9116Y36201D01*
X9113D01*
X9052Y36239D01*
X8985Y36268D01*
X8921Y36289D01*
X8860Y36300D01*
X8805Y36309D01*
X8781Y36312D01*
X8761D01*
X8746Y36315D01*
X8723D01*
X8650Y36312D01*
X8584Y36300D01*
X8528Y36283D01*
X8479Y36265D01*
X8441Y36245D01*
X8412Y36230D01*
X8394Y36219D01*
X8388Y36213D01*
X8342Y36169D01*
X8298Y36120D01*
X8263Y36068D01*
X8234Y36015D01*
X8211Y35969D01*
X8202Y35945D01*
X8196Y35928D01*
X8191Y35913D01*
X8185Y35902D01*
X8182Y35896D01*
Y35893D01*
X7920Y35954D01*
X7937Y36006D01*
X7955Y36053D01*
X7978Y36097D01*
X7999Y36140D01*
X8022Y36178D01*
X8048Y36213D01*
X8071Y36248D01*
X8095Y36277D01*
X8118Y36300D01*
X8138Y36323D01*
X8159Y36344D01*
X8173Y36358D01*
X8188Y36373D01*
X8199Y36382D01*
X8205Y36385D01*
X8208Y36388D01*
X8249Y36414D01*
X8290Y36440D01*
X8330Y36460D01*
X8374Y36478D01*
X8461Y36504D01*
X8540Y36521D01*
X8578Y36530D01*
X8610Y36533D01*
X8642Y36536D01*
X8668Y36539D01*
X8688Y36542D01*
X8717D01*
X8813Y36536D01*
D02*
G37*
G36*
X48593Y60441D02*
X48640D01*
X48686Y60439D01*
X48727Y60433D01*
X48768Y60430D01*
X48803Y60427D01*
X48835Y60421D01*
X48864Y60418D01*
X48890Y60412D01*
X48910Y60409D01*
X48928Y60407D01*
X48942Y60404D01*
X48951Y60401D01*
X48957Y60398D01*
X48960D01*
X49024Y60380D01*
X49082Y60360D01*
X49132Y60337D01*
X49175Y60319D01*
X49213Y60299D01*
X49239Y60287D01*
X49254Y60276D01*
X49259Y60273D01*
X49303Y60241D01*
X49341Y60209D01*
X49373Y60174D01*
X49402Y60142D01*
X49422Y60113D01*
X49437Y60089D01*
X49446Y60075D01*
X49449Y60072D01*
Y60069D01*
X49472Y60022D01*
X49487Y59973D01*
X49498Y59926D01*
X49507Y59883D01*
X49513Y59845D01*
X49516Y59813D01*
Y59787D01*
X49510Y59708D01*
X49498Y59635D01*
X49478Y59574D01*
X49457Y59522D01*
X49434Y59478D01*
X49425Y59461D01*
X49414Y59446D01*
X49408Y59435D01*
X49402Y59426D01*
X49396Y59423D01*
Y59420D01*
X49350Y59368D01*
X49294Y59324D01*
X49239Y59286D01*
X49187Y59257D01*
X49137Y59234D01*
X49117Y59222D01*
X49097Y59216D01*
X49082Y59211D01*
X49070Y59205D01*
X49064Y59202D01*
X49062D01*
X49018Y59190D01*
X48974Y59179D01*
X48878Y59161D01*
X48782Y59146D01*
X48692Y59138D01*
X48648Y59135D01*
X48611Y59132D01*
X48576D01*
X48544Y59129D01*
X48520D01*
X48500D01*
X48488D01*
X48485D01*
X48384Y59132D01*
X48288Y59138D01*
X48200Y59146D01*
X48119Y59161D01*
X48043Y59176D01*
X47976Y59193D01*
X47915Y59211D01*
X47863Y59228D01*
X47816Y59246D01*
X47775Y59266D01*
X47741Y59280D01*
X47714Y59295D01*
X47691Y59310D01*
X47677Y59318D01*
X47668Y59324D01*
X47665Y59327D01*
X47630Y59359D01*
X47598Y59394D01*
X47569Y59432D01*
X47545Y59470D01*
X47525Y59507D01*
X47508Y59545D01*
X47496Y59583D01*
X47484Y59618D01*
X47476Y59653D01*
X47470Y59685D01*
X47464Y59714D01*
X47461Y59737D01*
X47458Y59758D01*
Y59787D01*
X47464Y59865D01*
X47476Y59938D01*
X47496Y59999D01*
X47516Y60052D01*
X47537Y60095D01*
X47548Y60110D01*
X47557Y60124D01*
X47563Y60136D01*
X47569Y60145D01*
X47575Y60148D01*
Y60150D01*
X47624Y60203D01*
X47677Y60246D01*
X47735Y60284D01*
X47787Y60313D01*
X47837Y60337D01*
X47857Y60348D01*
X47877Y60354D01*
X47892Y60360D01*
X47903Y60366D01*
X47909Y60369D01*
X47912D01*
X47956Y60383D01*
X48000Y60395D01*
X48093Y60412D01*
X48189Y60427D01*
X48282Y60436D01*
X48322Y60439D01*
X48360Y60441D01*
X48395D01*
X48427Y60444D01*
X48450D01*
X48471D01*
X48482D01*
X48485D01*
X48541D01*
X48593Y60441D01*
D02*
G37*
G36*
X49516Y58335D02*
X49466Y58306D01*
X49420Y58274D01*
X49373Y58236D01*
X49332Y58201D01*
X49297Y58166D01*
X49268Y58140D01*
X49259Y58128D01*
X49251Y58119D01*
X49248Y58116D01*
X49245Y58113D01*
X49196Y58052D01*
X49149Y57991D01*
X49108Y57933D01*
X49076Y57875D01*
X49047Y57825D01*
X49035Y57805D01*
X49027Y57788D01*
X49018Y57773D01*
X49015Y57761D01*
X49009Y57756D01*
Y57753D01*
X48771D01*
X48788Y57796D01*
X48809Y57840D01*
X48829Y57884D01*
X48849Y57924D01*
X48867Y57959D01*
X48881Y57988D01*
X48893Y58006D01*
X48896Y58009D01*
Y58012D01*
X48928Y58064D01*
X48960Y58111D01*
X48989Y58151D01*
X49015Y58183D01*
X49035Y58212D01*
X49053Y58230D01*
X49064Y58244D01*
X49068Y58247D01*
X47493D01*
Y58495D01*
X49516D01*
Y58335D01*
D02*
G37*
G36*
X48197Y57069D02*
X48151Y57057D01*
X48107Y57043D01*
X48066Y57028D01*
X48029Y57013D01*
X47994Y56996D01*
X47965Y56979D01*
X47936Y56958D01*
X47909Y56941D01*
X47886Y56926D01*
X47868Y56909D01*
X47851Y56894D01*
X47837Y56883D01*
X47828Y56871D01*
X47819Y56862D01*
X47816Y56859D01*
X47813Y56856D01*
X47790Y56827D01*
X47772Y56795D01*
X47741Y56731D01*
X47717Y56670D01*
X47703Y56609D01*
X47691Y56557D01*
X47688Y56536D01*
Y56516D01*
X47685Y56498D01*
Y56478D01*
X47688Y56411D01*
X47700Y56347D01*
X47714Y56289D01*
X47732Y56236D01*
X47749Y56196D01*
X47758Y56178D01*
X47764Y56164D01*
X47770Y56152D01*
X47775Y56143D01*
X47778Y56138D01*
Y56135D01*
X47819Y56079D01*
X47863Y56033D01*
X47912Y55992D01*
X47959Y55960D01*
X48000Y55934D01*
X48034Y55916D01*
X48049Y55911D01*
X48058Y55905D01*
X48063Y55902D01*
X48066D01*
X48142Y55879D01*
X48218Y55861D01*
X48293Y55847D01*
X48363Y55838D01*
X48395Y55835D01*
X48424Y55832D01*
X48450D01*
X48471Y55829D01*
X48488D01*
X48503D01*
X48512D01*
X48515D01*
X48590Y55832D01*
X48660Y55838D01*
X48724Y55849D01*
X48782Y55861D01*
X48832Y55870D01*
X48852Y55876D01*
X48870Y55882D01*
X48884Y55884D01*
X48893Y55887D01*
X48899Y55890D01*
X48902D01*
X48968Y55919D01*
X49030Y55951D01*
X49079Y55986D01*
X49123Y56024D01*
X49158Y56056D01*
X49181Y56082D01*
X49196Y56103D01*
X49201Y56106D01*
Y56108D01*
X49239Y56170D01*
X49268Y56236D01*
X49289Y56301D01*
X49300Y56362D01*
X49309Y56417D01*
X49312Y56440D01*
Y56461D01*
X49315Y56475D01*
Y56498D01*
X49312Y56571D01*
X49300Y56638D01*
X49283Y56693D01*
X49265Y56743D01*
X49245Y56781D01*
X49230Y56810D01*
X49219Y56827D01*
X49213Y56833D01*
X49169Y56880D01*
X49120Y56923D01*
X49068Y56958D01*
X49015Y56987D01*
X48968Y57011D01*
X48945Y57019D01*
X48928Y57025D01*
X48913Y57031D01*
X48902Y57037D01*
X48896Y57040D01*
X48893D01*
X48954Y57302D01*
X49006Y57284D01*
X49053Y57267D01*
X49097Y57243D01*
X49140Y57223D01*
X49178Y57200D01*
X49213Y57174D01*
X49248Y57150D01*
X49277Y57127D01*
X49300Y57104D01*
X49323Y57083D01*
X49344Y57063D01*
X49358Y57048D01*
X49373Y57034D01*
X49382Y57022D01*
X49385Y57016D01*
X49387Y57013D01*
X49414Y56973D01*
X49440Y56932D01*
X49460Y56891D01*
X49478Y56848D01*
X49504Y56760D01*
X49521Y56682D01*
X49530Y56644D01*
X49533Y56612D01*
X49536Y56580D01*
X49539Y56554D01*
X49542Y56533D01*
Y56504D01*
X49536Y56408D01*
X49521Y56315D01*
X49504Y56234D01*
X49492Y56196D01*
X49481Y56161D01*
X49469Y56129D01*
X49457Y56100D01*
X49449Y56077D01*
X49440Y56053D01*
X49431Y56039D01*
X49425Y56027D01*
X49422Y56018D01*
X49420Y56015D01*
X49370Y55937D01*
X49312Y55870D01*
X49254Y55812D01*
X49196Y55762D01*
X49143Y55724D01*
X49120Y55710D01*
X49099Y55698D01*
X49085Y55686D01*
X49073Y55681D01*
X49064Y55678D01*
X49062Y55675D01*
X48971Y55634D01*
X48878Y55605D01*
X48785Y55585D01*
X48701Y55570D01*
X48663Y55564D01*
X48625Y55561D01*
X48596Y55559D01*
X48567D01*
X48547Y55556D01*
X48529D01*
X48518D01*
X48515D01*
X48410Y55561D01*
X48308Y55573D01*
X48218Y55588D01*
X48174Y55599D01*
X48136Y55608D01*
X48101Y55617D01*
X48069Y55628D01*
X48040Y55637D01*
X48017Y55643D01*
X48000Y55652D01*
X47985Y55655D01*
X47976Y55660D01*
X47973D01*
X47886Y55704D01*
X47807Y55753D01*
X47741Y55806D01*
X47714Y55832D01*
X47688Y55855D01*
X47665Y55879D01*
X47644Y55902D01*
X47627Y55922D01*
X47615Y55940D01*
X47604Y55951D01*
X47595Y55963D01*
X47592Y55969D01*
X47589Y55972D01*
X47566Y56012D01*
X47545Y56053D01*
X47513Y56141D01*
X47490Y56228D01*
X47476Y56312D01*
X47470Y56353D01*
X47464Y56388D01*
X47461Y56420D01*
Y56446D01*
X47458Y56469D01*
Y56501D01*
X47461Y56560D01*
X47467Y56615D01*
X47473Y56667D01*
X47484Y56717D01*
X47499Y56763D01*
X47513Y56807D01*
X47528Y56848D01*
X47545Y56885D01*
X47560Y56918D01*
X47575Y56950D01*
X47589Y56973D01*
X47604Y56996D01*
X47615Y57011D01*
X47621Y57025D01*
X47627Y57031D01*
X47630Y57034D01*
X47665Y57075D01*
X47700Y57109D01*
X47741Y57142D01*
X47781Y57174D01*
X47863Y57226D01*
X47944Y57267D01*
X47982Y57284D01*
X48017Y57299D01*
X48049Y57310D01*
X48075Y57319D01*
X48098Y57328D01*
X48116Y57334D01*
X48127Y57336D01*
X48130D01*
X48197Y57069D01*
D02*
G37*
G36*
X7502Y45466D02*
X7534Y45420D01*
X7572Y45373D01*
X7607Y45332D01*
X7642Y45297D01*
X7668Y45268D01*
X7680Y45259D01*
X7689Y45251D01*
X7692Y45248D01*
X7694Y45245D01*
X7756Y45195D01*
X7817Y45149D01*
X7875Y45108D01*
X7933Y45076D01*
X7982Y45047D01*
X8003Y45035D01*
X8020Y45027D01*
X8035Y45018D01*
X8047Y45015D01*
X8052Y45009D01*
X8055D01*
Y44771D01*
X8012Y44788D01*
X7968Y44809D01*
X7924Y44829D01*
X7884Y44849D01*
X7849Y44867D01*
X7820Y44881D01*
X7802Y44893D01*
X7799Y44896D01*
X7796D01*
X7744Y44928D01*
X7697Y44960D01*
X7657Y44989D01*
X7625Y45015D01*
X7596Y45035D01*
X7578Y45053D01*
X7564Y45064D01*
X7561Y45068D01*
Y43493D01*
X7313D01*
Y45516D01*
X7473D01*
X7502Y45466D01*
D02*
G37*
G36*
X5937D02*
X5969Y45420D01*
X6007Y45373D01*
X6042Y45332D01*
X6076Y45297D01*
X6103Y45268D01*
X6114Y45259D01*
X6123Y45251D01*
X6126Y45248D01*
X6129Y45245D01*
X6190Y45195D01*
X6251Y45149D01*
X6309Y45108D01*
X6368Y45076D01*
X6417Y45047D01*
X6437Y45035D01*
X6455Y45027D01*
X6469Y45018D01*
X6481Y45015D01*
X6487Y45009D01*
X6490D01*
Y44771D01*
X6446Y44788D01*
X6402Y44809D01*
X6359Y44829D01*
X6318Y44849D01*
X6283Y44867D01*
X6254Y44881D01*
X6236Y44893D01*
X6234Y44896D01*
X6231D01*
X6178Y44928D01*
X6132Y44960D01*
X6091Y44989D01*
X6059Y45015D01*
X6030Y45035D01*
X6013Y45053D01*
X5998Y45064D01*
X5995Y45068D01*
Y43493D01*
X5748D01*
Y45516D01*
X5908D01*
X5937Y45466D01*
D02*
G37*
G36*
X9400Y45536D02*
X9493Y45521D01*
X9574Y45504D01*
X9612Y45492D01*
X9647Y45481D01*
X9679Y45469D01*
X9708Y45457D01*
X9731Y45449D01*
X9755Y45440D01*
X9769Y45431D01*
X9781Y45425D01*
X9790Y45423D01*
X9793Y45420D01*
X9871Y45370D01*
X9938Y45312D01*
X9996Y45254D01*
X10046Y45195D01*
X10084Y45143D01*
X10098Y45120D01*
X10110Y45099D01*
X10121Y45085D01*
X10127Y45073D01*
X10130Y45064D01*
X10133Y45062D01*
X10174Y44971D01*
X10203Y44878D01*
X10223Y44785D01*
X10238Y44701D01*
X10244Y44663D01*
X10246Y44625D01*
X10249Y44596D01*
Y44567D01*
X10252Y44547D01*
Y44529D01*
Y44517D01*
Y44515D01*
X10246Y44410D01*
X10235Y44308D01*
X10220Y44218D01*
X10209Y44174D01*
X10200Y44136D01*
X10191Y44101D01*
X10180Y44069D01*
X10171Y44040D01*
X10165Y44017D01*
X10156Y43999D01*
X10153Y43985D01*
X10148Y43976D01*
Y43973D01*
X10104Y43886D01*
X10054Y43807D01*
X10002Y43740D01*
X9976Y43714D01*
X9953Y43688D01*
X9929Y43665D01*
X9906Y43644D01*
X9886Y43627D01*
X9868Y43615D01*
X9857Y43604D01*
X9845Y43595D01*
X9839Y43592D01*
X9836Y43589D01*
X9796Y43566D01*
X9755Y43545D01*
X9667Y43514D01*
X9580Y43490D01*
X9496Y43476D01*
X9455Y43470D01*
X9420Y43464D01*
X9388Y43461D01*
X9362D01*
X9339Y43458D01*
X9307D01*
X9248Y43461D01*
X9193Y43467D01*
X9141Y43473D01*
X9091Y43484D01*
X9045Y43499D01*
X9001Y43514D01*
X8960Y43528D01*
X8923Y43545D01*
X8890Y43560D01*
X8858Y43575D01*
X8835Y43589D01*
X8812Y43604D01*
X8797Y43615D01*
X8783Y43621D01*
X8777Y43627D01*
X8774Y43630D01*
X8733Y43665D01*
X8698Y43700D01*
X8666Y43740D01*
X8634Y43781D01*
X8582Y43863D01*
X8541Y43944D01*
X8524Y43982D01*
X8509Y44017D01*
X8498Y44049D01*
X8489Y44075D01*
X8480Y44098D01*
X8474Y44116D01*
X8471Y44128D01*
Y44130D01*
X8739Y44197D01*
X8751Y44151D01*
X8765Y44107D01*
X8780Y44066D01*
X8794Y44029D01*
X8812Y43994D01*
X8829Y43965D01*
X8850Y43935D01*
X8867Y43909D01*
X8882Y43886D01*
X8899Y43868D01*
X8914Y43851D01*
X8925Y43837D01*
X8937Y43828D01*
X8946Y43819D01*
X8949Y43816D01*
X8952Y43813D01*
X8981Y43790D01*
X9013Y43773D01*
X9077Y43740D01*
X9138Y43717D01*
X9199Y43703D01*
X9251Y43691D01*
X9272Y43688D01*
X9292D01*
X9309Y43685D01*
X9330D01*
X9397Y43688D01*
X9461Y43700D01*
X9519Y43714D01*
X9571Y43732D01*
X9612Y43749D01*
X9630Y43758D01*
X9644Y43764D01*
X9656Y43770D01*
X9664Y43775D01*
X9670Y43778D01*
X9673D01*
X9729Y43819D01*
X9775Y43863D01*
X9816Y43912D01*
X9848Y43959D01*
X9874Y43999D01*
X9892Y44034D01*
X9897Y44049D01*
X9903Y44058D01*
X9906Y44063D01*
Y44066D01*
X9929Y44142D01*
X9947Y44218D01*
X9961Y44293D01*
X9970Y44363D01*
X9973Y44395D01*
X9976Y44424D01*
Y44451D01*
X9979Y44471D01*
Y44488D01*
Y44503D01*
Y44512D01*
Y44515D01*
X9976Y44590D01*
X9970Y44660D01*
X9958Y44724D01*
X9947Y44782D01*
X9938Y44832D01*
X9932Y44852D01*
X9926Y44870D01*
X9923Y44884D01*
X9921Y44893D01*
X9918Y44899D01*
Y44902D01*
X9889Y44969D01*
X9857Y45030D01*
X9822Y45079D01*
X9784Y45123D01*
X9752Y45158D01*
X9726Y45181D01*
X9705Y45195D01*
X9702Y45201D01*
X9699D01*
X9638Y45239D01*
X9571Y45268D01*
X9507Y45289D01*
X9446Y45300D01*
X9391Y45309D01*
X9368Y45312D01*
X9347D01*
X9333Y45315D01*
X9309D01*
X9237Y45312D01*
X9170Y45300D01*
X9115Y45283D01*
X9065Y45265D01*
X9027Y45245D01*
X8998Y45230D01*
X8981Y45219D01*
X8975Y45213D01*
X8928Y45169D01*
X8885Y45120D01*
X8850Y45068D01*
X8821Y45015D01*
X8797Y44969D01*
X8789Y44945D01*
X8783Y44928D01*
X8777Y44913D01*
X8771Y44902D01*
X8768Y44896D01*
Y44893D01*
X8506Y44954D01*
X8524Y45006D01*
X8541Y45053D01*
X8564Y45097D01*
X8585Y45140D01*
X8608Y45178D01*
X8634Y45213D01*
X8658Y45248D01*
X8681Y45277D01*
X8704Y45300D01*
X8725Y45324D01*
X8745Y45344D01*
X8760Y45358D01*
X8774Y45373D01*
X8786Y45382D01*
X8792Y45385D01*
X8794Y45388D01*
X8835Y45414D01*
X8876Y45440D01*
X8917Y45460D01*
X8960Y45478D01*
X9048Y45504D01*
X9126Y45521D01*
X9164Y45530D01*
X9196Y45533D01*
X9228Y45536D01*
X9254Y45539D01*
X9275Y45542D01*
X9304D01*
X9400Y45536D01*
D02*
G37*
G36*
X97259Y107962D02*
X97291Y107915D01*
X97329Y107869D01*
X97364Y107828D01*
X97399Y107793D01*
X97425Y107764D01*
X97436Y107755D01*
X97445Y107746D01*
X97448Y107744D01*
X97451Y107741D01*
X97512Y107691D01*
X97573Y107645D01*
X97631Y107604D01*
X97690Y107572D01*
X97739Y107543D01*
X97759Y107531D01*
X97777Y107522D01*
X97791Y107514D01*
X97803Y107511D01*
X97809Y107505D01*
X97812D01*
Y107266D01*
X97768Y107284D01*
X97724Y107304D01*
X97681Y107325D01*
X97640Y107345D01*
X97605Y107362D01*
X97576Y107377D01*
X97559Y107388D01*
X97556Y107391D01*
X97553D01*
X97500Y107423D01*
X97454Y107455D01*
X97413Y107484D01*
X97381Y107511D01*
X97352Y107531D01*
X97334Y107548D01*
X97320Y107560D01*
X97317Y107563D01*
Y105989D01*
X97070D01*
Y108011D01*
X97230D01*
X97259Y107962D01*
D02*
G37*
G36*
X99930Y105989D02*
X99206D01*
X99139Y105992D01*
X99078Y105995D01*
X99022Y106000D01*
X98976Y106006D01*
X98935Y106012D01*
X98906Y106015D01*
X98897Y106018D01*
X98888Y106021D01*
X98883D01*
X98830Y106035D01*
X98784Y106053D01*
X98743Y106067D01*
X98708Y106085D01*
X98679Y106099D01*
X98659Y106111D01*
X98647Y106120D01*
X98641Y106123D01*
X98603Y106149D01*
X98571Y106181D01*
X98539Y106210D01*
X98513Y106239D01*
X98490Y106265D01*
X98472Y106286D01*
X98461Y106300D01*
X98458Y106306D01*
X98429Y106352D01*
X98400Y106402D01*
X98376Y106449D01*
X98359Y106495D01*
X98341Y106536D01*
X98330Y106568D01*
X98327Y106579D01*
X98324Y106588D01*
X98321Y106594D01*
Y106597D01*
X98304Y106667D01*
X98289Y106737D01*
X98280Y106804D01*
X98272Y106868D01*
X98269Y106923D01*
Y106946D01*
X98266Y106966D01*
Y106981D01*
Y106996D01*
Y107001D01*
Y107004D01*
X98269Y107103D01*
X98277Y107194D01*
X98292Y107275D01*
X98298Y107313D01*
X98307Y107345D01*
X98315Y107377D01*
X98321Y107403D01*
X98327Y107426D01*
X98336Y107447D01*
X98339Y107464D01*
X98344Y107476D01*
X98347Y107482D01*
Y107484D01*
X98379Y107560D01*
X98417Y107627D01*
X98458Y107685D01*
X98496Y107735D01*
X98531Y107775D01*
X98560Y107805D01*
X98571Y107813D01*
X98580Y107822D01*
X98583Y107825D01*
X98586Y107828D01*
X98632Y107866D01*
X98682Y107895D01*
X98731Y107921D01*
X98778Y107941D01*
X98819Y107956D01*
X98851Y107965D01*
X98862Y107970D01*
X98871D01*
X98877Y107973D01*
X98880D01*
X98929Y107982D01*
X98987Y107991D01*
X99046Y107997D01*
X99104Y108000D01*
X99156Y108002D01*
X99930D01*
Y105989D01*
D02*
G37*
G36*
X42649Y75023D02*
X42727Y75008D01*
X42794Y74985D01*
X42853Y74962D01*
X42879Y74947D01*
X42899Y74936D01*
X42919Y74924D01*
X42934Y74912D01*
X42946Y74904D01*
X42954Y74898D01*
X42960Y74895D01*
X42963Y74892D01*
X43018Y74837D01*
X43062Y74775D01*
X43097Y74712D01*
X43126Y74647D01*
X43143Y74592D01*
X43152Y74569D01*
X43158Y74549D01*
X43161Y74531D01*
X43164Y74519D01*
X43167Y74511D01*
Y74508D01*
X42919Y74464D01*
X42908Y74528D01*
X42890Y74584D01*
X42870Y74630D01*
X42850Y74668D01*
X42829Y74697D01*
X42812Y74717D01*
X42800Y74732D01*
X42797Y74735D01*
X42759Y74764D01*
X42719Y74787D01*
X42681Y74802D01*
X42643Y74813D01*
X42608Y74819D01*
X42582Y74825D01*
X42559D01*
X42506Y74822D01*
X42460Y74810D01*
X42419Y74796D01*
X42384Y74781D01*
X42358Y74764D01*
X42338Y74749D01*
X42323Y74738D01*
X42320Y74735D01*
X42288Y74700D01*
X42265Y74662D01*
X42250Y74624D01*
X42239Y74589D01*
X42233Y74557D01*
X42227Y74534D01*
Y74516D01*
Y74514D01*
Y74511D01*
Y74479D01*
X42233Y74450D01*
X42247Y74400D01*
X42268Y74357D01*
X42291Y74319D01*
X42314Y74292D01*
X42334Y74272D01*
X42349Y74260D01*
X42352Y74257D01*
X42355D01*
X42404Y74231D01*
X42451Y74211D01*
X42500Y74196D01*
X42544Y74188D01*
X42582Y74182D01*
X42614Y74176D01*
X42652D01*
X42663Y74179D01*
X42678D01*
X42707Y73961D01*
X42669Y73969D01*
X42634Y73975D01*
X42605Y73981D01*
X42579Y73984D01*
X42559Y73987D01*
X42532D01*
X42471Y73981D01*
X42416Y73969D01*
X42367Y73952D01*
X42326Y73932D01*
X42294Y73911D01*
X42270Y73894D01*
X42256Y73882D01*
X42250Y73876D01*
X42212Y73833D01*
X42183Y73786D01*
X42163Y73740D01*
X42151Y73693D01*
X42143Y73655D01*
X42140Y73623D01*
X42137Y73611D01*
Y73603D01*
Y73597D01*
Y73594D01*
X42143Y73530D01*
X42157Y73472D01*
X42175Y73422D01*
X42198Y73379D01*
X42221Y73344D01*
X42239Y73318D01*
X42253Y73300D01*
X42259Y73294D01*
X42305Y73254D01*
X42355Y73225D01*
X42404Y73204D01*
X42451Y73190D01*
X42492Y73181D01*
X42524Y73178D01*
X42535Y73175D01*
X42553D01*
X42605Y73178D01*
X42655Y73190D01*
X42698Y73204D01*
X42733Y73222D01*
X42762Y73236D01*
X42786Y73251D01*
X42797Y73262D01*
X42803Y73265D01*
X42838Y73306D01*
X42867Y73352D01*
X42893Y73402D01*
X42914Y73454D01*
X42928Y73498D01*
X42934Y73518D01*
X42937Y73536D01*
X42940Y73550D01*
X42943Y73562D01*
X42946Y73568D01*
Y73571D01*
X43193Y73539D01*
X43187Y73492D01*
X43178Y73449D01*
X43152Y73367D01*
X43120Y73297D01*
X43103Y73268D01*
X43085Y73239D01*
X43068Y73213D01*
X43050Y73193D01*
X43036Y73172D01*
X43021Y73158D01*
X43013Y73146D01*
X43004Y73137D01*
X42998Y73131D01*
X42995Y73128D01*
X42960Y73102D01*
X42925Y73076D01*
X42890Y73056D01*
X42853Y73038D01*
X42780Y73009D01*
X42710Y72992D01*
X42678Y72986D01*
X42649Y72980D01*
X42623Y72977D01*
X42599Y72974D01*
X42582Y72971D01*
X42556D01*
X42500Y72974D01*
X42451Y72980D01*
X42401Y72989D01*
X42355Y73000D01*
X42311Y73015D01*
X42273Y73030D01*
X42236Y73047D01*
X42204Y73064D01*
X42172Y73079D01*
X42145Y73097D01*
X42122Y73111D01*
X42105Y73125D01*
X42090Y73137D01*
X42079Y73146D01*
X42073Y73152D01*
X42070Y73155D01*
X42035Y73190D01*
X42006Y73227D01*
X41980Y73265D01*
X41956Y73303D01*
X41939Y73338D01*
X41921Y73376D01*
X41898Y73446D01*
X41892Y73478D01*
X41886Y73507D01*
X41881Y73533D01*
X41878Y73556D01*
X41875Y73574D01*
Y73588D01*
Y73597D01*
Y73600D01*
X41878Y73670D01*
X41889Y73734D01*
X41907Y73789D01*
X41924Y73836D01*
X41942Y73873D01*
X41959Y73902D01*
X41971Y73920D01*
X41974Y73926D01*
X42014Y73969D01*
X42058Y74007D01*
X42105Y74036D01*
X42151Y74060D01*
X42192Y74077D01*
X42224Y74089D01*
X42236Y74092D01*
X42244Y74095D01*
X42250Y74098D01*
X42253D01*
X42204Y74124D01*
X42163Y74150D01*
X42128Y74179D01*
X42099Y74205D01*
X42075Y74228D01*
X42058Y74249D01*
X42049Y74260D01*
X42046Y74266D01*
X42023Y74307D01*
X42006Y74348D01*
X41991Y74388D01*
X41982Y74426D01*
X41977Y74458D01*
X41974Y74482D01*
Y74499D01*
Y74505D01*
X41977Y74554D01*
X41985Y74604D01*
X41997Y74647D01*
X42011Y74685D01*
X42026Y74717D01*
X42038Y74743D01*
X42046Y74758D01*
X42049Y74764D01*
X42079Y74808D01*
X42113Y74845D01*
X42148Y74877D01*
X42183Y74906D01*
X42212Y74927D01*
X42239Y74944D01*
X42256Y74953D01*
X42259Y74956D01*
X42262D01*
X42314Y74979D01*
X42367Y74997D01*
X42419Y75011D01*
X42465Y75020D01*
X42503Y75026D01*
X42535Y75029D01*
X42608D01*
X42649Y75023D01*
D02*
G37*
G36*
X45125Y73006D02*
X44401D01*
X44334Y73009D01*
X44273Y73012D01*
X44217Y73018D01*
X44171Y73024D01*
X44130Y73030D01*
X44101Y73032D01*
X44092Y73035D01*
X44083Y73038D01*
X44078D01*
X44025Y73053D01*
X43979Y73070D01*
X43938Y73085D01*
X43903Y73102D01*
X43874Y73117D01*
X43854Y73128D01*
X43842Y73137D01*
X43836Y73140D01*
X43798Y73166D01*
X43766Y73198D01*
X43734Y73227D01*
X43708Y73256D01*
X43685Y73283D01*
X43667Y73303D01*
X43656Y73318D01*
X43653Y73323D01*
X43624Y73370D01*
X43595Y73419D01*
X43571Y73466D01*
X43554Y73513D01*
X43536Y73553D01*
X43525Y73585D01*
X43522Y73597D01*
X43519Y73606D01*
X43516Y73611D01*
Y73614D01*
X43499Y73684D01*
X43484Y73754D01*
X43475Y73821D01*
X43466Y73885D01*
X43464Y73940D01*
Y73964D01*
X43461Y73984D01*
Y73999D01*
Y74013D01*
Y74019D01*
Y74022D01*
X43464Y74121D01*
X43472Y74211D01*
X43487Y74292D01*
X43493Y74330D01*
X43501Y74362D01*
X43510Y74394D01*
X43516Y74420D01*
X43522Y74444D01*
X43530Y74464D01*
X43534Y74482D01*
X43539Y74493D01*
X43542Y74499D01*
Y74502D01*
X43574Y74578D01*
X43612Y74645D01*
X43653Y74703D01*
X43691Y74752D01*
X43725Y74793D01*
X43755Y74822D01*
X43766Y74831D01*
X43775Y74840D01*
X43778Y74842D01*
X43781Y74845D01*
X43827Y74883D01*
X43877Y74912D01*
X43926Y74938D01*
X43973Y74959D01*
X44014Y74973D01*
X44046Y74982D01*
X44057Y74988D01*
X44066D01*
X44072Y74991D01*
X44075D01*
X44124Y75000D01*
X44182Y75008D01*
X44241Y75014D01*
X44299Y75017D01*
X44351Y75020D01*
X45125D01*
Y73006D01*
D02*
G37*
G36*
X25721Y72993D02*
X24996D01*
X24929Y72996D01*
X24868Y72999D01*
X24813Y73005D01*
X24766Y73011D01*
X24726Y73016D01*
X24697Y73019D01*
X24688Y73022D01*
X24679Y73025D01*
X24673D01*
X24621Y73040D01*
X24574Y73057D01*
X24534Y73072D01*
X24499Y73089D01*
X24470Y73104D01*
X24449Y73115D01*
X24438Y73124D01*
X24432Y73127D01*
X24394Y73153D01*
X24362Y73185D01*
X24330Y73214D01*
X24304Y73243D01*
X24280Y73270D01*
X24263Y73290D01*
X24251Y73304D01*
X24248Y73310D01*
X24219Y73357D01*
X24190Y73406D01*
X24167Y73453D01*
X24149Y73500D01*
X24132Y73540D01*
X24120Y73572D01*
X24117Y73584D01*
X24114Y73593D01*
X24112Y73598D01*
Y73601D01*
X24094Y73671D01*
X24080Y73741D01*
X24071Y73808D01*
X24062Y73872D01*
X24059Y73927D01*
Y73950D01*
X24056Y73971D01*
Y73985D01*
Y74000D01*
Y74006D01*
Y74009D01*
X24059Y74108D01*
X24068Y74198D01*
X24082Y74279D01*
X24088Y74317D01*
X24097Y74349D01*
X24106Y74381D01*
X24112Y74407D01*
X24117Y74431D01*
X24126Y74451D01*
X24129Y74468D01*
X24135Y74480D01*
X24138Y74486D01*
Y74489D01*
X24170Y74564D01*
X24208Y74632D01*
X24248Y74690D01*
X24286Y74739D01*
X24321Y74780D01*
X24350Y74809D01*
X24362Y74818D01*
X24371Y74826D01*
X24374Y74829D01*
X24376Y74832D01*
X24423Y74870D01*
X24473Y74899D01*
X24522Y74925D01*
X24568Y74946D01*
X24609Y74960D01*
X24641Y74969D01*
X24653Y74975D01*
X24662D01*
X24667Y74978D01*
X24670D01*
X24720Y74986D01*
X24778Y74995D01*
X24836Y75001D01*
X24894Y75004D01*
X24947Y75007D01*
X25721D01*
Y72993D01*
D02*
G37*
G36*
X23876Y73703D02*
Y73476D01*
X23000D01*
Y72993D01*
X22753D01*
Y73476D01*
X22479D01*
Y73703D01*
X22753D01*
Y75007D01*
X22953D01*
X23876Y73703D01*
D02*
G37*
G36*
X73311Y31897D02*
X73261Y31868D01*
X73215Y31836D01*
X73168Y31798D01*
X73127Y31763D01*
X73092Y31728D01*
X73063Y31702D01*
X73054Y31690D01*
X73046Y31681D01*
X73043Y31679D01*
X73040Y31676D01*
X72991Y31615D01*
X72944Y31553D01*
X72903Y31495D01*
X72871Y31437D01*
X72842Y31387D01*
X72830Y31367D01*
X72822Y31350D01*
X72813Y31335D01*
X72810Y31324D01*
X72804Y31318D01*
Y31315D01*
X72566D01*
X72583Y31358D01*
X72603Y31402D01*
X72624Y31446D01*
X72644Y31486D01*
X72662Y31521D01*
X72676Y31550D01*
X72688Y31568D01*
X72691Y31571D01*
Y31574D01*
X72723Y31626D01*
X72755Y31673D01*
X72784Y31714D01*
X72810Y31745D01*
X72830Y31775D01*
X72848Y31792D01*
X72860Y31807D01*
X72862Y31809D01*
X71288D01*
Y32057D01*
X73311D01*
Y31897D01*
D02*
G37*
G36*
X71341Y30849D02*
X71367Y30788D01*
X71399Y30730D01*
X71431Y30678D01*
X71457Y30634D01*
X71469Y30613D01*
X71480Y30599D01*
X71489Y30584D01*
X71495Y30576D01*
X71500Y30570D01*
Y30567D01*
X71559Y30619D01*
X71617Y30666D01*
X71675Y30707D01*
X71730Y30739D01*
X71777Y30762D01*
X71797Y30771D01*
X71815Y30779D01*
X71826Y30785D01*
X71838Y30791D01*
X71844Y30794D01*
X71847D01*
X71922Y30820D01*
X72001Y30838D01*
X72077Y30852D01*
X72147Y30861D01*
X72176Y30864D01*
X72205Y30867D01*
X72231D01*
X72254Y30869D01*
X72272D01*
X72283D01*
X72292D01*
X72295D01*
X72403Y30864D01*
X72505Y30852D01*
X72551Y30843D01*
X72595Y30832D01*
X72635Y30820D01*
X72673Y30811D01*
X72708Y30800D01*
X72740Y30788D01*
X72766Y30779D01*
X72790Y30768D01*
X72807Y30762D01*
X72819Y30756D01*
X72828Y30750D01*
X72830D01*
X72915Y30704D01*
X72991Y30648D01*
X73054Y30590D01*
X73107Y30538D01*
X73148Y30488D01*
X73165Y30465D01*
X73180Y30448D01*
X73188Y30430D01*
X73197Y30419D01*
X73200Y30413D01*
X73203Y30410D01*
X73226Y30366D01*
X73247Y30323D01*
X73282Y30238D01*
X73305Y30151D01*
X73319Y30075D01*
X73325Y30040D01*
X73331Y30005D01*
X73334Y29979D01*
Y29953D01*
X73337Y29932D01*
Y29854D01*
X73331Y29805D01*
X73316Y29711D01*
X73296Y29627D01*
X73284Y29589D01*
X73273Y29551D01*
X73261Y29519D01*
X73250Y29490D01*
X73238Y29467D01*
X73229Y29447D01*
X73220Y29429D01*
X73215Y29417D01*
X73212Y29409D01*
X73209Y29406D01*
X73156Y29327D01*
X73095Y29260D01*
X73034Y29199D01*
X72976Y29153D01*
X72921Y29112D01*
X72897Y29097D01*
X72877Y29086D01*
X72860Y29074D01*
X72848Y29068D01*
X72839Y29065D01*
X72836Y29062D01*
X72743Y29022D01*
X72647Y28993D01*
X72557Y28972D01*
X72473Y28958D01*
X72435Y28952D01*
X72400Y28949D01*
X72368Y28946D01*
X72342D01*
X72321Y28943D01*
X72307D01*
X72295D01*
X72292D01*
X72184Y28949D01*
X72083Y28961D01*
X72033Y28972D01*
X71989Y28981D01*
X71949Y28993D01*
X71911Y29004D01*
X71876Y29013D01*
X71844Y29025D01*
X71818Y29036D01*
X71794Y29045D01*
X71777Y29051D01*
X71765Y29057D01*
X71757Y29062D01*
X71754D01*
X71669Y29112D01*
X71597Y29167D01*
X71533Y29223D01*
X71480Y29278D01*
X71439Y29327D01*
X71422Y29348D01*
X71407Y29368D01*
X71399Y29383D01*
X71390Y29394D01*
X71387Y29400D01*
X71384Y29403D01*
X71361Y29447D01*
X71341Y29487D01*
X71308Y29575D01*
X71285Y29659D01*
X71271Y29735D01*
X71265Y29770D01*
X71259Y29802D01*
X71256Y29831D01*
Y29854D01*
X71253Y29874D01*
Y29901D01*
X71256Y29950D01*
X71259Y30000D01*
X71274Y30093D01*
X71294Y30177D01*
X71306Y30215D01*
X71317Y30250D01*
X71329Y30282D01*
X71338Y30311D01*
X71349Y30334D01*
X71358Y30357D01*
X71367Y30372D01*
X71372Y30386D01*
X71378Y30392D01*
Y30395D01*
X71320Y30477D01*
X71268Y30555D01*
X71227Y30628D01*
X71192Y30692D01*
X71178Y30721D01*
X71166Y30747D01*
X71154Y30771D01*
X71145Y30791D01*
X71140Y30808D01*
X71134Y30820D01*
X71131Y30826D01*
Y30829D01*
X71314Y30907D01*
X71341Y30849D01*
D02*
G37*
G36*
X82260Y9462D02*
X82292Y9415D01*
X82330Y9369D01*
X82365Y9328D01*
X82400Y9293D01*
X82426Y9264D01*
X82438Y9255D01*
X82447Y9246D01*
X82450Y9244D01*
X82452Y9241D01*
X82513Y9191D01*
X82575Y9145D01*
X82633Y9104D01*
X82691Y9072D01*
X82740Y9043D01*
X82761Y9031D01*
X82778Y9022D01*
X82793Y9014D01*
X82805Y9011D01*
X82810Y9005D01*
X82813D01*
Y8766D01*
X82770Y8784D01*
X82726Y8804D01*
X82682Y8824D01*
X82642Y8845D01*
X82607Y8862D01*
X82578Y8877D01*
X82560Y8889D01*
X82557Y8891D01*
X82554D01*
X82502Y8923D01*
X82455Y8955D01*
X82415Y8985D01*
X82383Y9011D01*
X82354Y9031D01*
X82336Y9048D01*
X82322Y9060D01*
X82319Y9063D01*
Y7489D01*
X82071D01*
Y9511D01*
X82231D01*
X82260Y9462D01*
D02*
G37*
G36*
X84929Y7489D02*
X84661D01*
Y8382D01*
X84318D01*
X84286Y8379D01*
X84262D01*
X84242Y8376D01*
X84228Y8373D01*
X84216D01*
X84210Y8371D01*
X84207D01*
X84161Y8356D01*
X84140Y8347D01*
X84123Y8338D01*
X84105Y8330D01*
X84094Y8324D01*
X84088Y8321D01*
X84085Y8318D01*
X84062Y8301D01*
X84038Y8280D01*
X83995Y8237D01*
X83974Y8216D01*
X83960Y8199D01*
X83951Y8187D01*
X83948Y8184D01*
X83919Y8144D01*
X83887Y8100D01*
X83855Y8053D01*
X83823Y8010D01*
X83797Y7969D01*
X83776Y7937D01*
X83768Y7925D01*
X83762Y7916D01*
X83756Y7911D01*
Y7908D01*
X83491Y7489D01*
X83160D01*
X83506Y8036D01*
X83547Y8094D01*
X83584Y8146D01*
X83622Y8190D01*
X83654Y8231D01*
X83683Y8260D01*
X83707Y8283D01*
X83721Y8298D01*
X83727Y8304D01*
X83750Y8321D01*
X83776Y8341D01*
X83829Y8373D01*
X83852Y8385D01*
X83870Y8397D01*
X83881Y8403D01*
X83887Y8405D01*
X83835Y8414D01*
X83785Y8423D01*
X83741Y8437D01*
X83698Y8449D01*
X83660Y8464D01*
X83625Y8481D01*
X83593Y8496D01*
X83564Y8510D01*
X83541Y8528D01*
X83517Y8542D01*
X83500Y8554D01*
X83486Y8565D01*
X83474Y8574D01*
X83465Y8583D01*
X83462Y8586D01*
X83459Y8589D01*
X83436Y8618D01*
X83413Y8647D01*
X83378Y8708D01*
X83355Y8769D01*
X83337Y8827D01*
X83325Y8877D01*
X83323Y8897D01*
Y8918D01*
X83320Y8932D01*
Y8944D01*
Y8950D01*
Y8952D01*
X83323Y9014D01*
X83331Y9069D01*
X83346Y9121D01*
X83360Y9165D01*
X83378Y9203D01*
X83389Y9232D01*
X83401Y9249D01*
X83404Y9252D01*
Y9255D01*
X83439Y9302D01*
X83474Y9342D01*
X83512Y9377D01*
X83547Y9404D01*
X83579Y9424D01*
X83605Y9436D01*
X83622Y9444D01*
X83625Y9447D01*
X83628D01*
X83654Y9456D01*
X83686Y9465D01*
X83750Y9479D01*
X83820Y9488D01*
X83884Y9497D01*
X83945Y9500D01*
X83971D01*
X83995Y9503D01*
X84929D01*
Y7489D01*
D02*
G37*
G36*
X33125Y37993D02*
X32857D01*
Y38886D01*
X32514D01*
X32482Y38884D01*
X32459D01*
X32438Y38881D01*
X32424Y38878D01*
X32412D01*
X32406Y38875D01*
X32404D01*
X32357Y38860D01*
X32337Y38852D01*
X32319Y38843D01*
X32302Y38834D01*
X32290Y38828D01*
X32284Y38825D01*
X32281Y38822D01*
X32258Y38805D01*
X32235Y38785D01*
X32191Y38741D01*
X32171Y38721D01*
X32156Y38703D01*
X32147Y38691D01*
X32145Y38689D01*
X32116Y38648D01*
X32083Y38604D01*
X32051Y38558D01*
X32019Y38514D01*
X31993Y38473D01*
X31973Y38441D01*
X31964Y38430D01*
X31958Y38421D01*
X31953Y38415D01*
Y38412D01*
X31688Y37993D01*
X31356D01*
X31702Y38540D01*
X31743Y38598D01*
X31781Y38651D01*
X31819Y38695D01*
X31851Y38735D01*
X31880Y38764D01*
X31903Y38788D01*
X31918Y38802D01*
X31923Y38808D01*
X31947Y38825D01*
X31973Y38846D01*
X32025Y38878D01*
X32048Y38889D01*
X32066Y38901D01*
X32078Y38907D01*
X32083Y38910D01*
X32031Y38919D01*
X31982Y38927D01*
X31938Y38942D01*
X31894Y38953D01*
X31857Y38968D01*
X31822Y38985D01*
X31790Y39000D01*
X31760Y39015D01*
X31737Y39032D01*
X31714Y39047D01*
X31696Y39058D01*
X31682Y39070D01*
X31670Y39079D01*
X31661Y39087D01*
X31659Y39090D01*
X31656Y39093D01*
X31632Y39122D01*
X31609Y39151D01*
X31574Y39212D01*
X31551Y39274D01*
X31534Y39332D01*
X31522Y39381D01*
X31519Y39402D01*
Y39422D01*
X31516Y39437D01*
Y39448D01*
Y39454D01*
Y39457D01*
X31519Y39518D01*
X31528Y39573D01*
X31542Y39626D01*
X31557Y39669D01*
X31574Y39707D01*
X31586Y39736D01*
X31598Y39754D01*
X31600Y39757D01*
Y39759D01*
X31635Y39806D01*
X31670Y39847D01*
X31708Y39882D01*
X31743Y39908D01*
X31775Y39928D01*
X31801Y39940D01*
X31819Y39949D01*
X31822Y39952D01*
X31824D01*
X31851Y39960D01*
X31883Y39969D01*
X31947Y39984D01*
X32017Y39992D01*
X32081Y40001D01*
X32142Y40004D01*
X32168D01*
X32191Y40007D01*
X33125D01*
Y37993D01*
D02*
G37*
G36*
X31283Y38703D02*
Y38476D01*
X30407D01*
Y37993D01*
X30160D01*
Y38476D01*
X29886D01*
Y38703D01*
X30160D01*
Y40007D01*
X30361D01*
X31283Y38703D01*
D02*
G37*
G36*
X23543Y51026D02*
X23598Y51020D01*
X23650Y51008D01*
X23700Y50994D01*
X23743Y50973D01*
X23787Y50956D01*
X23825Y50933D01*
X23860Y50912D01*
X23889Y50892D01*
X23918Y50869D01*
X23941Y50851D01*
X23959Y50834D01*
X23973Y50816D01*
X23985Y50805D01*
X23991Y50799D01*
X23994Y50796D01*
X24032Y50744D01*
X24063Y50682D01*
X24093Y50618D01*
X24119Y50551D01*
X24139Y50482D01*
X24157Y50412D01*
X24171Y50339D01*
X24183Y50272D01*
X24192Y50205D01*
X24197Y50144D01*
X24203Y50089D01*
X24206Y50042D01*
Y50002D01*
X24209Y49972D01*
Y49961D01*
Y49952D01*
Y49949D01*
Y49946D01*
X24206Y49853D01*
X24200Y49766D01*
X24192Y49684D01*
X24177Y49609D01*
X24162Y49542D01*
X24148Y49481D01*
X24130Y49425D01*
X24110Y49376D01*
X24093Y49335D01*
X24075Y49297D01*
X24061Y49268D01*
X24043Y49242D01*
X24032Y49222D01*
X24023Y49210D01*
X24017Y49201D01*
X24014Y49198D01*
X23976Y49158D01*
X23935Y49123D01*
X23895Y49093D01*
X23854Y49067D01*
X23810Y49044D01*
X23770Y49027D01*
X23729Y49012D01*
X23688Y49000D01*
X23653Y48992D01*
X23618Y48983D01*
X23589Y48977D01*
X23563Y48974D01*
X23540D01*
X23525Y48971D01*
X23511D01*
X23444Y48974D01*
X23383Y48986D01*
X23327Y48998D01*
X23278Y49015D01*
X23240Y49029D01*
X23211Y49044D01*
X23199Y49047D01*
X23190Y49053D01*
X23188Y49056D01*
X23185D01*
X23135Y49091D01*
X23089Y49131D01*
X23051Y49172D01*
X23019Y49213D01*
X22993Y49251D01*
X22975Y49280D01*
X22969Y49291D01*
X22964Y49300D01*
X22961Y49303D01*
Y49306D01*
X22931Y49367D01*
X22911Y49431D01*
X22897Y49489D01*
X22888Y49545D01*
X22879Y49591D01*
Y49609D01*
X22876Y49626D01*
Y49641D01*
Y49649D01*
Y49655D01*
Y49658D01*
X22879Y49711D01*
X22885Y49760D01*
X22894Y49809D01*
X22902Y49853D01*
X22917Y49894D01*
X22931Y49935D01*
X22946Y49970D01*
X22964Y50002D01*
X22981Y50031D01*
X22996Y50057D01*
X23010Y50077D01*
X23025Y50098D01*
X23033Y50112D01*
X23042Y50121D01*
X23048Y50127D01*
X23051Y50129D01*
X23083Y50161D01*
X23118Y50191D01*
X23156Y50214D01*
X23190Y50234D01*
X23225Y50255D01*
X23260Y50269D01*
X23327Y50290D01*
X23356Y50298D01*
X23385Y50304D01*
X23409Y50307D01*
X23432Y50310D01*
X23449Y50313D01*
X23473D01*
X23525Y50310D01*
X23575Y50301D01*
X23621Y50292D01*
X23662Y50281D01*
X23697Y50266D01*
X23723Y50257D01*
X23741Y50249D01*
X23743Y50246D01*
X23746D01*
X23793Y50217D01*
X23834Y50185D01*
X23871Y50153D01*
X23900Y50118D01*
X23927Y50089D01*
X23947Y50065D01*
X23959Y50048D01*
X23962Y50045D01*
Y50098D01*
X23959Y50150D01*
X23956Y50196D01*
X23950Y50243D01*
X23947Y50284D01*
X23941Y50322D01*
X23935Y50357D01*
X23927Y50388D01*
X23921Y50418D01*
X23915Y50441D01*
X23909Y50461D01*
X23906Y50479D01*
X23900Y50490D01*
X23898Y50499D01*
X23895Y50505D01*
Y50508D01*
X23866Y50566D01*
X23836Y50618D01*
X23805Y50659D01*
X23775Y50694D01*
X23749Y50723D01*
X23729Y50744D01*
X23714Y50755D01*
X23708Y50758D01*
X23674Y50781D01*
X23639Y50796D01*
X23604Y50807D01*
X23569Y50816D01*
X23543Y50822D01*
X23519Y50825D01*
X23499D01*
X23447Y50819D01*
X23397Y50807D01*
X23356Y50790D01*
X23318Y50773D01*
X23289Y50752D01*
X23269Y50735D01*
X23257Y50723D01*
X23252Y50717D01*
X23231Y50691D01*
X23211Y50659D01*
X23193Y50624D01*
X23182Y50589D01*
X23170Y50557D01*
X23161Y50531D01*
X23158Y50514D01*
X23156Y50511D01*
Y50508D01*
X22908Y50528D01*
X22926Y50610D01*
X22952Y50682D01*
X22981Y50746D01*
X23013Y50799D01*
X23045Y50840D01*
X23057Y50857D01*
X23071Y50872D01*
X23080Y50880D01*
X23089Y50889D01*
X23092Y50892D01*
X23095Y50895D01*
X23124Y50918D01*
X23156Y50938D01*
X23220Y50973D01*
X23284Y50997D01*
X23345Y51011D01*
X23400Y51023D01*
X23423Y51026D01*
X23444D01*
X23461Y51029D01*
X23484D01*
X23543Y51026D01*
D02*
G37*
G36*
X26124Y49006D02*
X25856D01*
Y49900D01*
X25513D01*
X25481Y49897D01*
X25457D01*
X25437Y49894D01*
X25422Y49891D01*
X25411D01*
X25405Y49888D01*
X25402D01*
X25355Y49873D01*
X25335Y49865D01*
X25318Y49856D01*
X25300Y49847D01*
X25289Y49841D01*
X25283Y49839D01*
X25280Y49836D01*
X25257Y49818D01*
X25233Y49798D01*
X25190Y49754D01*
X25169Y49734D01*
X25155Y49716D01*
X25146Y49705D01*
X25143Y49702D01*
X25114Y49661D01*
X25082Y49617D01*
X25050Y49571D01*
X25018Y49527D01*
X24992Y49486D01*
X24971Y49454D01*
X24963Y49443D01*
X24957Y49434D01*
X24951Y49428D01*
Y49425D01*
X24686Y49006D01*
X24354D01*
X24701Y49553D01*
X24742Y49611D01*
X24779Y49664D01*
X24817Y49707D01*
X24849Y49748D01*
X24878Y49777D01*
X24902Y49801D01*
X24916Y49815D01*
X24922Y49821D01*
X24945Y49839D01*
X24971Y49859D01*
X25024Y49891D01*
X25047Y49902D01*
X25065Y49914D01*
X25076Y49920D01*
X25082Y49923D01*
X25030Y49932D01*
X24980Y49940D01*
X24937Y49955D01*
X24893Y49966D01*
X24855Y49981D01*
X24820Y49999D01*
X24788Y50013D01*
X24759Y50028D01*
X24736Y50045D01*
X24712Y50060D01*
X24695Y50071D01*
X24680Y50083D01*
X24669Y50092D01*
X24660Y50100D01*
X24657Y50103D01*
X24654Y50106D01*
X24631Y50135D01*
X24608Y50164D01*
X24573Y50226D01*
X24550Y50287D01*
X24532Y50345D01*
X24520Y50394D01*
X24518Y50415D01*
Y50435D01*
X24514Y50450D01*
Y50461D01*
Y50467D01*
Y50470D01*
X24518Y50531D01*
X24526Y50586D01*
X24541Y50639D01*
X24555Y50682D01*
X24573Y50720D01*
X24584Y50749D01*
X24596Y50767D01*
X24599Y50770D01*
Y50773D01*
X24634Y50819D01*
X24669Y50860D01*
X24707Y50895D01*
X24742Y50921D01*
X24773Y50941D01*
X24800Y50953D01*
X24817Y50962D01*
X24820Y50965D01*
X24823D01*
X24849Y50973D01*
X24881Y50982D01*
X24945Y50997D01*
X25015Y51005D01*
X25079Y51014D01*
X25140Y51017D01*
X25166D01*
X25190Y51020D01*
X26124D01*
Y49006D01*
D02*
G37*
G36*
X89724Y40493D02*
X89456D01*
Y41387D01*
X89113D01*
X89081Y41384D01*
X89057D01*
X89037Y41381D01*
X89022Y41378D01*
X89011D01*
X89005Y41375D01*
X89002D01*
X88955Y41360D01*
X88935Y41352D01*
X88918Y41343D01*
X88900Y41334D01*
X88889Y41328D01*
X88883Y41325D01*
X88880Y41322D01*
X88857Y41305D01*
X88833Y41285D01*
X88790Y41241D01*
X88769Y41221D01*
X88755Y41203D01*
X88746Y41192D01*
X88743Y41189D01*
X88714Y41148D01*
X88682Y41104D01*
X88650Y41058D01*
X88618Y41014D01*
X88592Y40973D01*
X88571Y40941D01*
X88563Y40930D01*
X88557Y40921D01*
X88551Y40915D01*
Y40912D01*
X88286Y40493D01*
X87954D01*
X88301Y41040D01*
X88341Y41098D01*
X88379Y41151D01*
X88417Y41194D01*
X88449Y41235D01*
X88478Y41264D01*
X88502Y41288D01*
X88516Y41302D01*
X88522Y41308D01*
X88545Y41325D01*
X88571Y41346D01*
X88624Y41378D01*
X88647Y41389D01*
X88665Y41401D01*
X88676Y41407D01*
X88682Y41410D01*
X88630Y41418D01*
X88580Y41427D01*
X88537Y41442D01*
X88493Y41453D01*
X88455Y41468D01*
X88420Y41485D01*
X88388Y41500D01*
X88359Y41515D01*
X88336Y41532D01*
X88312Y41547D01*
X88295Y41558D01*
X88280Y41570D01*
X88269Y41579D01*
X88260Y41587D01*
X88257Y41590D01*
X88254Y41593D01*
X88231Y41622D01*
X88208Y41651D01*
X88173Y41712D01*
X88149Y41774D01*
X88132Y41832D01*
X88120Y41881D01*
X88117Y41902D01*
Y41922D01*
X88115Y41936D01*
Y41948D01*
Y41954D01*
Y41957D01*
X88117Y42018D01*
X88126Y42073D01*
X88141Y42126D01*
X88155Y42169D01*
X88173Y42207D01*
X88184Y42236D01*
X88196Y42254D01*
X88199Y42257D01*
Y42259D01*
X88234Y42306D01*
X88269Y42347D01*
X88307Y42382D01*
X88341Y42408D01*
X88374Y42428D01*
X88400Y42440D01*
X88417Y42449D01*
X88420Y42452D01*
X88423D01*
X88449Y42460D01*
X88481Y42469D01*
X88545Y42484D01*
X88615Y42492D01*
X88679Y42501D01*
X88740Y42504D01*
X88766D01*
X88790Y42507D01*
X89724D01*
Y40493D01*
D02*
G37*
G36*
X87780Y42242D02*
X86793D01*
X86863Y42158D01*
X86930Y42068D01*
X86988Y41980D01*
X87044Y41896D01*
X87067Y41858D01*
X87087Y41823D01*
X87108Y41791D01*
X87122Y41765D01*
X87134Y41741D01*
X87143Y41727D01*
X87148Y41715D01*
X87151Y41712D01*
X87209Y41596D01*
X87262Y41480D01*
X87306Y41369D01*
X87323Y41320D01*
X87340Y41270D01*
X87358Y41227D01*
X87370Y41186D01*
X87381Y41151D01*
X87390Y41122D01*
X87399Y41096D01*
X87405Y41078D01*
X87407Y41066D01*
Y41063D01*
X87436Y40944D01*
X87448Y40886D01*
X87457Y40834D01*
X87466Y40784D01*
X87474Y40735D01*
X87480Y40694D01*
X87486Y40653D01*
X87489Y40618D01*
X87492Y40586D01*
X87495Y40557D01*
Y40534D01*
X87498Y40516D01*
Y40505D01*
Y40496D01*
Y40493D01*
X87244D01*
X87236Y40604D01*
X87221Y40706D01*
X87207Y40799D01*
X87198Y40842D01*
X87189Y40883D01*
X87183Y40918D01*
X87175Y40950D01*
X87169Y40979D01*
X87163Y41002D01*
X87157Y41020D01*
X87154Y41034D01*
X87151Y41043D01*
Y41046D01*
X87108Y41180D01*
X87061Y41305D01*
X87038Y41366D01*
X87015Y41424D01*
X86988Y41477D01*
X86965Y41529D01*
X86945Y41576D01*
X86924Y41616D01*
X86907Y41651D01*
X86892Y41683D01*
X86878Y41710D01*
X86869Y41727D01*
X86863Y41739D01*
X86860Y41741D01*
X86825Y41803D01*
X86791Y41864D01*
X86756Y41919D01*
X86721Y41971D01*
X86689Y42018D01*
X86657Y42064D01*
X86625Y42105D01*
X86598Y42140D01*
X86572Y42175D01*
X86549Y42204D01*
X86526Y42228D01*
X86508Y42248D01*
X86497Y42265D01*
X86485Y42277D01*
X86479Y42283D01*
X86476Y42286D01*
Y42481D01*
X87780D01*
Y42242D01*
D02*
G37*
G36*
X33131Y29506D02*
X32863D01*
Y30400D01*
X32520D01*
X32488Y30397D01*
X32465D01*
X32444Y30394D01*
X32430Y30391D01*
X32418D01*
X32412Y30388D01*
X32409D01*
X32363Y30373D01*
X32342Y30365D01*
X32325Y30356D01*
X32307Y30347D01*
X32296Y30341D01*
X32290Y30338D01*
X32287Y30336D01*
X32264Y30318D01*
X32241Y30298D01*
X32197Y30254D01*
X32177Y30234D01*
X32162Y30216D01*
X32153Y30205D01*
X32150Y30202D01*
X32121Y30161D01*
X32089Y30117D01*
X32057Y30071D01*
X32025Y30027D01*
X31999Y29986D01*
X31979Y29954D01*
X31970Y29943D01*
X31964Y29934D01*
X31958Y29928D01*
Y29925D01*
X31694Y29506D01*
X31362D01*
X31708Y30053D01*
X31749Y30112D01*
X31787Y30164D01*
X31824Y30207D01*
X31857Y30248D01*
X31886Y30277D01*
X31909Y30301D01*
X31923Y30315D01*
X31929Y30321D01*
X31953Y30338D01*
X31979Y30359D01*
X32031Y30391D01*
X32054Y30402D01*
X32072Y30414D01*
X32083Y30420D01*
X32089Y30423D01*
X32037Y30432D01*
X31987Y30440D01*
X31944Y30455D01*
X31900Y30466D01*
X31862Y30481D01*
X31827Y30499D01*
X31795Y30513D01*
X31766Y30528D01*
X31743Y30545D01*
X31720Y30560D01*
X31702Y30571D01*
X31688Y30583D01*
X31676Y30592D01*
X31667Y30600D01*
X31664Y30603D01*
X31661Y30606D01*
X31638Y30635D01*
X31615Y30664D01*
X31580Y30725D01*
X31557Y30787D01*
X31539Y30845D01*
X31528Y30894D01*
X31525Y30915D01*
Y30935D01*
X31522Y30950D01*
Y30961D01*
Y30967D01*
Y30970D01*
X31525Y31031D01*
X31534Y31086D01*
X31548Y31139D01*
X31563Y31182D01*
X31580Y31220D01*
X31592Y31249D01*
X31603Y31267D01*
X31606Y31270D01*
Y31273D01*
X31641Y31319D01*
X31676Y31360D01*
X31714Y31395D01*
X31749Y31421D01*
X31781Y31441D01*
X31807Y31453D01*
X31824Y31462D01*
X31827Y31465D01*
X31830D01*
X31857Y31473D01*
X31888Y31482D01*
X31953Y31497D01*
X32022Y31505D01*
X32086Y31514D01*
X32147Y31517D01*
X32174D01*
X32197Y31520D01*
X33131D01*
Y29506D01*
D02*
G37*
G36*
X30596Y31526D02*
X30643Y31523D01*
X30724Y31505D01*
X30762Y31494D01*
X30797Y31482D01*
X30829Y31468D01*
X30858Y31453D01*
X30882Y31438D01*
X30905Y31424D01*
X30925Y31412D01*
X30940Y31401D01*
X30951Y31392D01*
X30960Y31383D01*
X30966Y31380D01*
X30969Y31377D01*
X30995Y31348D01*
X31021Y31319D01*
X31042Y31287D01*
X31059Y31255D01*
X31088Y31194D01*
X31106Y31136D01*
X31117Y31086D01*
X31120Y31063D01*
X31123Y31046D01*
X31126Y31028D01*
Y31016D01*
Y31011D01*
Y31008D01*
X31123Y30955D01*
X31114Y30906D01*
X31103Y30862D01*
X31088Y30825D01*
X31077Y30795D01*
X31065Y30772D01*
X31056Y30760D01*
X31053Y30755D01*
X31021Y30720D01*
X30986Y30688D01*
X30949Y30659D01*
X30911Y30635D01*
X30876Y30618D01*
X30850Y30606D01*
X30838Y30600D01*
X30829Y30597D01*
X30826Y30595D01*
X30823D01*
X30890Y30574D01*
X30946Y30548D01*
X30995Y30516D01*
X31036Y30487D01*
X31068Y30458D01*
X31091Y30435D01*
X31103Y30420D01*
X31109Y30417D01*
Y30414D01*
X31141Y30362D01*
X31167Y30307D01*
X31184Y30254D01*
X31196Y30202D01*
X31202Y30155D01*
X31205Y30135D01*
Y30117D01*
X31207Y30106D01*
Y30094D01*
Y30088D01*
Y30085D01*
X31205Y30039D01*
X31199Y29992D01*
X31190Y29949D01*
X31178Y29905D01*
X31149Y29832D01*
X31135Y29797D01*
X31117Y29768D01*
X31100Y29739D01*
X31085Y29716D01*
X31068Y29695D01*
X31056Y29678D01*
X31045Y29663D01*
X31036Y29655D01*
X31030Y29649D01*
X31027Y29646D01*
X30992Y29614D01*
X30954Y29588D01*
X30914Y29564D01*
X30873Y29544D01*
X30835Y29530D01*
X30794Y29515D01*
X30716Y29495D01*
X30681Y29486D01*
X30649Y29480D01*
X30620Y29477D01*
X30593Y29474D01*
X30573Y29471D01*
X30544D01*
X30489Y29474D01*
X30439Y29480D01*
X30390Y29489D01*
X30343Y29498D01*
X30303Y29512D01*
X30262Y29527D01*
X30224Y29541D01*
X30192Y29559D01*
X30163Y29576D01*
X30137Y29591D01*
X30116Y29605D01*
X30096Y29620D01*
X30081Y29629D01*
X30073Y29637D01*
X30067Y29643D01*
X30064Y29646D01*
X30032Y29681D01*
X30003Y29716D01*
X29980Y29751D01*
X29959Y29789D01*
X29939Y29823D01*
X29924Y29861D01*
X29904Y29928D01*
X29895Y29960D01*
X29889Y29989D01*
X29886Y30016D01*
X29884Y30036D01*
X29881Y30053D01*
Y30068D01*
Y30077D01*
Y30079D01*
X29884Y30146D01*
X29895Y30207D01*
X29913Y30263D01*
X29930Y30309D01*
X29948Y30347D01*
X29965Y30376D01*
X29977Y30394D01*
X29980Y30397D01*
Y30400D01*
X30020Y30446D01*
X30064Y30487D01*
X30110Y30519D01*
X30154Y30548D01*
X30195Y30568D01*
X30230Y30583D01*
X30241Y30589D01*
X30250Y30592D01*
X30256Y30595D01*
X30259D01*
X30207Y30618D01*
X30163Y30644D01*
X30125Y30670D01*
X30093Y30696D01*
X30070Y30720D01*
X30052Y30737D01*
X30041Y30749D01*
X30038Y30755D01*
X30011Y30795D01*
X29994Y30836D01*
X29980Y30877D01*
X29971Y30918D01*
X29965Y30950D01*
X29962Y30976D01*
Y30993D01*
Y30996D01*
Y30999D01*
X29965Y31040D01*
X29968Y31078D01*
X29988Y31150D01*
X30014Y31214D01*
X30044Y31270D01*
X30073Y31313D01*
X30087Y31331D01*
X30099Y31348D01*
X30110Y31360D01*
X30119Y31369D01*
X30122Y31372D01*
X30125Y31374D01*
X30157Y31401D01*
X30189Y31427D01*
X30224Y31447D01*
X30259Y31465D01*
X30329Y31491D01*
X30399Y31508D01*
X30428Y31517D01*
X30457Y31520D01*
X30483Y31523D01*
X30506Y31526D01*
X30524Y31529D01*
X30550D01*
X30596Y31526D01*
D02*
G37*
G36*
X68117Y105526D02*
X68163Y105520D01*
X68210Y105511D01*
X68251Y105500D01*
X68329Y105468D01*
X68364Y105453D01*
X68393Y105436D01*
X68422Y105415D01*
X68446Y105401D01*
X68469Y105383D01*
X68486Y105369D01*
X68501Y105357D01*
X68510Y105348D01*
X68515Y105342D01*
X68518Y105340D01*
X68550Y105305D01*
X68577Y105264D01*
X68603Y105226D01*
X68623Y105185D01*
X68641Y105142D01*
X68655Y105101D01*
X68676Y105025D01*
X68684Y104987D01*
X68690Y104955D01*
X68693Y104923D01*
X68696Y104897D01*
X68699Y104877D01*
Y104862D01*
Y104851D01*
Y104848D01*
X68696Y104792D01*
X68690Y104743D01*
X68684Y104693D01*
X68673Y104647D01*
X68658Y104606D01*
X68643Y104566D01*
X68629Y104531D01*
X68612Y104499D01*
X68597Y104470D01*
X68582Y104443D01*
X68568Y104423D01*
X68553Y104402D01*
X68542Y104388D01*
X68536Y104379D01*
X68530Y104373D01*
X68527Y104370D01*
X68495Y104339D01*
X68460Y104312D01*
X68425Y104286D01*
X68387Y104266D01*
X68353Y104248D01*
X68318Y104234D01*
X68251Y104213D01*
X68222Y104205D01*
X68192Y104199D01*
X68169Y104196D01*
X68146Y104193D01*
X68128Y104190D01*
X68105D01*
X68050Y104193D01*
X67997Y104202D01*
X67951Y104213D01*
X67907Y104228D01*
X67875Y104240D01*
X67849Y104251D01*
X67832Y104260D01*
X67826Y104263D01*
X67779Y104292D01*
X67738Y104324D01*
X67704Y104356D01*
X67674Y104385D01*
X67654Y104414D01*
X67637Y104435D01*
X67625Y104449D01*
X67622Y104455D01*
Y104432D01*
Y104417D01*
Y104408D01*
Y104405D01*
X67625Y104347D01*
X67628Y104292D01*
X67634Y104243D01*
X67640Y104196D01*
X67648Y104158D01*
X67654Y104129D01*
X67657Y104117D01*
Y104109D01*
X67660Y104106D01*
Y104103D01*
X67674Y104050D01*
X67689Y104004D01*
X67704Y103963D01*
X67718Y103928D01*
X67730Y103902D01*
X67741Y103882D01*
X67747Y103867D01*
X67750Y103864D01*
X67773Y103832D01*
X67797Y103806D01*
X67820Y103783D01*
X67843Y103762D01*
X67861Y103745D01*
X67878Y103733D01*
X67890Y103727D01*
X67893Y103725D01*
X67925Y103707D01*
X67960Y103695D01*
X67992Y103687D01*
X68024Y103681D01*
X68050Y103678D01*
X68070Y103675D01*
X68091D01*
X68137Y103678D01*
X68181Y103687D01*
X68219Y103698D01*
X68251Y103713D01*
X68274Y103725D01*
X68294Y103736D01*
X68306Y103745D01*
X68309Y103748D01*
X68338Y103780D01*
X68361Y103818D01*
X68382Y103858D01*
X68396Y103899D01*
X68408Y103934D01*
X68417Y103966D01*
X68419Y103978D01*
Y103983D01*
X68422Y103989D01*
Y103992D01*
X68661Y103972D01*
X68643Y103887D01*
X68620Y103815D01*
X68591Y103751D01*
X68562Y103698D01*
X68533Y103658D01*
X68518Y103640D01*
X68507Y103626D01*
X68498Y103617D01*
X68489Y103608D01*
X68486Y103605D01*
X68484Y103602D01*
X68454Y103579D01*
X68422Y103559D01*
X68358Y103527D01*
X68294Y103503D01*
X68233Y103489D01*
X68178Y103477D01*
X68155Y103474D01*
X68134D01*
X68120Y103471D01*
X68096D01*
X68015Y103477D01*
X67942Y103489D01*
X67875Y103509D01*
X67820Y103532D01*
X67797Y103541D01*
X67773Y103553D01*
X67756Y103564D01*
X67738Y103573D01*
X67727Y103579D01*
X67718Y103585D01*
X67712Y103591D01*
X67709D01*
X67651Y103640D01*
X67599Y103695D01*
X67558Y103754D01*
X67523Y103809D01*
X67494Y103858D01*
X67482Y103882D01*
X67474Y103899D01*
X67468Y103917D01*
X67462Y103928D01*
X67459Y103934D01*
Y103937D01*
X67445Y103981D01*
X67430Y104030D01*
X67410Y104129D01*
X67395Y104234D01*
X67386Y104333D01*
X67381Y104376D01*
X67378Y104420D01*
Y104458D01*
X67375Y104490D01*
Y104516D01*
Y104536D01*
Y104551D01*
Y104554D01*
Y104621D01*
X67378Y104685D01*
X67383Y104743D01*
X67389Y104798D01*
X67395Y104848D01*
X67401Y104894D01*
X67410Y104938D01*
X67418Y104976D01*
X67427Y105008D01*
X67433Y105037D01*
X67442Y105063D01*
X67448Y105084D01*
X67453Y105098D01*
X67459Y105110D01*
X67462Y105115D01*
Y105118D01*
X67497Y105188D01*
X67535Y105249D01*
X67579Y105302D01*
X67616Y105345D01*
X67654Y105377D01*
X67683Y105401D01*
X67695Y105409D01*
X67704Y105415D01*
X67707Y105421D01*
X67709D01*
X67770Y105456D01*
X67832Y105482D01*
X67893Y105502D01*
X67948Y105514D01*
X67997Y105523D01*
X68018Y105526D01*
X68032D01*
X68047Y105529D01*
X68067D01*
X68117Y105526D01*
D02*
G37*
G36*
X70625Y103506D02*
X70358D01*
Y104400D01*
X70014D01*
X69982Y104397D01*
X69959D01*
X69938Y104394D01*
X69924Y104391D01*
X69912D01*
X69907Y104388D01*
X69903D01*
X69857Y104373D01*
X69837Y104365D01*
X69819Y104356D01*
X69802Y104347D01*
X69790Y104341D01*
X69784Y104339D01*
X69781Y104336D01*
X69758Y104318D01*
X69735Y104298D01*
X69691Y104254D01*
X69671Y104234D01*
X69656Y104216D01*
X69648Y104205D01*
X69645Y104202D01*
X69616Y104161D01*
X69583Y104117D01*
X69551Y104071D01*
X69519Y104027D01*
X69493Y103986D01*
X69473Y103954D01*
X69464Y103943D01*
X69458Y103934D01*
X69453Y103928D01*
Y103925D01*
X69188Y103506D01*
X68856D01*
X69202Y104053D01*
X69243Y104112D01*
X69281Y104164D01*
X69319Y104208D01*
X69351Y104248D01*
X69380Y104277D01*
X69403Y104301D01*
X69418Y104315D01*
X69423Y104321D01*
X69447Y104339D01*
X69473Y104359D01*
X69525Y104391D01*
X69548Y104402D01*
X69566Y104414D01*
X69578Y104420D01*
X69583Y104423D01*
X69531Y104432D01*
X69482Y104440D01*
X69438Y104455D01*
X69394Y104466D01*
X69357Y104481D01*
X69322Y104499D01*
X69289Y104513D01*
X69260Y104528D01*
X69237Y104545D01*
X69214Y104560D01*
X69196Y104571D01*
X69182Y104583D01*
X69170Y104592D01*
X69161Y104600D01*
X69159Y104603D01*
X69156Y104606D01*
X69132Y104635D01*
X69109Y104664D01*
X69074Y104726D01*
X69051Y104787D01*
X69033Y104845D01*
X69022Y104894D01*
X69019Y104915D01*
Y104935D01*
X69016Y104950D01*
Y104961D01*
Y104967D01*
Y104970D01*
X69019Y105031D01*
X69028Y105086D01*
X69042Y105139D01*
X69057Y105182D01*
X69074Y105220D01*
X69086Y105249D01*
X69098Y105267D01*
X69100Y105270D01*
Y105273D01*
X69135Y105319D01*
X69170Y105360D01*
X69208Y105395D01*
X69243Y105421D01*
X69275Y105441D01*
X69301Y105453D01*
X69319Y105462D01*
X69322Y105465D01*
X69324D01*
X69351Y105473D01*
X69383Y105482D01*
X69447Y105497D01*
X69516Y105505D01*
X69581Y105514D01*
X69642Y105517D01*
X69668D01*
X69691Y105520D01*
X70625D01*
Y103506D01*
D02*
G37*
G36*
X49935Y10779D02*
X49967Y10733D01*
X50005Y10686D01*
X50040Y10645D01*
X50075Y10610D01*
X50101Y10581D01*
X50113Y10573D01*
X50121Y10564D01*
X50124Y10561D01*
X50127Y10558D01*
X50188Y10509D01*
X50249Y10462D01*
X50308Y10421D01*
X50366Y10389D01*
X50415Y10360D01*
X50436Y10349D01*
X50453Y10340D01*
X50468Y10331D01*
X50479Y10328D01*
X50485Y10322D01*
X50488D01*
Y10084D01*
X50444Y10101D01*
X50401Y10122D01*
X50357Y10142D01*
X50316Y10162D01*
X50282Y10180D01*
X50252Y10194D01*
X50235Y10206D01*
X50232Y10209D01*
X50229D01*
X50177Y10241D01*
X50130Y10273D01*
X50089Y10302D01*
X50057Y10328D01*
X50028Y10349D01*
X50011Y10366D01*
X49996Y10378D01*
X49993Y10381D01*
Y8806D01*
X49746D01*
Y10829D01*
X49906D01*
X49935Y10779D01*
D02*
G37*
G36*
X52604Y8806D02*
X52336D01*
Y9700D01*
X51993D01*
X51961Y9697D01*
X51937D01*
X51917Y9694D01*
X51902Y9691D01*
X51891D01*
X51885Y9688D01*
X51882D01*
X51835Y9674D01*
X51815Y9665D01*
X51798Y9656D01*
X51780Y9647D01*
X51768Y9641D01*
X51763Y9639D01*
X51760Y9636D01*
X51736Y9618D01*
X51713Y9598D01*
X51670Y9554D01*
X51649Y9534D01*
X51635Y9516D01*
X51626Y9505D01*
X51623Y9502D01*
X51594Y9461D01*
X51562Y9417D01*
X51530Y9371D01*
X51498Y9327D01*
X51472Y9286D01*
X51451Y9254D01*
X51443Y9243D01*
X51437Y9234D01*
X51431Y9228D01*
Y9225D01*
X51166Y8806D01*
X50834D01*
X51181Y9353D01*
X51221Y9412D01*
X51259Y9464D01*
X51297Y9508D01*
X51329Y9548D01*
X51358Y9577D01*
X51381Y9601D01*
X51396Y9615D01*
X51402Y9621D01*
X51425Y9639D01*
X51451Y9659D01*
X51504Y9691D01*
X51527Y9703D01*
X51544Y9714D01*
X51556Y9720D01*
X51562Y9723D01*
X51509Y9732D01*
X51460Y9740D01*
X51416Y9755D01*
X51373Y9767D01*
X51335Y9781D01*
X51300Y9799D01*
X51268Y9813D01*
X51239Y9828D01*
X51216Y9845D01*
X51192Y9860D01*
X51175Y9871D01*
X51160Y9883D01*
X51149Y9892D01*
X51140Y9900D01*
X51137Y9903D01*
X51134Y9906D01*
X51111Y9935D01*
X51087Y9965D01*
X51053Y10026D01*
X51029Y10087D01*
X51012Y10145D01*
X51000Y10194D01*
X50997Y10215D01*
Y10235D01*
X50994Y10250D01*
Y10261D01*
Y10267D01*
Y10270D01*
X50997Y10331D01*
X51006Y10386D01*
X51021Y10439D01*
X51035Y10482D01*
X51053Y10520D01*
X51064Y10549D01*
X51076Y10567D01*
X51079Y10570D01*
Y10573D01*
X51114Y10619D01*
X51149Y10660D01*
X51187Y10695D01*
X51221Y10721D01*
X51253Y10741D01*
X51280Y10753D01*
X51297Y10762D01*
X51300Y10765D01*
X51303D01*
X51329Y10773D01*
X51361Y10782D01*
X51425Y10797D01*
X51495Y10806D01*
X51559Y10814D01*
X51620Y10817D01*
X51646D01*
X51670Y10820D01*
X52604D01*
Y8806D01*
D02*
G37*
G36*
X48533Y10823D02*
X48605Y10811D01*
X48666Y10791D01*
X48719Y10770D01*
X48763Y10747D01*
X48780Y10739D01*
X48794Y10727D01*
X48806Y10721D01*
X48815Y10715D01*
X48818Y10709D01*
X48821D01*
X48873Y10663D01*
X48917Y10608D01*
X48954Y10552D01*
X48984Y10500D01*
X49007Y10450D01*
X49018Y10430D01*
X49024Y10410D01*
X49030Y10395D01*
X49036Y10384D01*
X49039Y10378D01*
Y10375D01*
X49051Y10331D01*
X49062Y10288D01*
X49080Y10191D01*
X49094Y10095D01*
X49103Y10005D01*
X49106Y9962D01*
X49109Y9924D01*
Y9889D01*
X49112Y9857D01*
Y9833D01*
Y9813D01*
Y9802D01*
Y9799D01*
X49109Y9697D01*
X49103Y9601D01*
X49094Y9513D01*
X49080Y9432D01*
X49065Y9356D01*
X49048Y9289D01*
X49030Y9228D01*
X49013Y9176D01*
X48995Y9129D01*
X48975Y9088D01*
X48960Y9054D01*
X48946Y9027D01*
X48931Y9004D01*
X48923Y8990D01*
X48917Y8981D01*
X48914Y8978D01*
X48882Y8943D01*
X48847Y8911D01*
X48809Y8882D01*
X48771Y8859D01*
X48733Y8838D01*
X48695Y8821D01*
X48658Y8809D01*
X48623Y8798D01*
X48588Y8789D01*
X48556Y8783D01*
X48527Y8777D01*
X48504Y8774D01*
X48483Y8771D01*
X48454D01*
X48375Y8777D01*
X48303Y8789D01*
X48242Y8809D01*
X48189Y8830D01*
X48145Y8850D01*
X48131Y8862D01*
X48116Y8870D01*
X48105Y8876D01*
X48096Y8882D01*
X48093Y8888D01*
X48090D01*
X48038Y8937D01*
X47994Y8990D01*
X47956Y9048D01*
X47927Y9100D01*
X47904Y9150D01*
X47892Y9170D01*
X47886Y9190D01*
X47881Y9205D01*
X47875Y9217D01*
X47872Y9222D01*
Y9225D01*
X47857Y9269D01*
X47846Y9313D01*
X47828Y9406D01*
X47814Y9502D01*
X47805Y9595D01*
X47802Y9636D01*
X47799Y9674D01*
Y9708D01*
X47796Y9740D01*
Y9764D01*
Y9784D01*
Y9796D01*
Y9799D01*
Y9854D01*
X47799Y9906D01*
Y9953D01*
X47802Y9999D01*
X47808Y10040D01*
X47811Y10081D01*
X47814Y10116D01*
X47820Y10148D01*
X47822Y10177D01*
X47828Y10203D01*
X47831Y10223D01*
X47834Y10241D01*
X47837Y10255D01*
X47840Y10264D01*
X47843Y10270D01*
Y10273D01*
X47860Y10337D01*
X47881Y10395D01*
X47904Y10445D01*
X47921Y10488D01*
X47942Y10526D01*
X47954Y10552D01*
X47965Y10567D01*
X47968Y10573D01*
X48000Y10616D01*
X48032Y10654D01*
X48067Y10686D01*
X48099Y10715D01*
X48128Y10736D01*
X48151Y10750D01*
X48166Y10759D01*
X48169Y10762D01*
X48172D01*
X48218Y10785D01*
X48268Y10800D01*
X48314Y10811D01*
X48358Y10820D01*
X48396Y10826D01*
X48428Y10829D01*
X48454D01*
X48533Y10823D01*
D02*
G37*
G36*
X74043Y83462D02*
X74075Y83415D01*
X74113Y83369D01*
X74148Y83328D01*
X74183Y83293D01*
X74209Y83264D01*
X74221Y83255D01*
X74229Y83246D01*
X74232Y83244D01*
X74235Y83241D01*
X74296Y83191D01*
X74357Y83145D01*
X74416Y83104D01*
X74474Y83072D01*
X74523Y83043D01*
X74544Y83031D01*
X74561Y83022D01*
X74576Y83014D01*
X74587Y83011D01*
X74593Y83005D01*
X74596D01*
Y82766D01*
X74552Y82784D01*
X74509Y82804D01*
X74465Y82824D01*
X74424Y82845D01*
X74389Y82862D01*
X74360Y82877D01*
X74343Y82889D01*
X74340Y82891D01*
X74337D01*
X74285Y82923D01*
X74238Y82955D01*
X74197Y82985D01*
X74165Y83011D01*
X74136Y83031D01*
X74119Y83048D01*
X74104Y83060D01*
X74101Y83063D01*
Y81489D01*
X73854D01*
Y83511D01*
X74014D01*
X74043Y83462D01*
D02*
G37*
G36*
X72478D02*
X72510Y83415D01*
X72547Y83369D01*
X72582Y83328D01*
X72617Y83293D01*
X72643Y83264D01*
X72655Y83255D01*
X72664Y83246D01*
X72667Y83244D01*
X72670Y83241D01*
X72731Y83191D01*
X72792Y83145D01*
X72850Y83104D01*
X72908Y83072D01*
X72958Y83043D01*
X72978Y83031D01*
X72996Y83022D01*
X73010Y83014D01*
X73022Y83011D01*
X73027Y83005D01*
X73030D01*
Y82766D01*
X72987Y82784D01*
X72943Y82804D01*
X72900Y82824D01*
X72859Y82845D01*
X72824Y82862D01*
X72795Y82877D01*
X72777Y82889D01*
X72774Y82891D01*
X72772D01*
X72719Y82923D01*
X72672Y82955D01*
X72632Y82985D01*
X72600Y83011D01*
X72571Y83031D01*
X72553Y83048D01*
X72539Y83060D01*
X72536Y83063D01*
Y81489D01*
X72288D01*
Y83511D01*
X72448D01*
X72478Y83462D01*
D02*
G37*
G36*
X76712Y81489D02*
X76444D01*
Y82382D01*
X76100D01*
X76069Y82379D01*
X76045D01*
X76025Y82376D01*
X76010Y82373D01*
X75999D01*
X75993Y82371D01*
X75990D01*
X75943Y82356D01*
X75923Y82347D01*
X75906Y82339D01*
X75888Y82330D01*
X75876Y82324D01*
X75871Y82321D01*
X75868Y82318D01*
X75844Y82301D01*
X75821Y82280D01*
X75778Y82237D01*
X75757Y82216D01*
X75743Y82199D01*
X75734Y82187D01*
X75731Y82184D01*
X75702Y82143D01*
X75670Y82100D01*
X75638Y82053D01*
X75606Y82010D01*
X75580Y81969D01*
X75559Y81937D01*
X75551Y81925D01*
X75545Y81916D01*
X75539Y81911D01*
Y81908D01*
X75274Y81489D01*
X74942D01*
X75289Y82036D01*
X75329Y82094D01*
X75367Y82146D01*
X75405Y82190D01*
X75437Y82231D01*
X75466Y82260D01*
X75489Y82283D01*
X75504Y82298D01*
X75510Y82304D01*
X75533Y82321D01*
X75559Y82341D01*
X75612Y82373D01*
X75635Y82385D01*
X75652Y82397D01*
X75664Y82402D01*
X75670Y82405D01*
X75617Y82414D01*
X75568Y82423D01*
X75524Y82437D01*
X75481Y82449D01*
X75443Y82464D01*
X75408Y82481D01*
X75376Y82496D01*
X75347Y82510D01*
X75323Y82528D01*
X75300Y82542D01*
X75283Y82554D01*
X75268Y82565D01*
X75257Y82574D01*
X75248Y82583D01*
X75245Y82586D01*
X75242Y82589D01*
X75219Y82618D01*
X75195Y82647D01*
X75161Y82708D01*
X75137Y82769D01*
X75120Y82827D01*
X75108Y82877D01*
X75105Y82897D01*
Y82918D01*
X75102Y82932D01*
Y82944D01*
Y82950D01*
Y82952D01*
X75105Y83014D01*
X75114Y83069D01*
X75129Y83121D01*
X75143Y83165D01*
X75161Y83203D01*
X75172Y83232D01*
X75184Y83249D01*
X75187Y83252D01*
Y83255D01*
X75222Y83302D01*
X75257Y83342D01*
X75294Y83377D01*
X75329Y83404D01*
X75361Y83424D01*
X75388Y83436D01*
X75405Y83444D01*
X75408Y83447D01*
X75411D01*
X75437Y83456D01*
X75469Y83465D01*
X75533Y83479D01*
X75603Y83488D01*
X75667Y83497D01*
X75728Y83500D01*
X75754D01*
X75778Y83503D01*
X76712D01*
Y81489D01*
D02*
G37*
G36*
X58890Y13508D02*
X58940Y13505D01*
X58986Y13497D01*
X59030Y13488D01*
X59071Y13476D01*
X59109Y13465D01*
X59144Y13450D01*
X59175Y13436D01*
X59205Y13421D01*
X59228Y13407D01*
X59248Y13395D01*
X59266Y13383D01*
X59280Y13374D01*
X59289Y13366D01*
X59295Y13363D01*
X59298Y13360D01*
X59327Y13331D01*
X59353Y13299D01*
X59379Y13264D01*
X59400Y13229D01*
X59434Y13159D01*
X59458Y13089D01*
X59466Y13057D01*
X59475Y13025D01*
X59481Y12999D01*
X59487Y12976D01*
X59490Y12955D01*
Y12941D01*
X59493Y12932D01*
Y12929D01*
X59240Y12903D01*
X59234Y12970D01*
X59222Y13028D01*
X59205Y13081D01*
X59184Y13121D01*
X59167Y13156D01*
X59149Y13180D01*
X59138Y13194D01*
X59132Y13200D01*
X59088Y13235D01*
X59042Y13261D01*
X58992Y13281D01*
X58949Y13293D01*
X58908Y13302D01*
X58873Y13305D01*
X58861Y13307D01*
X58844D01*
X58783Y13305D01*
X58727Y13293D01*
X58681Y13275D01*
X58640Y13258D01*
X58608Y13238D01*
X58588Y13223D01*
X58573Y13212D01*
X58567Y13206D01*
X58532Y13165D01*
X58506Y13124D01*
X58486Y13083D01*
X58474Y13043D01*
X58465Y13011D01*
X58463Y12982D01*
X58460Y12964D01*
Y12961D01*
Y12958D01*
X58465Y12906D01*
X58477Y12851D01*
X58498Y12801D01*
X58518Y12755D01*
X58541Y12717D01*
X58561Y12685D01*
X58567Y12673D01*
X58573Y12664D01*
X58579Y12662D01*
Y12659D01*
X58602Y12627D01*
X58631Y12595D01*
X58663Y12560D01*
X58698Y12525D01*
X58771Y12455D01*
X58844Y12385D01*
X58882Y12353D01*
X58914Y12324D01*
X58946Y12298D01*
X58972Y12274D01*
X58992Y12257D01*
X59010Y12242D01*
X59021Y12234D01*
X59024Y12231D01*
X59097Y12170D01*
X59164Y12111D01*
X59219Y12059D01*
X59263Y12015D01*
X59301Y11978D01*
X59327Y11952D01*
X59341Y11934D01*
X59347Y11931D01*
Y11928D01*
X59388Y11879D01*
X59420Y11832D01*
X59449Y11786D01*
X59472Y11745D01*
X59490Y11710D01*
X59501Y11684D01*
X59507Y11666D01*
X59510Y11663D01*
Y11660D01*
X59522Y11629D01*
X59528Y11599D01*
X59534Y11570D01*
X59536Y11544D01*
X59539Y11521D01*
Y11503D01*
Y11492D01*
Y11489D01*
X58204D01*
Y11727D01*
X59196D01*
X59161Y11777D01*
X59144Y11797D01*
X59129Y11818D01*
X59114Y11835D01*
X59103Y11847D01*
X59094Y11855D01*
X59091Y11858D01*
X59077Y11873D01*
X59059Y11887D01*
X59018Y11925D01*
X58972Y11969D01*
X58922Y12013D01*
X58876Y12050D01*
X58855Y12068D01*
X58838Y12085D01*
X58823Y12097D01*
X58812Y12106D01*
X58806Y12111D01*
X58803Y12114D01*
X58757Y12155D01*
X58710Y12193D01*
X58669Y12231D01*
X58631Y12263D01*
X58596Y12295D01*
X58567Y12324D01*
X58538Y12350D01*
X58515Y12373D01*
X58492Y12397D01*
X58474Y12414D01*
X58460Y12429D01*
X58445Y12443D01*
X58431Y12461D01*
X58425Y12466D01*
X58384Y12516D01*
X58349Y12560D01*
X58320Y12603D01*
X58297Y12638D01*
X58279Y12670D01*
X58268Y12694D01*
X58262Y12708D01*
X58259Y12714D01*
X58241Y12757D01*
X58230Y12801D01*
X58218Y12842D01*
X58212Y12877D01*
X58209Y12909D01*
X58206Y12932D01*
Y12947D01*
Y12953D01*
X58209Y12996D01*
X58215Y13037D01*
X58221Y13078D01*
X58233Y13113D01*
X58262Y13182D01*
X58291Y13238D01*
X58308Y13264D01*
X58323Y13284D01*
X58337Y13305D01*
X58352Y13319D01*
X58364Y13331D01*
X58369Y13342D01*
X58375Y13345D01*
X58378Y13348D01*
X58410Y13377D01*
X58445Y13404D01*
X58483Y13424D01*
X58521Y13441D01*
X58596Y13471D01*
X58672Y13491D01*
X58704Y13497D01*
X58736Y13502D01*
X58765Y13505D01*
X58789Y13508D01*
X58809Y13511D01*
X58838D01*
X58890Y13508D01*
D02*
G37*
G36*
X60328Y13462D02*
X60360Y13415D01*
X60398Y13369D01*
X60433Y13328D01*
X60468Y13293D01*
X60494Y13264D01*
X60505Y13255D01*
X60514Y13246D01*
X60517Y13243D01*
X60520Y13241D01*
X60581Y13191D01*
X60642Y13145D01*
X60700Y13104D01*
X60759Y13072D01*
X60808Y13043D01*
X60828Y13031D01*
X60846Y13022D01*
X60860Y13014D01*
X60872Y13011D01*
X60878Y13005D01*
X60881D01*
Y12766D01*
X60837Y12784D01*
X60794Y12804D01*
X60750Y12824D01*
X60709Y12845D01*
X60674Y12862D01*
X60645Y12877D01*
X60628Y12889D01*
X60625Y12891D01*
X60622D01*
X60569Y12923D01*
X60523Y12955D01*
X60482Y12984D01*
X60450Y13011D01*
X60421Y13031D01*
X60404Y13048D01*
X60389Y13060D01*
X60386Y13063D01*
Y11489D01*
X60139D01*
Y13511D01*
X60299D01*
X60328Y13462D01*
D02*
G37*
G36*
X62996Y11489D02*
X62729D01*
Y12382D01*
X62385D01*
X62353Y12379D01*
X62330D01*
X62310Y12376D01*
X62295Y12373D01*
X62283D01*
X62278Y12370D01*
X62275D01*
X62228Y12356D01*
X62208Y12347D01*
X62190Y12338D01*
X62173Y12330D01*
X62161Y12324D01*
X62155Y12321D01*
X62152Y12318D01*
X62129Y12301D01*
X62106Y12280D01*
X62062Y12237D01*
X62042Y12216D01*
X62027Y12199D01*
X62019Y12187D01*
X62016Y12184D01*
X61987Y12144D01*
X61955Y12100D01*
X61923Y12053D01*
X61891Y12010D01*
X61864Y11969D01*
X61844Y11937D01*
X61835Y11925D01*
X61830Y11917D01*
X61824Y11911D01*
Y11908D01*
X61559Y11489D01*
X61227D01*
X61573Y12036D01*
X61614Y12094D01*
X61652Y12146D01*
X61690Y12190D01*
X61722Y12231D01*
X61751Y12260D01*
X61774Y12283D01*
X61789Y12298D01*
X61795Y12304D01*
X61818Y12321D01*
X61844Y12341D01*
X61896Y12373D01*
X61920Y12385D01*
X61937Y12397D01*
X61949Y12403D01*
X61955Y12405D01*
X61902Y12414D01*
X61853Y12423D01*
X61809Y12437D01*
X61765Y12449D01*
X61728Y12464D01*
X61693Y12481D01*
X61661Y12496D01*
X61632Y12510D01*
X61608Y12528D01*
X61585Y12542D01*
X61568Y12554D01*
X61553Y12565D01*
X61541Y12574D01*
X61533Y12583D01*
X61530Y12586D01*
X61527Y12589D01*
X61503Y12618D01*
X61480Y12647D01*
X61445Y12708D01*
X61422Y12769D01*
X61405Y12827D01*
X61393Y12877D01*
X61390Y12897D01*
Y12918D01*
X61387Y12932D01*
Y12944D01*
Y12950D01*
Y12953D01*
X61390Y13014D01*
X61399Y13069D01*
X61413Y13121D01*
X61428Y13165D01*
X61445Y13203D01*
X61457Y13232D01*
X61469Y13249D01*
X61471Y13252D01*
Y13255D01*
X61506Y13302D01*
X61541Y13342D01*
X61579Y13377D01*
X61614Y13404D01*
X61646Y13424D01*
X61672Y13436D01*
X61690Y13444D01*
X61693Y13447D01*
X61696D01*
X61722Y13456D01*
X61754Y13465D01*
X61818Y13479D01*
X61888Y13488D01*
X61952Y13497D01*
X62013Y13500D01*
X62039D01*
X62062Y13502D01*
X62996D01*
Y11489D01*
D02*
G37*
G36*
X77578Y105462D02*
X77610Y105415D01*
X77648Y105369D01*
X77683Y105328D01*
X77718Y105293D01*
X77744Y105264D01*
X77756Y105255D01*
X77764Y105246D01*
X77767Y105244D01*
X77770Y105241D01*
X77831Y105191D01*
X77892Y105145D01*
X77951Y105104D01*
X78009Y105072D01*
X78058Y105043D01*
X78079Y105031D01*
X78096Y105022D01*
X78111Y105014D01*
X78122Y105011D01*
X78128Y105005D01*
X78131D01*
Y104766D01*
X78087Y104784D01*
X78044Y104804D01*
X78000Y104824D01*
X77959Y104845D01*
X77924Y104862D01*
X77895Y104877D01*
X77878Y104888D01*
X77875Y104891D01*
X77872D01*
X77820Y104923D01*
X77773Y104955D01*
X77732Y104984D01*
X77700Y105011D01*
X77671Y105031D01*
X77654Y105049D01*
X77639Y105060D01*
X77636Y105063D01*
Y103489D01*
X77389D01*
Y105511D01*
X77549D01*
X77578Y105462D01*
D02*
G37*
G36*
X80247Y103489D02*
X79979D01*
Y104382D01*
X79635D01*
X79603Y104379D01*
X79580D01*
X79560Y104376D01*
X79545Y104373D01*
X79534D01*
X79528Y104370D01*
X79525D01*
X79478Y104356D01*
X79458Y104347D01*
X79440Y104339D01*
X79423Y104330D01*
X79411Y104324D01*
X79405Y104321D01*
X79403Y104318D01*
X79379Y104301D01*
X79356Y104280D01*
X79312Y104237D01*
X79292Y104216D01*
X79277Y104199D01*
X79269Y104187D01*
X79266Y104184D01*
X79237Y104144D01*
X79205Y104100D01*
X79173Y104053D01*
X79141Y104010D01*
X79115Y103969D01*
X79094Y103937D01*
X79085Y103925D01*
X79080Y103917D01*
X79074Y103911D01*
Y103908D01*
X78809Y103489D01*
X78477D01*
X78824Y104036D01*
X78864Y104094D01*
X78902Y104146D01*
X78940Y104190D01*
X78972Y104231D01*
X79001Y104260D01*
X79024Y104283D01*
X79039Y104298D01*
X79045Y104304D01*
X79068Y104321D01*
X79094Y104341D01*
X79146Y104373D01*
X79170Y104385D01*
X79187Y104397D01*
X79199Y104402D01*
X79205Y104405D01*
X79152Y104414D01*
X79103Y104423D01*
X79059Y104437D01*
X79016Y104449D01*
X78978Y104464D01*
X78943Y104481D01*
X78911Y104496D01*
X78882Y104510D01*
X78858Y104528D01*
X78835Y104542D01*
X78818Y104554D01*
X78803Y104566D01*
X78791Y104574D01*
X78783Y104583D01*
X78780Y104586D01*
X78777Y104589D01*
X78754Y104618D01*
X78730Y104647D01*
X78695Y104708D01*
X78672Y104769D01*
X78655Y104827D01*
X78643Y104877D01*
X78640Y104897D01*
Y104918D01*
X78637Y104932D01*
Y104944D01*
Y104950D01*
Y104953D01*
X78640Y105014D01*
X78649Y105069D01*
X78663Y105121D01*
X78678Y105165D01*
X78695Y105203D01*
X78707Y105232D01*
X78719Y105249D01*
X78722Y105252D01*
Y105255D01*
X78757Y105302D01*
X78791Y105342D01*
X78829Y105377D01*
X78864Y105404D01*
X78896Y105424D01*
X78922Y105436D01*
X78940Y105444D01*
X78943Y105447D01*
X78946D01*
X78972Y105456D01*
X79004Y105465D01*
X79068Y105479D01*
X79138Y105488D01*
X79202Y105497D01*
X79263Y105500D01*
X79289D01*
X79312Y105502D01*
X80247D01*
Y103489D01*
D02*
G37*
G36*
X76839Y104199D02*
Y103972D01*
X75963D01*
Y103489D01*
X75716D01*
Y103972D01*
X75442D01*
Y104199D01*
X75716D01*
Y105502D01*
X75916D01*
X76839Y104199D01*
D02*
G37*
G36*
X60245Y105479D02*
X60277Y105433D01*
X60315Y105386D01*
X60350Y105345D01*
X60385Y105310D01*
X60411Y105281D01*
X60423Y105273D01*
X60432Y105264D01*
X60435Y105261D01*
X60437Y105258D01*
X60498Y105209D01*
X60560Y105162D01*
X60618Y105121D01*
X60676Y105089D01*
X60725Y105060D01*
X60746Y105049D01*
X60763Y105040D01*
X60778Y105031D01*
X60790Y105028D01*
X60795Y105022D01*
X60798D01*
Y104784D01*
X60755Y104801D01*
X60711Y104822D01*
X60667Y104842D01*
X60627Y104862D01*
X60592Y104880D01*
X60563Y104894D01*
X60545Y104906D01*
X60542Y104909D01*
X60539D01*
X60487Y104941D01*
X60440Y104973D01*
X60400Y105002D01*
X60368Y105028D01*
X60338Y105049D01*
X60321Y105066D01*
X60307Y105078D01*
X60304Y105080D01*
Y103506D01*
X60056D01*
Y105529D01*
X60216D01*
X60245Y105479D01*
D02*
G37*
G36*
X59378Y104458D02*
X59145Y104426D01*
X59125Y104458D01*
X59099Y104484D01*
X59075Y104510D01*
X59052Y104531D01*
X59029Y104545D01*
X59012Y104560D01*
X59000Y104566D01*
X58997Y104568D01*
X58959Y104586D01*
X58921Y104600D01*
X58886Y104609D01*
X58851Y104618D01*
X58822Y104621D01*
X58799Y104624D01*
X58744D01*
X58709Y104618D01*
X58648Y104603D01*
X58595Y104583D01*
X58549Y104563D01*
X58514Y104539D01*
X58488Y104519D01*
X58473Y104504D01*
X58467Y104501D01*
Y104499D01*
X58427Y104449D01*
X58398Y104397D01*
X58377Y104341D01*
X58363Y104286D01*
X58354Y104240D01*
X58351Y104219D01*
Y104202D01*
X58348Y104187D01*
Y104175D01*
Y104170D01*
Y104167D01*
Y104126D01*
X58354Y104088D01*
X58368Y104016D01*
X58389Y103954D01*
X58409Y103905D01*
X58432Y103864D01*
X58453Y103832D01*
X58461Y103823D01*
X58467Y103815D01*
X58470Y103812D01*
X58473Y103809D01*
X58496Y103786D01*
X58520Y103765D01*
X58572Y103730D01*
X58622Y103707D01*
X58671Y103692D01*
X58712Y103681D01*
X58747Y103678D01*
X58758Y103675D01*
X58776D01*
X58831Y103678D01*
X58881Y103690D01*
X58924Y103704D01*
X58959Y103722D01*
X58991Y103739D01*
X59014Y103754D01*
X59026Y103765D01*
X59032Y103768D01*
X59067Y103809D01*
X59096Y103852D01*
X59119Y103902D01*
X59137Y103946D01*
X59148Y103989D01*
X59157Y104021D01*
X59160Y104036D01*
X59163Y104045D01*
Y104050D01*
Y104053D01*
X59422Y104033D01*
X59416Y103986D01*
X59407Y103943D01*
X59381Y103861D01*
X59349Y103791D01*
X59332Y103759D01*
X59314Y103733D01*
X59300Y103707D01*
X59282Y103684D01*
X59268Y103666D01*
X59253Y103652D01*
X59241Y103640D01*
X59236Y103629D01*
X59230Y103626D01*
X59227Y103623D01*
X59192Y103596D01*
X59157Y103573D01*
X59119Y103553D01*
X59081Y103535D01*
X59009Y103509D01*
X58936Y103492D01*
X58904Y103483D01*
X58872Y103480D01*
X58846Y103477D01*
X58822Y103474D01*
X58802Y103471D01*
X58776D01*
X58715Y103474D01*
X58657Y103483D01*
X58601Y103495D01*
X58552Y103509D01*
X58505Y103530D01*
X58461Y103550D01*
X58421Y103570D01*
X58386Y103594D01*
X58354Y103617D01*
X58325Y103637D01*
X58302Y103661D01*
X58281Y103678D01*
X58267Y103692D01*
X58255Y103704D01*
X58249Y103713D01*
X58246Y103716D01*
X58217Y103754D01*
X58194Y103794D01*
X58170Y103832D01*
X58153Y103873D01*
X58124Y103952D01*
X58106Y104027D01*
X58101Y104059D01*
X58095Y104091D01*
X58092Y104117D01*
X58089Y104141D01*
X58086Y104161D01*
Y104175D01*
Y104184D01*
Y104187D01*
X58089Y104240D01*
X58095Y104289D01*
X58104Y104339D01*
X58115Y104382D01*
X58130Y104423D01*
X58144Y104464D01*
X58162Y104499D01*
X58176Y104531D01*
X58194Y104560D01*
X58211Y104586D01*
X58226Y104606D01*
X58240Y104627D01*
X58252Y104641D01*
X58261Y104650D01*
X58267Y104656D01*
X58270Y104659D01*
X58304Y104691D01*
X58339Y104720D01*
X58377Y104743D01*
X58415Y104763D01*
X58453Y104784D01*
X58491Y104798D01*
X58561Y104819D01*
X58592Y104827D01*
X58622Y104833D01*
X58648Y104836D01*
X58671Y104839D01*
X58688Y104842D01*
X58753D01*
X58788Y104836D01*
X58857Y104822D01*
X58921Y104801D01*
X58979Y104778D01*
X59026Y104755D01*
X59047Y104743D01*
X59064Y104734D01*
X59079Y104726D01*
X59087Y104720D01*
X59093Y104717D01*
X59096Y104714D01*
X58988Y105258D01*
X58182D01*
Y105494D01*
X59183D01*
X59378Y104458D01*
D02*
G37*
G36*
X62914Y103506D02*
X62646D01*
Y104400D01*
X62303D01*
X62271Y104397D01*
X62248D01*
X62227Y104394D01*
X62213Y104391D01*
X62201D01*
X62195Y104388D01*
X62192D01*
X62146Y104373D01*
X62125Y104365D01*
X62108Y104356D01*
X62090Y104347D01*
X62079Y104341D01*
X62073Y104339D01*
X62070Y104336D01*
X62047Y104318D01*
X62023Y104298D01*
X61980Y104254D01*
X61959Y104234D01*
X61945Y104216D01*
X61936Y104205D01*
X61933Y104202D01*
X61904Y104161D01*
X61872Y104117D01*
X61840Y104071D01*
X61808Y104027D01*
X61782Y103986D01*
X61761Y103954D01*
X61753Y103943D01*
X61747Y103934D01*
X61741Y103928D01*
Y103925D01*
X61476Y103506D01*
X61145D01*
X61491Y104053D01*
X61532Y104112D01*
X61569Y104164D01*
X61607Y104208D01*
X61639Y104248D01*
X61668Y104277D01*
X61692Y104301D01*
X61706Y104315D01*
X61712Y104321D01*
X61735Y104339D01*
X61761Y104359D01*
X61814Y104391D01*
X61837Y104402D01*
X61855Y104414D01*
X61866Y104420D01*
X61872Y104423D01*
X61820Y104432D01*
X61770Y104440D01*
X61727Y104455D01*
X61683Y104466D01*
X61645Y104481D01*
X61610Y104499D01*
X61578Y104513D01*
X61549Y104528D01*
X61526Y104545D01*
X61502Y104560D01*
X61485Y104571D01*
X61471Y104583D01*
X61459Y104592D01*
X61450Y104600D01*
X61447Y104603D01*
X61444Y104606D01*
X61421Y104635D01*
X61398Y104664D01*
X61363Y104726D01*
X61339Y104787D01*
X61322Y104845D01*
X61310Y104894D01*
X61308Y104915D01*
Y104935D01*
X61305Y104950D01*
Y104961D01*
Y104967D01*
Y104970D01*
X61308Y105031D01*
X61316Y105086D01*
X61331Y105139D01*
X61345Y105182D01*
X61363Y105220D01*
X61374Y105249D01*
X61386Y105267D01*
X61389Y105270D01*
Y105273D01*
X61424Y105319D01*
X61459Y105360D01*
X61497Y105395D01*
X61532Y105421D01*
X61564Y105441D01*
X61590Y105453D01*
X61607Y105462D01*
X61610Y105465D01*
X61613D01*
X61639Y105473D01*
X61671Y105482D01*
X61735Y105497D01*
X61805Y105505D01*
X61869Y105514D01*
X61930Y105517D01*
X61956D01*
X61980Y105520D01*
X62914D01*
Y103506D01*
D02*
G37*
G36*
X77346Y49006D02*
X77619D01*
Y48779D01*
X77346D01*
Y47476D01*
X77145D01*
X76223Y48779D01*
Y49006D01*
X77099D01*
Y49489D01*
X77346D01*
Y49006D01*
D02*
G37*
G36*
X75280Y49518D02*
X75326Y49513D01*
X75370Y49507D01*
X75414Y49498D01*
X75451Y49489D01*
X75486Y49481D01*
X75518Y49469D01*
X75547Y49457D01*
X75571Y49449D01*
X75594Y49440D01*
X75612Y49431D01*
X75626Y49422D01*
X75635Y49420D01*
X75641Y49414D01*
X75643D01*
X75708Y49370D01*
X75760Y49321D01*
X75801Y49274D01*
X75836Y49227D01*
X75862Y49187D01*
X75879Y49155D01*
X75885Y49143D01*
X75891Y49134D01*
X75894Y49129D01*
Y49126D01*
X75905Y49091D01*
X75917Y49053D01*
X75934Y48974D01*
X75946Y48893D01*
X75955Y48814D01*
X75958Y48779D01*
X75961Y48744D01*
Y48715D01*
X75964Y48689D01*
Y48669D01*
Y48654D01*
Y48643D01*
Y48640D01*
Y47476D01*
X75696D01*
Y48640D01*
Y48707D01*
X75690Y48771D01*
X75684Y48826D01*
X75675Y48878D01*
X75667Y48925D01*
X75655Y48968D01*
X75646Y49006D01*
X75635Y49038D01*
X75623Y49064D01*
X75612Y49091D01*
X75600Y49108D01*
X75591Y49126D01*
X75582Y49137D01*
X75577Y49146D01*
X75574Y49149D01*
X75571Y49152D01*
X75545Y49175D01*
X75516Y49196D01*
X75451Y49227D01*
X75384Y49251D01*
X75315Y49265D01*
X75251Y49277D01*
X75225Y49280D01*
X75198D01*
X75181Y49283D01*
X75152D01*
X75091Y49280D01*
X75035Y49271D01*
X74983Y49262D01*
X74942Y49248D01*
X74907Y49236D01*
X74881Y49227D01*
X74867Y49219D01*
X74861Y49216D01*
X74820Y49190D01*
X74785Y49158D01*
X74756Y49126D01*
X74736Y49097D01*
X74718Y49068D01*
X74704Y49047D01*
X74698Y49033D01*
X74695Y49027D01*
X74686Y49000D01*
X74680Y48974D01*
X74669Y48913D01*
X74660Y48849D01*
X74654Y48785D01*
X74651Y48730D01*
Y48704D01*
X74648Y48683D01*
Y48666D01*
Y48651D01*
Y48643D01*
Y48640D01*
Y47476D01*
X74381D01*
Y48640D01*
Y48698D01*
X74383Y48753D01*
X74386Y48805D01*
X74392Y48855D01*
X74398Y48899D01*
X74404Y48939D01*
X74413Y48977D01*
X74418Y49012D01*
X74424Y49044D01*
X74433Y49070D01*
X74439Y49094D01*
X74445Y49111D01*
X74450Y49126D01*
X74453Y49137D01*
X74456Y49143D01*
Y49146D01*
X74488Y49210D01*
X74529Y49268D01*
X74570Y49315D01*
X74613Y49356D01*
X74651Y49387D01*
X74683Y49411D01*
X74695Y49417D01*
X74704Y49422D01*
X74709Y49428D01*
X74712D01*
X74785Y49460D01*
X74861Y49484D01*
X74939Y49501D01*
X75012Y49513D01*
X75044Y49516D01*
X75076Y49518D01*
X75105Y49521D01*
X75129D01*
X75149Y49524D01*
X75175D01*
X75280Y49518D01*
D02*
G37*
%LPC*%
G36*
X109361Y72105D02*
Y71203D01*
X109995D01*
X109361Y72105D01*
D02*
G37*
G36*
X82499Y17082D02*
X82481D01*
X82420Y17076D01*
X82365Y17061D01*
X82319Y17044D01*
X82278Y17020D01*
X82246Y16997D01*
X82222Y16980D01*
X82208Y16965D01*
X82202Y16959D01*
X82164Y16910D01*
X82135Y16857D01*
X82115Y16802D01*
X82103Y16750D01*
X82095Y16703D01*
X82092Y16683D01*
Y16665D01*
X82089Y16651D01*
Y16639D01*
Y16633D01*
Y16630D01*
X82095Y16552D01*
X82106Y16485D01*
X82124Y16427D01*
X82144Y16377D01*
X82167Y16339D01*
X82185Y16310D01*
X82196Y16293D01*
X82202Y16290D01*
Y16287D01*
X82222Y16264D01*
X82246Y16246D01*
X82292Y16214D01*
X82339Y16194D01*
X82380Y16176D01*
X82418Y16168D01*
X82447Y16165D01*
X82458Y16162D01*
X82473D01*
X82513Y16165D01*
X82551Y16171D01*
X82586Y16182D01*
X82615Y16194D01*
X82642Y16203D01*
X82662Y16214D01*
X82674Y16220D01*
X82679Y16223D01*
X82714Y16249D01*
X82743Y16275D01*
X82770Y16307D01*
X82790Y16334D01*
X82807Y16360D01*
X82819Y16380D01*
X82828Y16395D01*
X82831Y16400D01*
X82848Y16444D01*
X82860Y16488D01*
X82871Y16529D01*
X82877Y16566D01*
X82880Y16598D01*
X82883Y16625D01*
Y16639D01*
Y16645D01*
X82877Y16715D01*
X82866Y16776D01*
X82845Y16831D01*
X82825Y16875D01*
X82805Y16913D01*
X82784Y16939D01*
X82772Y16953D01*
X82767Y16959D01*
X82720Y17000D01*
X82674Y17029D01*
X82624Y17052D01*
X82580Y17067D01*
X82540Y17076D01*
X82511Y17079D01*
X82499Y17082D01*
D02*
G37*
G36*
X7012Y36312D02*
X6966D01*
X6936Y36306D01*
X6884Y36292D01*
X6837Y36271D01*
X6797Y36251D01*
X6765Y36228D01*
X6741Y36207D01*
X6727Y36193D01*
X6721Y36190D01*
Y36187D01*
X6683Y36137D01*
X6654Y36082D01*
X6634Y36024D01*
X6622Y35969D01*
X6613Y35922D01*
X6611Y35902D01*
Y35881D01*
X6608Y35867D01*
Y35855D01*
Y35849D01*
Y35846D01*
X6613Y35771D01*
X6625Y35704D01*
X6643Y35648D01*
X6663Y35602D01*
X6686Y35564D01*
X6704Y35538D01*
X6715Y35520D01*
X6721Y35515D01*
X6765Y35474D01*
X6811Y35445D01*
X6858Y35424D01*
X6904Y35410D01*
X6942Y35401D01*
X6974Y35398D01*
X6986Y35395D01*
X7003D01*
X7064Y35401D01*
X7120Y35413D01*
X7169Y35433D01*
X7213Y35456D01*
X7245Y35477D01*
X7271Y35497D01*
X7286Y35509D01*
X7291Y35515D01*
X7329Y35561D01*
X7358Y35614D01*
X7376Y35666D01*
X7390Y35715D01*
X7399Y35759D01*
X7402Y35776D01*
Y35794D01*
X7405Y35809D01*
Y35817D01*
Y35823D01*
Y35826D01*
X7399Y35902D01*
X7387Y35971D01*
X7367Y36033D01*
X7344Y36082D01*
X7323Y36123D01*
X7303Y36152D01*
X7297Y36161D01*
X7291Y36169D01*
X7286Y36172D01*
Y36175D01*
X7262Y36198D01*
X7239Y36222D01*
X7190Y36254D01*
X7140Y36280D01*
X7094Y36294D01*
X7056Y36306D01*
X7024Y36309D01*
X7012Y36312D01*
D02*
G37*
G36*
X48532Y60191D02*
X48506D01*
X48491D01*
X48488D01*
X48485D01*
X48395D01*
X48314Y60185D01*
X48241Y60180D01*
X48171Y60174D01*
X48113Y60165D01*
X48058Y60153D01*
X48011Y60142D01*
X47967Y60133D01*
X47932Y60121D01*
X47903Y60110D01*
X47877Y60101D01*
X47857Y60089D01*
X47842Y60084D01*
X47834Y60078D01*
X47828Y60072D01*
X47825D01*
X47796Y60049D01*
X47772Y60025D01*
X47749Y60002D01*
X47732Y59979D01*
X47703Y59929D01*
X47682Y59886D01*
X47671Y59845D01*
X47665Y59816D01*
X47662Y59804D01*
Y59787D01*
X47665Y59755D01*
X47668Y59726D01*
X47688Y59670D01*
X47714Y59621D01*
X47743Y59577D01*
X47772Y59545D01*
X47799Y59519D01*
X47819Y59504D01*
X47822Y59499D01*
X47825D01*
X47860Y59478D01*
X47901Y59461D01*
X47947Y59443D01*
X47997Y59432D01*
X48049Y59420D01*
X48104Y59411D01*
X48218Y59397D01*
X48270Y59391D01*
X48320Y59388D01*
X48366Y59385D01*
X48404D01*
X48439Y59382D01*
X48465D01*
X48480D01*
X48485D01*
X48576Y59385D01*
X48657Y59388D01*
X48733Y59394D01*
X48803Y59403D01*
X48864Y59411D01*
X48919Y59423D01*
X48968Y59435D01*
X49012Y59446D01*
X49050Y59458D01*
X49082Y59467D01*
X49108Y59478D01*
X49132Y59487D01*
X49146Y59496D01*
X49158Y59502D01*
X49163Y59507D01*
X49166D01*
X49193Y59528D01*
X49216Y59548D01*
X49233Y59571D01*
X49251Y59595D01*
X49277Y59641D01*
X49294Y59685D01*
X49303Y59723D01*
X49309Y59755D01*
X49312Y59766D01*
Y59784D01*
X49309Y59816D01*
X49306Y59848D01*
X49297Y59877D01*
X49286Y59903D01*
X49259Y59953D01*
X49230Y59996D01*
X49198Y60028D01*
X49172Y60054D01*
X49161Y60063D01*
X49152Y60069D01*
X49149Y60075D01*
X49146D01*
X49111Y60095D01*
X49070Y60113D01*
X49024Y60130D01*
X48974Y60142D01*
X48922Y60153D01*
X48867Y60162D01*
X48756Y60177D01*
X48701Y60182D01*
X48651Y60185D01*
X48605Y60188D01*
X48567D01*
X48532Y60191D01*
D02*
G37*
G36*
X99663Y107764D02*
X99197D01*
X99159Y107761D01*
X99121D01*
X99086Y107758D01*
X99028Y107749D01*
X98982Y107744D01*
X98944Y107735D01*
X98918Y107726D01*
X98903Y107723D01*
X98897Y107720D01*
X98845Y107694D01*
X98795Y107662D01*
X98752Y107624D01*
X98714Y107586D01*
X98685Y107551D01*
X98662Y107522D01*
X98656Y107511D01*
X98650Y107502D01*
X98644Y107496D01*
Y107493D01*
X98627Y107461D01*
X98609Y107423D01*
X98583Y107348D01*
X98566Y107266D01*
X98551Y107188D01*
X98548Y107153D01*
X98545Y107118D01*
X98542Y107089D01*
Y107063D01*
X98539Y107039D01*
Y107025D01*
Y107013D01*
Y107010D01*
X98542Y106929D01*
X98548Y106853D01*
X98557Y106786D01*
X98566Y106728D01*
X98571Y106705D01*
X98577Y106684D01*
X98583Y106664D01*
X98586Y106649D01*
X98589Y106638D01*
X98592Y106629D01*
X98595Y106623D01*
Y106620D01*
X98615Y106565D01*
X98638Y106516D01*
X98664Y106472D01*
X98688Y106434D01*
X98708Y106405D01*
X98725Y106385D01*
X98737Y106373D01*
X98740Y106367D01*
X98769Y106344D01*
X98798Y106323D01*
X98827Y106306D01*
X98857Y106289D01*
X98883Y106277D01*
X98903Y106268D01*
X98918Y106265D01*
X98923Y106262D01*
X98967Y106251D01*
X99019Y106242D01*
X99072Y106236D01*
X99121Y106233D01*
X99165Y106230D01*
X99185Y106227D01*
X99663D01*
Y107764D01*
D02*
G37*
G36*
X44857Y74781D02*
X44392D01*
X44354Y74778D01*
X44316D01*
X44281Y74775D01*
X44223Y74767D01*
X44177Y74761D01*
X44139Y74752D01*
X44113Y74743D01*
X44098Y74741D01*
X44092Y74738D01*
X44040Y74712D01*
X43990Y74679D01*
X43947Y74642D01*
X43909Y74604D01*
X43880Y74569D01*
X43856Y74540D01*
X43851Y74528D01*
X43845Y74519D01*
X43839Y74514D01*
Y74511D01*
X43822Y74479D01*
X43804Y74441D01*
X43778Y74365D01*
X43760Y74284D01*
X43746Y74205D01*
X43743Y74170D01*
X43740Y74135D01*
X43737Y74106D01*
Y74080D01*
X43734Y74057D01*
Y74042D01*
Y74031D01*
Y74028D01*
X43737Y73946D01*
X43743Y73870D01*
X43752Y73804D01*
X43760Y73745D01*
X43766Y73722D01*
X43772Y73702D01*
X43778Y73681D01*
X43781Y73667D01*
X43784Y73655D01*
X43787Y73646D01*
X43789Y73641D01*
Y73638D01*
X43810Y73582D01*
X43833Y73533D01*
X43859Y73489D01*
X43883Y73452D01*
X43903Y73422D01*
X43920Y73402D01*
X43932Y73390D01*
X43935Y73384D01*
X43964Y73361D01*
X43993Y73341D01*
X44022Y73323D01*
X44051Y73306D01*
X44078Y73294D01*
X44098Y73286D01*
X44113Y73283D01*
X44118Y73280D01*
X44162Y73268D01*
X44214Y73259D01*
X44267Y73254D01*
X44316Y73251D01*
X44360Y73248D01*
X44380Y73245D01*
X44857D01*
Y74781D01*
D02*
G37*
G36*
X25453Y74768D02*
X24987D01*
X24950Y74765D01*
X24912D01*
X24877Y74762D01*
X24819Y74754D01*
X24772Y74748D01*
X24734Y74739D01*
X24708Y74730D01*
X24694Y74727D01*
X24688Y74725D01*
X24635Y74698D01*
X24586Y74666D01*
X24542Y74629D01*
X24505Y74591D01*
X24475Y74556D01*
X24452Y74527D01*
X24446Y74515D01*
X24441Y74506D01*
X24435Y74501D01*
Y74498D01*
X24417Y74466D01*
X24400Y74428D01*
X24374Y74352D01*
X24356Y74271D01*
X24341Y74192D01*
X24339Y74157D01*
X24336Y74122D01*
X24333Y74093D01*
Y74067D01*
X24330Y74044D01*
Y74029D01*
Y74018D01*
Y74015D01*
X24333Y73933D01*
X24339Y73857D01*
X24347Y73791D01*
X24356Y73732D01*
X24362Y73709D01*
X24368Y73689D01*
X24374Y73668D01*
X24376Y73654D01*
X24379Y73642D01*
X24382Y73633D01*
X24385Y73628D01*
Y73625D01*
X24406Y73569D01*
X24429Y73520D01*
X24455Y73476D01*
X24478Y73438D01*
X24499Y73409D01*
X24516Y73389D01*
X24528Y73377D01*
X24531Y73371D01*
X24560Y73348D01*
X24589Y73328D01*
X24618Y73310D01*
X24647Y73293D01*
X24673Y73281D01*
X24694Y73273D01*
X24708Y73270D01*
X24714Y73267D01*
X24758Y73255D01*
X24810Y73246D01*
X24862Y73241D01*
X24912Y73238D01*
X24956Y73235D01*
X24976Y73232D01*
X25453D01*
Y74768D01*
D02*
G37*
G36*
X23000Y74605D02*
Y73703D01*
X23634D01*
X23000Y74605D01*
D02*
G37*
G36*
X72333Y30596D02*
X72315D01*
X72304D01*
X72295D01*
X72292D01*
X72214Y30593D01*
X72141Y30587D01*
X72074Y30576D01*
X72010Y30558D01*
X71955Y30541D01*
X71902Y30520D01*
X71853Y30500D01*
X71809Y30480D01*
X71771Y30456D01*
X71739Y30436D01*
X71713Y30416D01*
X71690Y30398D01*
X71672Y30384D01*
X71658Y30372D01*
X71652Y30363D01*
X71649Y30360D01*
X71696Y30299D01*
X71733Y30238D01*
X71765Y30174D01*
X71794Y30113D01*
X71815Y30061D01*
X71824Y30037D01*
X71829Y30017D01*
X71835Y30002D01*
X71838Y29991D01*
X71841Y29982D01*
Y29979D01*
X71649Y29912D01*
X71634Y29965D01*
X71617Y30014D01*
X71597Y30058D01*
X71579Y30098D01*
X71562Y30130D01*
X71547Y30157D01*
X71535Y30171D01*
X71533Y30177D01*
X71515Y30130D01*
X71503Y30081D01*
X71492Y30037D01*
X71486Y29994D01*
X71483Y29959D01*
X71480Y29932D01*
Y29906D01*
X71483Y29851D01*
X71489Y29799D01*
X71500Y29749D01*
X71512Y29700D01*
X71530Y29656D01*
X71547Y29615D01*
X71565Y29577D01*
X71585Y29546D01*
X71605Y29513D01*
X71623Y29487D01*
X71640Y29464D01*
X71658Y29444D01*
X71669Y29429D01*
X71681Y29417D01*
X71687Y29412D01*
X71690Y29409D01*
X71730Y29374D01*
X71777Y29345D01*
X71824Y29318D01*
X71873Y29298D01*
X71922Y29278D01*
X71972Y29263D01*
X72071Y29240D01*
X72114Y29234D01*
X72158Y29228D01*
X72196Y29223D01*
X72228Y29220D01*
X72254Y29217D01*
X72275D01*
X72286D01*
X72292D01*
X72365Y29220D01*
X72435Y29225D01*
X72499Y29234D01*
X72557Y29249D01*
X72612Y29263D01*
X72662Y29278D01*
X72708Y29295D01*
X72749Y29316D01*
X72784Y29333D01*
X72816Y29351D01*
X72842Y29365D01*
X72862Y29383D01*
X72880Y29394D01*
X72891Y29403D01*
X72897Y29409D01*
X72900Y29412D01*
X72938Y29449D01*
X72967Y29490D01*
X72996Y29531D01*
X73020Y29572D01*
X73040Y29615D01*
X73057Y29656D01*
X73069Y29694D01*
X73081Y29735D01*
X73089Y29770D01*
X73095Y29802D01*
X73101Y29831D01*
X73104Y29857D01*
X73107Y29877D01*
Y29906D01*
X73104Y29979D01*
X73092Y30049D01*
X73075Y30110D01*
X73057Y30162D01*
X73037Y30206D01*
X73028Y30224D01*
X73023Y30238D01*
X73014Y30253D01*
X73011Y30261D01*
X73005Y30264D01*
Y30267D01*
X72964Y30323D01*
X72918Y30372D01*
X72871Y30416D01*
X72825Y30450D01*
X72784Y30477D01*
X72749Y30497D01*
X72737Y30503D01*
X72729Y30509D01*
X72723Y30512D01*
X72720D01*
X72650Y30541D01*
X72577Y30561D01*
X72505Y30576D01*
X72438Y30584D01*
X72408Y30590D01*
X72379Y30593D01*
X72356D01*
X72333Y30596D01*
D02*
G37*
G36*
X84661Y9278D02*
X84027D01*
X83948Y9275D01*
X83881Y9264D01*
X83823Y9249D01*
X83779Y9232D01*
X83741Y9214D01*
X83718Y9200D01*
X83704Y9188D01*
X83698Y9185D01*
X83663Y9148D01*
X83637Y9110D01*
X83619Y9069D01*
X83605Y9034D01*
X83599Y8999D01*
X83596Y8973D01*
X83593Y8955D01*
Y8952D01*
Y8950D01*
X83596Y8915D01*
X83602Y8880D01*
X83611Y8851D01*
X83619Y8824D01*
X83631Y8801D01*
X83640Y8784D01*
X83645Y8772D01*
X83648Y8769D01*
X83669Y8740D01*
X83695Y8714D01*
X83721Y8693D01*
X83747Y8676D01*
X83771Y8664D01*
X83788Y8656D01*
X83800Y8650D01*
X83806Y8647D01*
X83846Y8635D01*
X83893Y8627D01*
X83939Y8621D01*
X83986Y8618D01*
X84027Y8615D01*
X84062Y8612D01*
X84661D01*
Y9278D01*
D02*
G37*
G36*
X32857Y39783D02*
X32223D01*
X32145Y39780D01*
X32078Y39768D01*
X32019Y39754D01*
X31976Y39736D01*
X31938Y39719D01*
X31915Y39704D01*
X31900Y39693D01*
X31894Y39690D01*
X31859Y39652D01*
X31833Y39614D01*
X31816Y39573D01*
X31801Y39538D01*
X31795Y39503D01*
X31793Y39477D01*
X31790Y39460D01*
Y39457D01*
Y39454D01*
X31793Y39419D01*
X31798Y39384D01*
X31807Y39355D01*
X31816Y39329D01*
X31827Y39305D01*
X31836Y39288D01*
X31842Y39276D01*
X31845Y39274D01*
X31865Y39244D01*
X31891Y39218D01*
X31918Y39198D01*
X31944Y39180D01*
X31967Y39169D01*
X31984Y39160D01*
X31996Y39154D01*
X32002Y39151D01*
X32043Y39140D01*
X32089Y39131D01*
X32136Y39125D01*
X32182Y39122D01*
X32223Y39119D01*
X32258Y39116D01*
X32857D01*
Y39783D01*
D02*
G37*
G36*
X30407Y39605D02*
Y38703D01*
X31042D01*
X30407Y39605D01*
D02*
G37*
G36*
X23540Y50095D02*
X23522D01*
X23461Y50089D01*
X23406Y50074D01*
X23359Y50057D01*
X23318Y50033D01*
X23287Y50010D01*
X23263Y49993D01*
X23249Y49978D01*
X23243Y49972D01*
X23205Y49923D01*
X23176Y49870D01*
X23156Y49815D01*
X23144Y49763D01*
X23135Y49716D01*
X23132Y49696D01*
Y49678D01*
X23129Y49664D01*
Y49652D01*
Y49646D01*
Y49643D01*
X23135Y49565D01*
X23147Y49498D01*
X23164Y49440D01*
X23185Y49390D01*
X23208Y49352D01*
X23225Y49323D01*
X23237Y49306D01*
X23243Y49303D01*
Y49300D01*
X23263Y49277D01*
X23287Y49259D01*
X23333Y49227D01*
X23380Y49207D01*
X23420Y49190D01*
X23458Y49181D01*
X23487Y49178D01*
X23499Y49175D01*
X23514D01*
X23554Y49178D01*
X23592Y49184D01*
X23627Y49195D01*
X23656Y49207D01*
X23682Y49216D01*
X23703Y49227D01*
X23714Y49233D01*
X23720Y49236D01*
X23755Y49262D01*
X23784Y49288D01*
X23810Y49321D01*
X23831Y49347D01*
X23848Y49373D01*
X23860Y49393D01*
X23868Y49408D01*
X23871Y49414D01*
X23889Y49457D01*
X23900Y49501D01*
X23912Y49542D01*
X23918Y49580D01*
X23921Y49611D01*
X23924Y49638D01*
Y49652D01*
Y49658D01*
X23918Y49728D01*
X23906Y49789D01*
X23886Y49844D01*
X23866Y49888D01*
X23845Y49926D01*
X23825Y49952D01*
X23813Y49966D01*
X23807Y49972D01*
X23761Y50013D01*
X23714Y50042D01*
X23665Y50065D01*
X23621Y50080D01*
X23580Y50089D01*
X23551Y50092D01*
X23540Y50095D01*
D02*
G37*
G36*
X25856Y50796D02*
X25222D01*
X25143Y50793D01*
X25076Y50781D01*
X25018Y50767D01*
X24974Y50749D01*
X24937Y50732D01*
X24913Y50717D01*
X24899Y50706D01*
X24893Y50703D01*
X24858Y50665D01*
X24832Y50627D01*
X24814Y50586D01*
X24800Y50551D01*
X24794Y50516D01*
X24791Y50490D01*
X24788Y50473D01*
Y50470D01*
Y50467D01*
X24791Y50432D01*
X24797Y50397D01*
X24805Y50368D01*
X24814Y50342D01*
X24826Y50319D01*
X24835Y50301D01*
X24840Y50290D01*
X24843Y50287D01*
X24864Y50257D01*
X24890Y50231D01*
X24916Y50211D01*
X24942Y50194D01*
X24966Y50182D01*
X24983Y50173D01*
X24995Y50167D01*
X25001Y50164D01*
X25041Y50153D01*
X25088Y50144D01*
X25134Y50138D01*
X25181Y50135D01*
X25222Y50132D01*
X25257Y50129D01*
X25856D01*
Y50796D01*
D02*
G37*
G36*
X89456Y42283D02*
X88822D01*
X88743Y42280D01*
X88676Y42268D01*
X88618Y42254D01*
X88574Y42236D01*
X88537Y42219D01*
X88513Y42204D01*
X88499Y42193D01*
X88493Y42190D01*
X88458Y42152D01*
X88432Y42114D01*
X88414Y42073D01*
X88400Y42038D01*
X88394Y42003D01*
X88391Y41977D01*
X88388Y41960D01*
Y41957D01*
Y41954D01*
X88391Y41919D01*
X88397Y41884D01*
X88406Y41855D01*
X88414Y41829D01*
X88426Y41805D01*
X88435Y41788D01*
X88441Y41776D01*
X88443Y41774D01*
X88464Y41744D01*
X88490Y41718D01*
X88516Y41698D01*
X88542Y41680D01*
X88566Y41669D01*
X88583Y41660D01*
X88595Y41654D01*
X88600Y41651D01*
X88641Y41640D01*
X88688Y41631D01*
X88734Y41625D01*
X88781Y41622D01*
X88822Y41619D01*
X88857Y41616D01*
X89456D01*
Y42283D01*
D02*
G37*
G36*
X32863Y31296D02*
X32229D01*
X32150Y31293D01*
X32083Y31281D01*
X32025Y31267D01*
X31982Y31249D01*
X31944Y31232D01*
X31920Y31217D01*
X31906Y31206D01*
X31900Y31203D01*
X31865Y31165D01*
X31839Y31127D01*
X31822Y31086D01*
X31807Y31051D01*
X31801Y31016D01*
X31798Y30990D01*
X31795Y30973D01*
Y30970D01*
Y30967D01*
X31798Y30932D01*
X31804Y30897D01*
X31813Y30868D01*
X31822Y30842D01*
X31833Y30819D01*
X31842Y30801D01*
X31848Y30790D01*
X31851Y30787D01*
X31871Y30757D01*
X31897Y30731D01*
X31923Y30711D01*
X31950Y30694D01*
X31973Y30682D01*
X31990Y30673D01*
X32002Y30667D01*
X32008Y30664D01*
X32048Y30653D01*
X32095Y30644D01*
X32142Y30638D01*
X32188Y30635D01*
X32229Y30632D01*
X32264Y30630D01*
X32863D01*
Y31296D01*
D02*
G37*
G36*
X30567Y31325D02*
X30544D01*
X30495Y31322D01*
X30448Y31310D01*
X30410Y31296D01*
X30375Y31278D01*
X30349Y31261D01*
X30329Y31246D01*
X30314Y31235D01*
X30311Y31232D01*
X30279Y31194D01*
X30256Y31156D01*
X30239Y31118D01*
X30227Y31084D01*
X30221Y31051D01*
X30215Y31025D01*
Y31008D01*
Y31005D01*
Y31002D01*
X30218Y30955D01*
X30230Y30912D01*
X30244Y30874D01*
X30262Y30842D01*
X30279Y30816D01*
X30294Y30798D01*
X30305Y30784D01*
X30308Y30781D01*
X30343Y30752D01*
X30384Y30728D01*
X30422Y30714D01*
X30460Y30702D01*
X30495Y30696D01*
X30521Y30694D01*
X30538Y30691D01*
X30544D01*
X30596Y30694D01*
X30643Y30705D01*
X30684Y30720D01*
X30719Y30737D01*
X30745Y30752D01*
X30765Y30766D01*
X30780Y30778D01*
X30783Y30781D01*
X30812Y30816D01*
X30835Y30856D01*
X30850Y30894D01*
X30861Y30932D01*
X30867Y30964D01*
X30870Y30990D01*
X30873Y31008D01*
Y31011D01*
Y31014D01*
X30870Y31060D01*
X30858Y31101D01*
X30844Y31139D01*
X30826Y31171D01*
X30812Y31197D01*
X30797Y31217D01*
X30786Y31229D01*
X30783Y31232D01*
X30745Y31264D01*
X30707Y31287D01*
X30666Y31302D01*
X30628Y31313D01*
X30593Y31319D01*
X30567Y31325D01*
D02*
G37*
G36*
X30570Y30490D02*
X30553D01*
X30489Y30484D01*
X30431Y30472D01*
X30378Y30452D01*
X30335Y30432D01*
X30300Y30408D01*
X30273Y30388D01*
X30259Y30376D01*
X30253Y30371D01*
X30212Y30324D01*
X30183Y30275D01*
X30163Y30225D01*
X30148Y30181D01*
X30140Y30138D01*
X30137Y30106D01*
X30134Y30094D01*
Y30085D01*
Y30079D01*
Y30077D01*
X30140Y30016D01*
X30151Y29957D01*
X30172Y29908D01*
X30192Y29867D01*
X30212Y29835D01*
X30233Y29809D01*
X30244Y29794D01*
X30250Y29789D01*
X30297Y29751D01*
X30343Y29722D01*
X30393Y29704D01*
X30439Y29690D01*
X30480Y29681D01*
X30515Y29678D01*
X30527Y29675D01*
X30544D01*
X30585Y29678D01*
X30626Y29684D01*
X30663Y29693D01*
X30695Y29701D01*
X30722Y29710D01*
X30742Y29719D01*
X30754Y29724D01*
X30759Y29727D01*
X30794Y29751D01*
X30823Y29774D01*
X30850Y29800D01*
X30870Y29826D01*
X30887Y29847D01*
X30899Y29864D01*
X30905Y29879D01*
X30908Y29882D01*
X30922Y29919D01*
X30934Y29954D01*
X30943Y29989D01*
X30949Y30021D01*
X30951Y30048D01*
X30954Y30068D01*
Y30079D01*
Y30085D01*
X30949Y30146D01*
X30937Y30202D01*
X30920Y30251D01*
X30896Y30295D01*
X30876Y30327D01*
X30858Y30353D01*
X30847Y30368D01*
X30841Y30373D01*
X30797Y30411D01*
X30748Y30440D01*
X30701Y30461D01*
X30655Y30475D01*
X30614Y30484D01*
X30582Y30487D01*
X30570Y30490D01*
D02*
G37*
G36*
X68053Y105325D02*
X68006D01*
X67977Y105319D01*
X67925Y105305D01*
X67878Y105284D01*
X67838Y105264D01*
X67805Y105241D01*
X67782Y105220D01*
X67768Y105206D01*
X67762Y105203D01*
Y105200D01*
X67724Y105150D01*
X67695Y105095D01*
X67674Y105037D01*
X67663Y104982D01*
X67654Y104935D01*
X67651Y104915D01*
Y104894D01*
X67648Y104880D01*
Y104868D01*
Y104862D01*
Y104859D01*
X67654Y104784D01*
X67666Y104717D01*
X67683Y104662D01*
X67704Y104615D01*
X67727Y104577D01*
X67744Y104551D01*
X67756Y104534D01*
X67762Y104528D01*
X67805Y104487D01*
X67852Y104458D01*
X67899Y104437D01*
X67945Y104423D01*
X67983Y104414D01*
X68015Y104411D01*
X68027Y104408D01*
X68044D01*
X68105Y104414D01*
X68160Y104426D01*
X68210Y104446D01*
X68254Y104470D01*
X68286Y104490D01*
X68312Y104510D01*
X68326Y104522D01*
X68332Y104528D01*
X68370Y104574D01*
X68399Y104627D01*
X68417Y104679D01*
X68431Y104728D01*
X68440Y104772D01*
X68443Y104790D01*
Y104807D01*
X68446Y104822D01*
Y104830D01*
Y104836D01*
Y104839D01*
X68440Y104915D01*
X68428Y104984D01*
X68408Y105046D01*
X68384Y105095D01*
X68364Y105136D01*
X68344Y105165D01*
X68338Y105174D01*
X68332Y105182D01*
X68326Y105185D01*
Y105188D01*
X68303Y105211D01*
X68280Y105235D01*
X68230Y105267D01*
X68181Y105293D01*
X68134Y105307D01*
X68096Y105319D01*
X68064Y105322D01*
X68053Y105325D01*
D02*
G37*
G36*
X70358Y105296D02*
X69723D01*
X69645Y105293D01*
X69578Y105281D01*
X69519Y105267D01*
X69476Y105249D01*
X69438Y105232D01*
X69415Y105217D01*
X69400Y105206D01*
X69394Y105203D01*
X69359Y105165D01*
X69333Y105127D01*
X69316Y105086D01*
X69301Y105051D01*
X69295Y105017D01*
X69292Y104990D01*
X69289Y104973D01*
Y104970D01*
Y104967D01*
X69292Y104932D01*
X69298Y104897D01*
X69307Y104868D01*
X69316Y104842D01*
X69327Y104819D01*
X69336Y104801D01*
X69342Y104790D01*
X69345Y104787D01*
X69365Y104757D01*
X69391Y104731D01*
X69418Y104711D01*
X69444Y104693D01*
X69467Y104682D01*
X69485Y104673D01*
X69496Y104667D01*
X69502Y104664D01*
X69543Y104653D01*
X69589Y104644D01*
X69636Y104638D01*
X69682Y104635D01*
X69723Y104632D01*
X69758Y104630D01*
X70358D01*
Y105296D01*
D02*
G37*
G36*
X52336Y10596D02*
X51702D01*
X51623Y10593D01*
X51556Y10581D01*
X51498Y10567D01*
X51454Y10549D01*
X51416Y10532D01*
X51393Y10517D01*
X51379Y10506D01*
X51373Y10503D01*
X51338Y10465D01*
X51312Y10427D01*
X51294Y10386D01*
X51280Y10351D01*
X51274Y10317D01*
X51271Y10290D01*
X51268Y10273D01*
Y10270D01*
Y10267D01*
X51271Y10232D01*
X51277Y10197D01*
X51285Y10168D01*
X51294Y10142D01*
X51306Y10119D01*
X51315Y10101D01*
X51320Y10090D01*
X51323Y10087D01*
X51344Y10058D01*
X51370Y10031D01*
X51396Y10011D01*
X51422Y9994D01*
X51446Y9982D01*
X51463Y9973D01*
X51475Y9967D01*
X51480Y9965D01*
X51521Y9953D01*
X51568Y9944D01*
X51614Y9938D01*
X51661Y9935D01*
X51702Y9933D01*
X51736Y9929D01*
X52336D01*
Y10596D01*
D02*
G37*
G36*
X48474Y10625D02*
X48457D01*
X48425Y10622D01*
X48393Y10619D01*
X48364Y10610D01*
X48338Y10599D01*
X48288Y10573D01*
X48245Y10544D01*
X48213Y10511D01*
X48186Y10485D01*
X48178Y10474D01*
X48172Y10465D01*
X48166Y10462D01*
Y10459D01*
X48145Y10424D01*
X48128Y10384D01*
X48111Y10337D01*
X48099Y10288D01*
X48087Y10235D01*
X48079Y10180D01*
X48064Y10069D01*
X48058Y10014D01*
X48055Y9965D01*
X48052Y9918D01*
Y9880D01*
X48050Y9845D01*
Y9819D01*
Y9804D01*
Y9802D01*
Y9799D01*
Y9708D01*
X48055Y9627D01*
X48061Y9554D01*
X48067Y9484D01*
X48076Y9426D01*
X48087Y9371D01*
X48099Y9324D01*
X48108Y9281D01*
X48119Y9246D01*
X48131Y9217D01*
X48140Y9190D01*
X48151Y9170D01*
X48157Y9155D01*
X48163Y9147D01*
X48169Y9141D01*
Y9138D01*
X48192Y9109D01*
X48215Y9086D01*
X48239Y9062D01*
X48262Y9045D01*
X48311Y9016D01*
X48355Y8995D01*
X48396Y8984D01*
X48425Y8978D01*
X48436Y8975D01*
X48454D01*
X48486Y8978D01*
X48515Y8981D01*
X48570Y9001D01*
X48620Y9027D01*
X48663Y9057D01*
X48695Y9086D01*
X48722Y9112D01*
X48736Y9132D01*
X48742Y9135D01*
Y9138D01*
X48763Y9173D01*
X48780Y9214D01*
X48797Y9260D01*
X48809Y9310D01*
X48821Y9362D01*
X48829Y9417D01*
X48844Y9531D01*
X48850Y9583D01*
X48853Y9633D01*
X48856Y9679D01*
Y9717D01*
X48858Y9752D01*
Y9778D01*
Y9793D01*
Y9799D01*
X48856Y9889D01*
X48853Y9970D01*
X48847Y10046D01*
X48838Y10116D01*
X48829Y10177D01*
X48818Y10232D01*
X48806Y10282D01*
X48794Y10325D01*
X48783Y10363D01*
X48774Y10395D01*
X48763Y10421D01*
X48754Y10445D01*
X48745Y10459D01*
X48739Y10471D01*
X48733Y10477D01*
Y10480D01*
X48713Y10506D01*
X48693Y10529D01*
X48669Y10547D01*
X48646Y10564D01*
X48599Y10590D01*
X48556Y10608D01*
X48518Y10616D01*
X48486Y10622D01*
X48474Y10625D01*
D02*
G37*
G36*
X76444Y83278D02*
X75810D01*
X75731Y83276D01*
X75664Y83264D01*
X75606Y83249D01*
X75562Y83232D01*
X75524Y83214D01*
X75501Y83200D01*
X75486Y83188D01*
X75481Y83185D01*
X75446Y83148D01*
X75420Y83110D01*
X75402Y83069D01*
X75388Y83034D01*
X75382Y82999D01*
X75379Y82973D01*
X75376Y82955D01*
Y82952D01*
Y82950D01*
X75379Y82915D01*
X75385Y82880D01*
X75393Y82851D01*
X75402Y82824D01*
X75414Y82801D01*
X75423Y82784D01*
X75428Y82772D01*
X75431Y82769D01*
X75452Y82740D01*
X75478Y82714D01*
X75504Y82693D01*
X75530Y82676D01*
X75553Y82664D01*
X75571Y82656D01*
X75582Y82650D01*
X75588Y82647D01*
X75629Y82635D01*
X75676Y82627D01*
X75722Y82621D01*
X75769Y82618D01*
X75810Y82615D01*
X75844Y82612D01*
X76444D01*
Y83278D01*
D02*
G37*
G36*
X62729Y13278D02*
X62094D01*
X62016Y13275D01*
X61949Y13264D01*
X61891Y13249D01*
X61847Y13232D01*
X61809Y13214D01*
X61786Y13200D01*
X61771Y13188D01*
X61765Y13185D01*
X61730Y13148D01*
X61704Y13110D01*
X61687Y13069D01*
X61672Y13034D01*
X61667Y12999D01*
X61664Y12973D01*
X61661Y12955D01*
Y12953D01*
Y12950D01*
X61664Y12915D01*
X61669Y12880D01*
X61678Y12851D01*
X61687Y12824D01*
X61699Y12801D01*
X61707Y12784D01*
X61713Y12772D01*
X61716Y12769D01*
X61736Y12740D01*
X61762Y12714D01*
X61789Y12694D01*
X61815Y12676D01*
X61838Y12664D01*
X61856Y12656D01*
X61867Y12650D01*
X61873Y12647D01*
X61914Y12635D01*
X61960Y12627D01*
X62007Y12621D01*
X62054Y12618D01*
X62094Y12615D01*
X62129Y12612D01*
X62729D01*
Y13278D01*
D02*
G37*
G36*
X79979Y105278D02*
X79344D01*
X79266Y105275D01*
X79199Y105264D01*
X79141Y105249D01*
X79097Y105232D01*
X79059Y105214D01*
X79036Y105200D01*
X79021Y105188D01*
X79016Y105185D01*
X78981Y105148D01*
X78954Y105110D01*
X78937Y105069D01*
X78922Y105034D01*
X78917Y104999D01*
X78914Y104973D01*
X78911Y104955D01*
Y104953D01*
Y104950D01*
X78914Y104915D01*
X78920Y104880D01*
X78928Y104851D01*
X78937Y104824D01*
X78949Y104801D01*
X78957Y104784D01*
X78963Y104772D01*
X78966Y104769D01*
X78987Y104740D01*
X79013Y104714D01*
X79039Y104693D01*
X79065Y104676D01*
X79088Y104664D01*
X79106Y104656D01*
X79117Y104650D01*
X79123Y104647D01*
X79164Y104635D01*
X79211Y104627D01*
X79257Y104621D01*
X79304Y104618D01*
X79344Y104615D01*
X79379Y104612D01*
X79979D01*
Y105278D01*
D02*
G37*
G36*
X75963Y105101D02*
Y104199D01*
X76597D01*
X75963Y105101D01*
D02*
G37*
G36*
X62646Y105296D02*
X62012D01*
X61933Y105293D01*
X61866Y105281D01*
X61808Y105267D01*
X61764Y105249D01*
X61727Y105232D01*
X61703Y105217D01*
X61689Y105206D01*
X61683Y105203D01*
X61648Y105165D01*
X61622Y105127D01*
X61604Y105086D01*
X61590Y105051D01*
X61584Y105017D01*
X61581Y104990D01*
X61578Y104973D01*
Y104970D01*
Y104967D01*
X61581Y104932D01*
X61587Y104897D01*
X61596Y104868D01*
X61604Y104842D01*
X61616Y104819D01*
X61625Y104801D01*
X61630Y104790D01*
X61633Y104787D01*
X61654Y104757D01*
X61680Y104731D01*
X61706Y104711D01*
X61732Y104693D01*
X61756Y104682D01*
X61773Y104673D01*
X61785Y104667D01*
X61791Y104664D01*
X61831Y104653D01*
X61878Y104644D01*
X61924Y104638D01*
X61971Y104635D01*
X62012Y104632D01*
X62047Y104630D01*
X62646D01*
Y105296D01*
D02*
G37*
G36*
X77099Y48779D02*
X76464D01*
X77099Y47877D01*
Y48779D01*
D02*
G37*
%LPD*%
D10*
X136294Y98783D02*
G03*
X136294Y98783I-394J0D01*
G01*
D14*
X95325Y28850D02*
X98475D01*
X95325Y35150D02*
X98475D01*
X99913Y53650D02*
X103063D01*
X99913Y47350D02*
X103063D01*
X60550Y55425D02*
Y58575D01*
X66850Y55425D02*
Y58575D01*
X40223Y36350D02*
X45577D01*
X40223Y42650D02*
X45577D01*
X20739Y52350D02*
X26093D01*
X20739Y58650D02*
X26093D01*
X40223Y27850D02*
X45577D01*
X40223Y34150D02*
X45577D01*
X96823Y37850D02*
X102177D01*
X96823Y44150D02*
X102177D01*
X63050Y91823D02*
Y97177D01*
X56750Y91823D02*
Y97177D01*
X73950Y91823D02*
Y97177D01*
X80250Y91823D02*
Y97177D01*
X71550Y91823D02*
Y97177D01*
X65250Y91823D02*
Y97177D01*
X46823Y12350D02*
X52177D01*
X46823Y18650D02*
X52177D01*
X108837Y74350D02*
X111987D01*
X108837Y80650D02*
X111987D01*
X113850Y43913D02*
Y47063D01*
X120150Y43913D02*
Y47063D01*
X93313Y20650D02*
X96463D01*
X93313Y14350D02*
X96463D01*
X17825Y32350D02*
X20975D01*
X17825Y38650D02*
X20975D01*
X50628Y55425D02*
Y58575D01*
X56927Y55425D02*
Y58575D01*
X17825Y40850D02*
X20975D01*
X17825Y47150D02*
X20975D01*
X92223Y11650D02*
X97577D01*
X92223Y5350D02*
X97577D01*
X75723Y80150D02*
X81077D01*
X75723Y73850D02*
X81077D01*
X57323Y2850D02*
X62677D01*
X57323Y9150D02*
X62677D01*
D15*
X92900Y98500D02*
X94800D01*
X97800D02*
X98900D01*
X97800Y96500D02*
Y100500D01*
X94800D02*
X97800Y98500D01*
X94800Y96500D02*
X97800Y98500D01*
X94800Y96500D02*
Y100500D01*
X22900Y64000D02*
Y68000D01*
Y64000D02*
X25900Y66000D01*
X22900Y68000D02*
X25900Y66000D01*
Y64000D02*
Y68000D01*
Y66000D02*
X27000D01*
X21000D02*
X22900D01*
X42800Y59400D02*
Y61300D01*
Y64300D02*
Y65400D01*
X40800Y64300D02*
X44800D01*
X40800Y61300D02*
X42800Y64300D01*
X44800Y61300D01*
X40800D02*
X44800D01*
D16*
X83892Y104405D02*
X83892Y92594D01*
X86550D01*
X83892Y104405D02*
X86550D01*
X107613Y92594D02*
Y104405D01*
X86550D02*
X107613D01*
X86550Y92594D02*
X107613D01*
X14650Y60094D02*
X35713D01*
X14650Y71905D02*
X35713D01*
Y60094D02*
Y71905D01*
X11992D02*
X14650D01*
X11992Y60094D02*
X14650D01*
X11992Y71905D02*
X11992Y60094D01*
X39258Y53248D02*
X46542D01*
Y56988D01*
Y70472D02*
Y71850D01*
X39258D02*
X46542D01*
X39258Y70807D02*
Y71850D01*
Y53248D02*
Y56988D01*
X46542D02*
Y70472D01*
X39258Y56988D02*
Y70807D01*
D18*
X127454Y19435D02*
X127791Y19322D01*
X127116D01*
X127454Y19435D01*
X127229Y19660D01*
X127116Y19997D01*
Y20222D01*
X127229Y20560D01*
X127454Y20785D01*
X127679Y20897D01*
X128016Y21010D01*
X128578D01*
X128916Y20897D01*
X129141Y20785D01*
X129366Y20560D01*
X129478Y20222D01*
Y19997D01*
X129366Y19660D01*
X129141Y19435D01*
X127116Y20222D02*
X127229Y20447D01*
X127454Y20672D01*
X127679Y20785D01*
X128016Y20897D01*
X128578D01*
X128916Y20785D01*
X129141Y20672D01*
X129366Y20447D01*
X129478Y20222D01*
X128578Y19435D02*
X129478D01*
X128578Y19322D02*
X129478D01*
X128578Y19772D02*
Y18985D01*
X127454Y28535D02*
X127791Y28423D01*
X127116D01*
X127454Y28535D01*
X127229Y28760D01*
X127116Y29097D01*
Y29322D01*
X127229Y29660D01*
X127454Y29885D01*
X127679Y29997D01*
X128016Y30110D01*
X128578D01*
X128916Y29997D01*
X129141Y29885D01*
X129366Y29660D01*
X129478Y29322D01*
Y29097D01*
X129366Y28760D01*
X129141Y28535D01*
X128916Y28423D01*
X127116Y29322D02*
X127229Y29547D01*
X127454Y29772D01*
X127679Y29885D01*
X128016Y29997D01*
X128578D01*
X128916Y29885D01*
X129141Y29772D01*
X129366Y29547D01*
X129478Y29322D01*
X127454Y39847D02*
X127116Y39735D01*
X127791D01*
X127454Y39847D01*
X127229Y40072D01*
X127116Y40410D01*
Y40747D01*
X127229Y41085D01*
X127454Y41309D01*
X127679D01*
X127903Y41197D01*
X128016Y41085D01*
X128128Y40860D01*
X128353Y40185D01*
X128466Y39960D01*
X128691Y39735D01*
X127679Y41309D02*
X127903Y41085D01*
X128016Y40860D01*
X128241Y40185D01*
X128353Y39960D01*
X128466Y39847D01*
X128691Y39735D01*
X129141D01*
X129366Y39960D01*
X129478Y40297D01*
Y40635D01*
X129366Y40972D01*
X129141Y41197D01*
X128803Y41309D01*
X129478D01*
X129141Y41197D01*
X127454Y37812D02*
X127791Y37699D01*
X127116D01*
X127454Y37812D01*
X127229Y38037D01*
X127116Y38374D01*
Y38599D01*
X127229Y38936D01*
X127454Y39162D01*
X127679Y39274D01*
X128016Y39386D01*
X128578D01*
X128916Y39274D01*
X129141Y39162D01*
X129366Y38936D01*
X129478Y38599D01*
Y38374D01*
X129366Y38037D01*
X129141Y37812D01*
X127116Y38599D02*
X127229Y38824D01*
X127454Y39049D01*
X127679Y39162D01*
X128016Y39274D01*
X128578D01*
X128916Y39162D01*
X129141Y39049D01*
X129366Y38824D01*
X129478Y38599D01*
X128578Y37812D02*
X129478D01*
X128578Y37699D02*
X129478D01*
X128578Y38149D02*
Y37362D01*
X127116Y36721D02*
X129478D01*
X127116Y36609D02*
X129253Y35259D01*
X127341Y36609D02*
X129478Y35259D01*
X127116D02*
X129478D01*
X127116Y37058D02*
Y36609D01*
Y35596D02*
Y34922D01*
X129478Y37058D02*
Y36384D01*
X127116Y34292D02*
X129478D01*
X127116Y34179D02*
X129478D01*
X127116Y34629D02*
Y33505D01*
X127229Y33167D01*
X127454Y32942D01*
X127679Y32830D01*
X128016Y32717D01*
X128578D01*
X128916Y32830D01*
X129141Y32942D01*
X129366Y33167D01*
X129478Y33505D01*
Y34629D01*
X127116Y33505D02*
X127229Y33280D01*
X127454Y33055D01*
X127679Y32942D01*
X128016Y32830D01*
X128578D01*
X128916Y32942D01*
X129141Y33055D01*
X129366Y33280D01*
X129478Y33505D01*
X127116Y51218D02*
X129478D01*
X127116Y51105D02*
X129478D01*
X127116Y51555D02*
Y50206D01*
X127229Y49868D01*
X127341Y49756D01*
X127566Y49643D01*
X127903D01*
X128128Y49756D01*
X128241Y49868D01*
X128353Y50206D01*
Y51105D01*
X127116Y50206D02*
X127229Y49981D01*
X127341Y49868D01*
X127566Y49756D01*
X127903D01*
X128128Y49868D01*
X128241Y49981D01*
X128353Y50206D01*
X129478Y51555D02*
Y50768D01*
X127116Y48991D02*
X129478Y48541D01*
X127116Y48879D02*
X128916Y48541D01*
X127116Y48092D02*
X129478Y48541D01*
X127116Y48092D02*
X129478Y47642D01*
X127116Y47979D02*
X128916Y47642D01*
X127116Y47192D02*
X129478Y47642D01*
X127116Y49329D02*
Y48541D01*
Y47529D02*
Y46854D01*
Y46258D02*
X129478D01*
X127116Y46146D02*
X129141Y45471D01*
X127116Y46258D02*
X129478Y45471D01*
X127116Y44684D02*
X129478Y45471D01*
X127116Y44684D02*
X129478D01*
X127116Y44571D02*
X129478D01*
X127116Y46596D02*
Y46146D01*
Y44684D02*
Y44234D01*
X129478Y46596D02*
Y45921D01*
Y45021D02*
Y44234D01*
X127454Y61435D02*
X127791Y61323D01*
X127116D01*
X127454Y61435D01*
X127229Y61660D01*
X127116Y61997D01*
Y62222D01*
X127229Y62560D01*
X127454Y62785D01*
X127679Y62897D01*
X128016Y63010D01*
X128578D01*
X128916Y62897D01*
X129141Y62785D01*
X129366Y62560D01*
X129478Y62222D01*
Y61997D01*
X129366Y61660D01*
X129141Y61435D01*
X127116Y62222D02*
X127229Y62447D01*
X127454Y62672D01*
X127679Y62785D01*
X128016Y62897D01*
X128578D01*
X128916Y62785D01*
X129141Y62672D01*
X129366Y62447D01*
X129478Y62222D01*
X128578Y61435D02*
X129478D01*
X128578Y61323D02*
X129478D01*
X128578Y61772D02*
Y60985D01*
X127116Y60344D02*
X129478D01*
X127116Y60232D02*
X129253Y58882D01*
X127341Y60232D02*
X129478Y58882D01*
X127116D02*
X129478D01*
X127116Y60681D02*
Y60232D01*
Y59219D02*
Y58545D01*
X129478Y60681D02*
Y60007D01*
X127116Y57915D02*
X129478D01*
X127116Y57802D02*
X129478D01*
X127116Y58252D02*
Y57128D01*
X127229Y56790D01*
X127454Y56565D01*
X127679Y56453D01*
X128016Y56340D01*
X128578D01*
X128916Y56453D01*
X129141Y56565D01*
X129366Y56790D01*
X129478Y57128D01*
Y58252D01*
X127116Y57128D02*
X127229Y56903D01*
X127454Y56678D01*
X127679Y56565D01*
X128016Y56453D01*
X128578D01*
X128916Y56565D01*
X129141Y56678D01*
X129366Y56903D01*
X129478Y57128D01*
X127116Y55688D02*
X129478D01*
X127116Y55576D02*
X129478D01*
X127116Y54114D02*
X128578Y55576D01*
X128128Y55014D02*
X129478Y54114D01*
X128128Y55126D02*
X129478Y54226D01*
X127116Y56026D02*
Y55238D01*
Y54564D02*
Y53889D01*
X129478Y56026D02*
Y55238D01*
Y54564D02*
Y53889D01*
X127116Y69672D02*
X129478D01*
X127116Y69560D02*
X129478D01*
X127791Y68885D02*
X128691D01*
X127116Y70009D02*
Y68210D01*
X127791D01*
X127116Y68322D01*
X128241Y69560D02*
Y68885D01*
X129478Y70009D02*
Y69222D01*
X127116Y81784D02*
X129478Y80997D01*
X127116Y81672D02*
X129141Y80997D01*
X127116Y80210D02*
X129478Y80997D01*
X127116Y82010D02*
Y81335D01*
Y80660D02*
Y79985D01*
X127454Y78107D02*
X127791Y77995D01*
X127116D01*
X127454Y78107D01*
X127229Y78332D01*
X127116Y78669D01*
Y78894D01*
X127229Y79232D01*
X127454Y79457D01*
X127679Y79569D01*
X128016Y79681D01*
X128578D01*
X128916Y79569D01*
X129141Y79457D01*
X129366Y79232D01*
X129478Y78894D01*
Y78669D01*
X129366Y78332D01*
X129141Y78107D01*
X128916Y77995D01*
X127116Y78894D02*
X127229Y79119D01*
X127454Y79344D01*
X127679Y79457D01*
X128016Y79569D01*
X128578D01*
X128916Y79457D01*
X129141Y79344D01*
X129366Y79119D01*
X129478Y78894D01*
X127454Y76083D02*
X127791Y75970D01*
X127116D01*
X127454Y76083D01*
X127229Y76308D01*
X127116Y76645D01*
Y76870D01*
X127229Y77207D01*
X127454Y77432D01*
X127679Y77545D01*
X128016Y77657D01*
X128578D01*
X128916Y77545D01*
X129141Y77432D01*
X129366Y77207D01*
X129478Y76870D01*
Y76645D01*
X129366Y76308D01*
X129141Y76083D01*
X128916Y75970D01*
X127116Y76870D02*
X127229Y77095D01*
X127454Y77320D01*
X127679Y77432D01*
X128016Y77545D01*
X128578D01*
X128916Y77432D01*
X129141Y77320D01*
X129366Y77095D01*
X129478Y76870D01*
X127903Y93272D02*
X129141D01*
X129366Y93160D01*
X129478Y92822D01*
Y92597D01*
X129366Y92260D01*
X129141Y92035D01*
X127903Y93160D02*
X129141D01*
X129366Y93047D01*
X129478Y92822D01*
X127903Y92035D02*
X129478D01*
X127903Y91923D02*
X129478D01*
X127903Y93609D02*
Y93160D01*
Y92372D02*
Y91923D01*
X129478Y92035D02*
Y91585D01*
X127454Y89707D02*
X127791Y89595D01*
X127116D01*
X127454Y89707D01*
X127229Y89932D01*
X127116Y90269D01*
Y90494D01*
X127229Y90832D01*
X127454Y91057D01*
X127679Y91169D01*
X128016Y91281D01*
X128578D01*
X128916Y91169D01*
X129141Y91057D01*
X129366Y90832D01*
X129478Y90494D01*
Y90269D01*
X129366Y89932D01*
X129141Y89707D01*
X127116Y90494D02*
X127229Y90719D01*
X127454Y90944D01*
X127679Y91057D01*
X128016Y91169D01*
X128578D01*
X128916Y91057D01*
X129141Y90944D01*
X129366Y90719D01*
X129478Y90494D01*
X128578Y89707D02*
X129478D01*
X128578Y89595D02*
X129478D01*
X128578Y90044D02*
Y89257D01*
X127116Y88616D02*
X129478D01*
X127116Y88504D02*
X129253Y87154D01*
X127341Y88504D02*
X129478Y87154D01*
X127116D02*
X129478D01*
X127116Y88954D02*
Y88504D01*
Y87492D02*
Y86817D01*
X129478Y88954D02*
Y88279D01*
X127116Y86187D02*
X129478D01*
X127116Y86075D02*
X129478D01*
X127116Y86524D02*
Y85400D01*
X127229Y85062D01*
X127454Y84838D01*
X127679Y84725D01*
X128016Y84613D01*
X128578D01*
X128916Y84725D01*
X129141Y84838D01*
X129366Y85062D01*
X129478Y85400D01*
Y86524D01*
X127116Y85400D02*
X127229Y85175D01*
X127454Y84950D01*
X127679Y84838D01*
X128016Y84725D01*
X128578D01*
X128916Y84838D01*
X129141Y84950D01*
X129366Y85175D01*
X129478Y85400D01*
D73*
X59006Y46358D02*
X68652D01*
X59006Y28642D02*
X68652D01*
Y32579D01*
Y42421D02*
Y46358D01*
M02*
