G04*
G04 #@! TF.GenerationSoftware,Altium Limited,Altium Designer,22.5.1 (42)*
G04*
G04 Layer_Color=128*
%FSLAX25Y25*%
%MOIN*%
G70*
G04*
G04 #@! TF.SameCoordinates,0C7ABF94-C2AC-4CB0-9C94-541A5C69193A*
G04*
G04*
G04 #@! TF.FilePolarity,Positive*
G04*
G01*
G75*
%ADD22R,0.06299X0.07087*%
G04:AMPARAMS|DCode=23|XSize=59.06mil|YSize=70.87mil|CornerRadius=7.38mil|HoleSize=0mil|Usage=FLASHONLY|Rotation=0.000|XOffset=0mil|YOffset=0mil|HoleType=Round|Shape=RoundedRectangle|*
%AMROUNDEDRECTD23*
21,1,0.05906,0.05610,0,0,0.0*
21,1,0.04429,0.07087,0,0,0.0*
1,1,0.01476,0.02215,-0.02805*
1,1,0.01476,-0.02215,-0.02805*
1,1,0.01476,-0.02215,0.02805*
1,1,0.01476,0.02215,0.02805*
%
%ADD23ROUNDEDRECTD23*%
%ADD24R,0.04173X0.07165*%
%ADD60R,0.03937X0.05906*%
%ADD61R,0.04724X0.03150*%
%ADD63R,0.09843X0.07874*%
%ADD64R,0.07087X0.06299*%
%ADD65R,0.03701X0.04016*%
%ADD66R,0.07165X0.04173*%
G36*
X54859Y39075D02*
Y35923D01*
X59597D01*
Y39075D01*
X54859D01*
D02*
G37*
G36*
X87636Y48842D02*
Y57504D01*
X85274Y59866D01*
Y66953D01*
X81337D01*
Y59866D01*
X78975Y57504D01*
Y48842D01*
X82518Y45299D01*
X84093D01*
X87636Y48842D01*
D02*
G37*
D22*
X91388Y32000D02*
D03*
X102412D02*
D03*
X107000Y50500D02*
D03*
X95976D02*
D03*
X104900Y77500D02*
D03*
X115924D02*
D03*
X100400Y17500D02*
D03*
X89376D02*
D03*
X13888Y35500D02*
D03*
X24912D02*
D03*
X13888Y44000D02*
D03*
X24912D02*
D03*
D23*
X103577Y98500D02*
D03*
X88223D02*
D03*
X16323Y66000D02*
D03*
X31677D02*
D03*
D24*
X36884Y39500D02*
D03*
X48916D02*
D03*
X17400Y55500D02*
D03*
X29432D02*
D03*
X36884Y31000D02*
D03*
X48916D02*
D03*
X93484Y41000D02*
D03*
X105516D02*
D03*
X43484Y15500D02*
D03*
X55516D02*
D03*
X100916Y8500D02*
D03*
X88884D02*
D03*
X84416Y77000D02*
D03*
X72384D02*
D03*
X53984Y6000D02*
D03*
X66016D02*
D03*
D60*
X89211Y64000D02*
D03*
X77400D02*
D03*
D61*
X57235Y31594D02*
D03*
Y43406D02*
D03*
D63*
X68889Y37500D02*
D03*
D64*
X63700Y62512D02*
D03*
Y51488D02*
D03*
X117000Y51000D02*
D03*
Y39976D02*
D03*
X53777Y62512D02*
D03*
Y51488D02*
D03*
D65*
X42900Y56201D02*
D03*
Y68799D02*
D03*
D66*
X59900Y88484D02*
D03*
Y100516D02*
D03*
X77100D02*
D03*
Y88484D02*
D03*
X68400D02*
D03*
Y100516D02*
D03*
M02*
