G04*
G04 #@! TF.GenerationSoftware,Altium Limited,Altium Designer,22.5.1 (42)*
G04*
G04 Layer_Color=255*
%FSLAX25Y25*%
%MOIN*%
G70*
G04*
G04 #@! TF.SameCoordinates,0C7ABF94-C2AC-4CB0-9C94-541A5C69193A*
G04*
G04*
G04 #@! TF.FilePolarity,Positive*
G04*
G01*
G75*
%ADD19R,0.08189X0.15000*%
%ADD20R,0.02200X0.07800*%
%ADD21R,0.06299X0.11811*%
%ADD22R,0.06299X0.07087*%
G04:AMPARAMS|DCode=23|XSize=59.06mil|YSize=70.87mil|CornerRadius=7.38mil|HoleSize=0mil|Usage=FLASHONLY|Rotation=0.000|XOffset=0mil|YOffset=0mil|HoleType=Round|Shape=RoundedRectangle|*
%AMROUNDEDRECTD23*
21,1,0.05906,0.05610,0,0,0.0*
21,1,0.04429,0.07087,0,0,0.0*
1,1,0.01476,0.02215,-0.02805*
1,1,0.01476,-0.02215,-0.02805*
1,1,0.01476,-0.02215,0.02805*
1,1,0.01476,0.02215,0.02805*
%
%ADD23ROUNDEDRECTD23*%
%ADD24R,0.04173X0.07165*%
%ADD25O,0.03150X0.09449*%
%ADD26R,0.03150X0.09449*%
G04:AMPARAMS|DCode=27|XSize=83.86mil|YSize=61.81mil|CornerRadius=15.45mil|HoleSize=0mil|Usage=FLASHONLY|Rotation=270.000|XOffset=0mil|YOffset=0mil|HoleType=Round|Shape=RoundedRectangle|*
%AMROUNDEDRECTD27*
21,1,0.08386,0.03091,0,0,270.0*
21,1,0.05295,0.06181,0,0,270.0*
1,1,0.03091,-0.01545,-0.02648*
1,1,0.03091,-0.01545,0.02648*
1,1,0.03091,0.01545,0.02648*
1,1,0.03091,0.01545,-0.02648*
%
%ADD27ROUNDEDRECTD27*%
%ADD47R,0.45000X0.35000*%
G04:AMPARAMS|DCode=51|XSize=118.11mil|YSize=118.11mil|CornerRadius=29.53mil|HoleSize=0mil|Usage=FLASHONLY|Rotation=0.000|XOffset=0mil|YOffset=0mil|HoleType=Round|Shape=RoundedRectangle|*
%AMROUNDEDRECTD51*
21,1,0.11811,0.05906,0,0,0.0*
21,1,0.05906,0.11811,0,0,0.0*
1,1,0.05906,0.02953,-0.02953*
1,1,0.05906,-0.02953,-0.02953*
1,1,0.05906,-0.02953,0.02953*
1,1,0.05906,0.02953,0.02953*
%
%ADD51ROUNDEDRECTD51*%
%ADD52C,0.11811*%
%ADD53O,0.07874X0.07087*%
%ADD54R,0.07874X0.07087*%
%ADD55C,0.07874*%
D19*
X14000Y51500D02*
D03*
X34000D02*
D03*
D20*
X63900Y66200D02*
D03*
X58900D02*
D03*
X53900D02*
D03*
X48900D02*
D03*
Y46800D02*
D03*
X53900D02*
D03*
X58900D02*
D03*
X63900D02*
D03*
D21*
X111500Y108000D02*
D03*
Y90677D02*
D03*
X52900Y25161D02*
D03*
Y7839D02*
D03*
D22*
X83012Y62500D02*
D03*
X71988D02*
D03*
X26488Y38500D02*
D03*
X37512D02*
D03*
D23*
X97223Y15000D02*
D03*
X112577D02*
D03*
D24*
X110916Y5500D02*
D03*
X98884D02*
D03*
X112884Y77000D02*
D03*
X124916D02*
D03*
X72884Y72000D02*
D03*
X84916D02*
D03*
X82916Y53500D02*
D03*
X70884D02*
D03*
X18516Y38500D02*
D03*
X6484D02*
D03*
D25*
X124900Y65000D02*
D03*
X119900D02*
D03*
X114900D02*
D03*
X109900D02*
D03*
X104900D02*
D03*
X99900D02*
D03*
X94900D02*
D03*
X89900D02*
D03*
X124900Y27717D02*
D03*
X119900D02*
D03*
X114900D02*
D03*
X109900D02*
D03*
X104900D02*
D03*
X99900D02*
D03*
X94900D02*
D03*
D26*
X89900D02*
D03*
D27*
X79900Y5610D02*
D03*
X69900D02*
D03*
Y39390D02*
D03*
X79900D02*
D03*
D47*
X24000Y96500D02*
D03*
D51*
X10558Y15728D02*
D03*
D52*
X30242D02*
D03*
D53*
X135900Y31500D02*
D03*
Y41500D02*
D03*
X145900Y31500D02*
D03*
Y41500D02*
D03*
X135900Y71500D02*
D03*
Y61500D02*
D03*
X145900D02*
D03*
Y71500D02*
D03*
Y21500D02*
D03*
X135900D02*
D03*
Y51500D02*
D03*
X145900D02*
D03*
Y81500D02*
D03*
X135900D02*
D03*
X145900Y91500D02*
D03*
D54*
X135900D02*
D03*
D55*
X92000Y110000D02*
D03*
X52632Y110012D02*
D03*
X91908Y78536D02*
D03*
X52483Y78517D02*
D03*
M02*
