G04*
G04 #@! TF.GenerationSoftware,Altium Limited,Altium Designer,22.5.1 (42)*
G04*
G04 Layer_Physical_Order=2*
G04 Layer_Color=16711680*
%FSLAX25Y25*%
%MOIN*%
G70*
G04*
G04 #@! TF.SameCoordinates,0C7ABF94-C2AC-4CB0-9C94-541A5C69193A*
G04*
G04*
G04 #@! TF.FilePolarity,Positive*
G04*
G01*
G75*
%ADD22R,0.06299X0.07087*%
G04:AMPARAMS|DCode=23|XSize=59.06mil|YSize=70.87mil|CornerRadius=7.38mil|HoleSize=0mil|Usage=FLASHONLY|Rotation=0.000|XOffset=0mil|YOffset=0mil|HoleType=Round|Shape=RoundedRectangle|*
%AMROUNDEDRECTD23*
21,1,0.05906,0.05610,0,0,0.0*
21,1,0.04429,0.07087,0,0,0.0*
1,1,0.01476,0.02215,-0.02805*
1,1,0.01476,-0.02215,-0.02805*
1,1,0.01476,-0.02215,0.02805*
1,1,0.01476,0.02215,0.02805*
%
%ADD23ROUNDEDRECTD23*%
%ADD24R,0.04173X0.07165*%
%ADD48C,0.02000*%
%ADD49C,0.03000*%
%ADD50C,0.01600*%
G04:AMPARAMS|DCode=51|XSize=118.11mil|YSize=118.11mil|CornerRadius=29.53mil|HoleSize=0mil|Usage=FLASHONLY|Rotation=0.000|XOffset=0mil|YOffset=0mil|HoleType=Round|Shape=RoundedRectangle|*
%AMROUNDEDRECTD51*
21,1,0.11811,0.05906,0,0,0.0*
21,1,0.05906,0.11811,0,0,0.0*
1,1,0.05906,0.02953,-0.02953*
1,1,0.05906,-0.02953,-0.02953*
1,1,0.05906,-0.02953,0.02953*
1,1,0.05906,0.02953,0.02953*
%
%ADD51ROUNDEDRECTD51*%
%ADD52C,0.11811*%
%ADD53O,0.07874X0.07087*%
%ADD54R,0.07874X0.07087*%
%ADD55C,0.07874*%
%ADD56C,0.03000*%
%ADD57C,0.06000*%
%ADD58C,0.05000*%
%ADD59C,0.04000*%
%ADD60R,0.03937X0.05906*%
%ADD61R,0.04724X0.03150*%
%ADD62R,0.09055X0.03150*%
%ADD63R,0.09843X0.07874*%
%ADD64R,0.07087X0.06299*%
%ADD65R,0.03701X0.04016*%
%ADD66R,0.07165X0.04173*%
G36*
X109168Y107874D02*
X107761Y107861D01*
Y109861D01*
X109057Y109871D01*
X109168Y107874D01*
D02*
G37*
G36*
X91765Y106070D02*
X91522Y106066D01*
X91268Y106026D01*
X91004Y105950D01*
X90728Y105838D01*
X90442Y105690D01*
X90144Y105505D01*
X89835Y105285D01*
X89516Y105028D01*
X88844Y104407D01*
X87430Y105821D01*
X87706Y106112D01*
X87942Y106395D01*
X88139Y106670D01*
X88297Y106936D01*
X88416Y107194D01*
X88495Y107444D01*
X88536Y107686D01*
X88537Y107919D01*
X88498Y108144D01*
X88420Y108361D01*
X91765Y106070D01*
D02*
G37*
G36*
X55130Y106969D02*
X54925Y106772D01*
X54741Y106534D01*
X54579Y106257D01*
X54439Y105939D01*
X54320Y105581D01*
X54222Y105183D01*
X54147Y104745D01*
X54093Y104267D01*
X54050Y103190D01*
X51050Y103258D01*
X51039Y103816D01*
X50956Y104815D01*
X50883Y105256D01*
X50789Y105657D01*
X50675Y106019D01*
X50540Y106343D01*
X50384Y106626D01*
X50207Y106871D01*
X50009Y107077D01*
X55130Y106969D01*
D02*
G37*
G36*
X104587Y103663D02*
X104617Y103321D01*
X104667Y103019D01*
X104737Y102758D01*
X104827Y102536D01*
X104937Y102355D01*
X105067Y102215D01*
X105217Y102114D01*
X105387Y102054D01*
X105577Y102033D01*
X101577D01*
X101767Y102054D01*
X101937Y102114D01*
X102087Y102215D01*
X102217Y102355D01*
X102327Y102536D01*
X102417Y102758D01*
X102487Y103019D01*
X102537Y103321D01*
X102567Y103663D01*
X102577Y104045D01*
X104577D01*
X104587Y103663D01*
D02*
G37*
G36*
X89147D02*
X89177Y103321D01*
X89227Y103019D01*
X89297Y102758D01*
X89387Y102536D01*
X89497Y102355D01*
X89627Y102215D01*
X89777Y102114D01*
X89947Y102054D01*
X90137Y102033D01*
X86137D01*
X86327Y102054D01*
X86497Y102114D01*
X86647Y102215D01*
X86777Y102355D01*
X86887Y102536D01*
X86977Y102758D01*
X87047Y103019D01*
X87097Y103321D01*
X87127Y103663D01*
X87137Y104045D01*
X89137D01*
X89147Y103663D01*
D02*
G37*
G36*
X59158Y98453D02*
X59003Y98565D01*
X58820Y98620D01*
X58609Y98619D01*
X58369Y98562D01*
X58100Y98447D01*
X57803Y98276D01*
X57477Y98049D01*
X57123Y97765D01*
X56329Y97027D01*
X54915Y98441D01*
X55312Y98852D01*
X55937Y99589D01*
X56164Y99915D01*
X56335Y100212D01*
X56450Y100480D01*
X56507Y100721D01*
X56509Y100932D01*
X56453Y101115D01*
X56341Y101270D01*
X59158Y98453D01*
D02*
G37*
G36*
X69425Y91751D02*
X69445Y91498D01*
X69479Y91275D01*
X69526Y91082D01*
X69586Y90919D01*
X69661Y90785D01*
X69749Y90681D01*
X69850Y90606D01*
X69964Y90562D01*
X70093Y90547D01*
X67143D01*
X67271Y90562D01*
X67386Y90606D01*
X67487Y90681D01*
X67575Y90785D01*
X67649Y90919D01*
X67710Y91082D01*
X67757Y91275D01*
X67791Y91498D01*
X67811Y91751D01*
X67818Y92034D01*
X69418D01*
X69425Y91751D01*
D02*
G37*
G36*
X139833Y93310D02*
X139893Y93140D01*
X139994Y92990D01*
X140135Y92860D01*
X140316Y92750D01*
X140537Y92660D01*
X140799Y92590D01*
X141020Y92553D01*
X141379Y92589D01*
X141700Y92659D01*
X141971Y92748D01*
X142194Y92857D01*
X142366Y92986D01*
X142490Y93135D01*
X142564Y93304D01*
X142589Y93492D01*
Y89508D01*
X142564Y89696D01*
X142490Y89865D01*
X142366Y90014D01*
X142194Y90143D01*
X141971Y90252D01*
X141700Y90341D01*
X141379Y90411D01*
X141060Y90453D01*
X140799Y90410D01*
X140537Y90340D01*
X140316Y90250D01*
X140135Y90140D01*
X139994Y90010D01*
X139893Y89860D01*
X139833Y89690D01*
X139813Y89500D01*
Y93500D01*
X139833Y93310D01*
D02*
G37*
G36*
X46500Y111000D02*
Y104500D01*
X29500Y87500D01*
X1500D01*
Y114000D01*
X43500D01*
X46500Y111000D01*
D02*
G37*
G36*
X75765Y86405D02*
X75629Y86356D01*
X75509Y86275D01*
X75405Y86162D01*
X75317Y86017D01*
X75245Y85839D01*
X75189Y85630D01*
X75149Y85389D01*
X75125Y85115D01*
X75117Y84810D01*
X73517D01*
X73529Y86410D01*
X75917Y86422D01*
X75765Y86405D01*
D02*
G37*
G36*
X67065D02*
X66929Y86356D01*
X66809Y86275D01*
X66705Y86162D01*
X66617Y86017D01*
X66545Y85839D01*
X66489Y85630D01*
X66449Y85389D01*
X66425Y85115D01*
X66417Y84810D01*
X64817D01*
X64829Y86410D01*
X67217Y86422D01*
X67065Y86405D01*
D02*
G37*
G36*
X61548Y86405D02*
X61412Y86357D01*
X61292Y86277D01*
X61188Y86164D01*
X61100Y86019D01*
X61028Y85841D01*
X60972Y85632D01*
X60932Y85390D01*
X60908Y85116D01*
X60900Y84810D01*
X59300D01*
X59292Y85116D01*
X59268Y85390D01*
X59228Y85632D01*
X59172Y85841D01*
X59100Y86019D01*
X59012Y86164D01*
X58908Y86277D01*
X58788Y86357D01*
X58652Y86405D01*
X58500Y86422D01*
X61700D01*
X61548Y86405D01*
D02*
G37*
G36*
X114510Y87763D02*
X114546Y87547D01*
X114607Y87327D01*
X114693Y87103D01*
X114805Y86874D01*
X114942Y86642D01*
X115104Y86406D01*
X115291Y86165D01*
X115504Y85921D01*
X115742Y85673D01*
X114327Y84259D01*
X114079Y84496D01*
X113594Y84896D01*
X113358Y85058D01*
X113126Y85195D01*
X112897Y85307D01*
X112673Y85393D01*
X112453Y85454D01*
X112237Y85490D01*
X112025Y85500D01*
X114500Y87975D01*
X114510Y87763D01*
D02*
G37*
G36*
X60903Y84247D02*
X60940Y83692D01*
X60962Y83543D01*
X60990Y83412D01*
X61023Y83300D01*
X61060Y83205D01*
X61102Y83129D01*
X61150Y83071D01*
X59050D01*
X59097Y83129D01*
X59140Y83205D01*
X59178Y83300D01*
X59210Y83412D01*
X59237Y83543D01*
X59260Y83692D01*
X59290Y84044D01*
X59300Y84469D01*
X60900D01*
X60903Y84247D01*
D02*
G37*
G36*
X142589Y79508D02*
X142564Y79696D01*
X142490Y79865D01*
X142366Y80014D01*
X142194Y80143D01*
X141971Y80252D01*
X141700Y80341D01*
X141379Y80411D01*
X141008Y80460D01*
X140954Y80464D01*
X140421Y80411D01*
X140100Y80341D01*
X139829Y80252D01*
X139606Y80143D01*
X139434Y80014D01*
X139310Y79865D01*
X139236Y79696D01*
X139211Y79508D01*
Y83492D01*
X139236Y83304D01*
X139310Y83135D01*
X139434Y82986D01*
X139606Y82857D01*
X139829Y82748D01*
X140100Y82659D01*
X140421Y82589D01*
X140792Y82540D01*
X140846Y82536D01*
X141379Y82589D01*
X141700Y82659D01*
X141971Y82748D01*
X142194Y82857D01*
X142366Y82986D01*
X142490Y83135D01*
X142564Y83304D01*
X142589Y83492D01*
Y79508D01*
D02*
G37*
G36*
X116934Y82649D02*
X116964Y82307D01*
X117014Y82005D01*
X117084Y81744D01*
X117174Y81522D01*
X117284Y81341D01*
X117414Y81200D01*
X117564Y81100D01*
X117734Y81039D01*
X117924Y81019D01*
X113924D01*
X114114Y81039D01*
X114284Y81100D01*
X114434Y81200D01*
X114564Y81341D01*
X114674Y81522D01*
X114764Y81744D01*
X114834Y82005D01*
X114884Y82307D01*
X114914Y82649D01*
X114924Y83031D01*
X116924D01*
X116934Y82649D01*
D02*
G37*
G36*
X79970Y81302D02*
X79349Y80535D01*
X77338Y81352D01*
X77498Y81514D01*
X78086Y82187D01*
X78122Y82250D01*
X78140Y82299D01*
X78141Y82334D01*
X79970Y81302D01*
D02*
G37*
G36*
X61141Y80907D02*
X61132Y80863D01*
X61124Y80796D01*
X61108Y80456D01*
X61100Y79682D01*
X59100D01*
X59050Y80929D01*
X61150D01*
X61141Y80907D01*
D02*
G37*
G36*
X132589Y79508D02*
X132564Y79696D01*
X132490Y79865D01*
X132366Y80014D01*
X132194Y80143D01*
X131971Y80252D01*
X131700Y80341D01*
X131379Y80411D01*
X131008Y80460D01*
X130589Y80490D01*
X130119Y80500D01*
Y82500D01*
X130589Y82510D01*
X131379Y82589D01*
X131700Y82659D01*
X131971Y82748D01*
X132194Y82857D01*
X132366Y82986D01*
X132490Y83135D01*
X132564Y83304D01*
X132589Y83492D01*
Y79508D01*
D02*
G37*
G36*
X76459Y78583D02*
X76077Y78573D01*
X75736Y78543D01*
X75434Y78493D01*
X75173Y78423D01*
X74952Y78333D01*
X74771Y78223D01*
X74630Y78093D01*
X74529Y77943D01*
X74468Y77773D01*
X74447Y77583D01*
X74459Y80571D01*
X76459Y80583D01*
Y78583D01*
D02*
G37*
G36*
X116197Y73969D02*
X116008Y74049D01*
X115783Y74063D01*
X115521Y74014D01*
X115222Y73899D01*
X114887Y73719D01*
X114515Y73475D01*
X114107Y73165D01*
X113180Y72351D01*
X112662Y71847D01*
X111372Y73386D01*
X111794Y73822D01*
X112451Y74593D01*
X112686Y74927D01*
X112859Y75227D01*
X112969Y75492D01*
X113017Y75724D01*
X113002Y75922D01*
X112925Y76085D01*
X112786Y76214D01*
X116197Y73969D01*
D02*
G37*
G36*
X142589Y69508D02*
X142564Y69696D01*
X142490Y69865D01*
X142366Y70014D01*
X142194Y70143D01*
X141971Y70252D01*
X141700Y70341D01*
X141379Y70411D01*
X141008Y70460D01*
X140954Y70464D01*
X140421Y70411D01*
X140100Y70341D01*
X139829Y70252D01*
X139606Y70143D01*
X139434Y70014D01*
X139310Y69865D01*
X139236Y69696D01*
X139211Y69508D01*
Y73492D01*
X139236Y73304D01*
X139310Y73135D01*
X139434Y72986D01*
X139606Y72857D01*
X139829Y72748D01*
X140100Y72659D01*
X140421Y72589D01*
X140792Y72540D01*
X140846Y72536D01*
X141379Y72589D01*
X141700Y72659D01*
X141971Y72748D01*
X142194Y72857D01*
X142366Y72986D01*
X142490Y73135D01*
X142564Y73304D01*
X142589Y73492D01*
Y69508D01*
D02*
G37*
G36*
X86490Y73429D02*
X86493Y73413D01*
X86495Y73365D01*
X86502Y71829D01*
X84902D01*
X84894Y72135D01*
X84870Y72408D01*
X84830Y72650D01*
X84774Y72859D01*
X84702Y73036D01*
X84614Y73181D01*
X84510Y73295D01*
X84390Y73376D01*
X84254Y73425D01*
X84102Y73441D01*
X86490Y73429D01*
D02*
G37*
G36*
X61311Y70080D02*
X61157Y69922D01*
X60790Y69502D01*
X60701Y69381D01*
X60628Y69269D01*
X60571Y69167D01*
X60531Y69074D01*
X60507Y68990D01*
X60500Y68915D01*
X59015Y70400D01*
X59090Y70407D01*
X59174Y70431D01*
X59267Y70472D01*
X59369Y70528D01*
X59481Y70601D01*
X59602Y70690D01*
X59873Y70918D01*
X60180Y71211D01*
X61311Y70080D01*
D02*
G37*
G36*
X74991Y70263D02*
X75014Y70217D01*
X75053Y70157D01*
X75110Y70082D01*
X75276Y69889D01*
X75814Y69330D01*
X74151Y68165D01*
X73324Y69010D01*
X74986Y70294D01*
X74991Y70263D01*
D02*
G37*
G36*
X135165Y67997D02*
X135002Y68102D01*
X134820Y68158D01*
X134617Y68165D01*
X134394Y68125D01*
X134150Y68035D01*
X133886Y67898D01*
X133602Y67712D01*
X133298Y67478D01*
X132973Y67195D01*
X132628Y66864D01*
X131110Y68174D01*
X131437Y68515D01*
X131939Y69130D01*
X132115Y69404D01*
X132240Y69656D01*
X132314Y69885D01*
X132338Y70092D01*
X132312Y70276D01*
X132235Y70439D01*
X132108Y70579D01*
X135165Y67997D01*
D02*
G37*
G36*
X65393Y69483D02*
X65463Y69430D01*
X65552Y69384D01*
X65660Y69344D01*
X65787Y69310D01*
X65932Y69282D01*
X66097Y69260D01*
X66482Y69235D01*
X66702Y69232D01*
X66353Y67632D01*
X66130Y67631D01*
X65295Y67576D01*
X65184Y67555D01*
X65093Y67532D01*
X65020Y67505D01*
X64966Y67476D01*
X65342Y69542D01*
X65393Y69483D01*
D02*
G37*
G36*
X89594Y68133D02*
X89614Y67880D01*
X89648Y67657D01*
X89695Y67464D01*
X89756Y67300D01*
X89830Y67167D01*
X89917Y67063D01*
X90019Y66988D01*
X90133Y66944D01*
X90262Y66929D01*
X87312D01*
X87440Y66944D01*
X87555Y66988D01*
X87656Y67063D01*
X87744Y67167D01*
X87818Y67300D01*
X87879Y67464D01*
X87926Y67657D01*
X87960Y67880D01*
X87980Y68133D01*
X87987Y68415D01*
X89587D01*
X89594Y68133D01*
D02*
G37*
G36*
X26691Y68111D02*
X26678Y66928D01*
X24595Y67196D01*
X24613Y67222D01*
X24630Y67270D01*
X24644Y67341D01*
X24657Y67434D01*
X24676Y67687D01*
X24691Y68463D01*
X26691Y68111D01*
D02*
G37*
G36*
X44740Y69159D02*
X44781Y69068D01*
X44849Y68987D01*
X44944Y68917D01*
X45065Y68858D01*
X45214Y68809D01*
X45389Y68772D01*
X45591Y68745D01*
X45821Y68729D01*
X46077Y68723D01*
Y67123D01*
X45822Y67120D01*
X45220Y67072D01*
X45073Y67043D01*
X44952Y67008D01*
X44859Y66967D01*
X44792Y66919D01*
X44752Y66864D01*
X44738Y66803D01*
X44726Y69262D01*
X44740Y69159D01*
D02*
G37*
G36*
X102114Y67070D02*
X101953Y66908D01*
X101314Y66183D01*
X101291Y66137D01*
X101286Y66106D01*
X99624Y67390D01*
X100451Y68235D01*
X102114Y67070D01*
D02*
G37*
G36*
X123874Y64850D02*
X123853Y64859D01*
X123809Y64868D01*
X123741Y64876D01*
X123402Y64892D01*
X122627Y64900D01*
Y66900D01*
X123874Y66950D01*
Y64850D01*
D02*
G37*
G36*
X110993Y66940D02*
X111037Y66932D01*
X111104Y66925D01*
X111444Y66908D01*
X112218Y66900D01*
Y64900D01*
X110971Y64850D01*
Y66950D01*
X110993Y66940D01*
D02*
G37*
G36*
X60451Y66505D02*
X61161Y65896D01*
X61352Y65765D01*
X61521Y65670D01*
X61667Y65610D01*
X61791Y65587D01*
X61892Y65600D01*
X61970Y65649D01*
X60169Y63848D01*
X60218Y63926D01*
X60231Y64027D01*
X60208Y64151D01*
X60149Y64297D01*
X60053Y64466D01*
X59922Y64657D01*
X59755Y64871D01*
X59313Y65367D01*
X59037Y65649D01*
X60169Y66781D01*
X60451Y66505D01*
D02*
G37*
G36*
X106512Y63330D02*
X104512Y63251D01*
X104510Y63478D01*
X104464Y64271D01*
X104446Y64361D01*
X104426Y64428D01*
X104404Y64472D01*
X104378Y64494D01*
X106275Y65301D01*
X106512Y63330D01*
D02*
G37*
G36*
X142589Y59508D02*
X142564Y59696D01*
X142490Y59865D01*
X142366Y60014D01*
X142194Y60143D01*
X141971Y60252D01*
X141700Y60341D01*
X141379Y60411D01*
X141008Y60460D01*
X140954Y60464D01*
X140421Y60411D01*
X140100Y60341D01*
X139829Y60252D01*
X139606Y60143D01*
X139434Y60014D01*
X139310Y59865D01*
X139236Y59696D01*
X139211Y59508D01*
Y63492D01*
X139236Y63304D01*
X139310Y63135D01*
X139434Y62986D01*
X139606Y62857D01*
X139829Y62748D01*
X140100Y62659D01*
X140421Y62589D01*
X140792Y62540D01*
X140846Y62536D01*
X141379Y62589D01*
X141700Y62659D01*
X141971Y62748D01*
X142194Y62857D01*
X142366Y62986D01*
X142490Y63135D01*
X142564Y63304D01*
X142589Y63492D01*
Y59508D01*
D02*
G37*
G36*
X43872Y61822D02*
X42689Y61809D01*
X42337Y63809D01*
X42564Y63810D01*
X43530Y63870D01*
X43578Y63886D01*
X43604Y63905D01*
X43872Y61822D01*
D02*
G37*
G36*
X91098Y61043D02*
X91035Y60995D01*
X90980Y60915D01*
X90932Y60803D01*
X90892Y60659D01*
X90859Y60483D01*
X90833Y60275D01*
X90804Y59763D01*
X90800Y59459D01*
X89200D01*
X89192Y59763D01*
X89168Y60035D01*
X89128Y60275D01*
X89072Y60483D01*
X89000Y60659D01*
X88912Y60803D01*
X88808Y60915D01*
X88688Y60995D01*
X88552Y61043D01*
X88400Y61059D01*
X91167D01*
X91098Y61043D01*
D02*
G37*
G36*
X55203Y60247D02*
X55240Y59692D01*
X55263Y59543D01*
X55290Y59412D01*
X55298Y59386D01*
X55774D01*
X55665Y59372D01*
X55568Y59331D01*
X55481Y59262D01*
X55407Y59164D01*
X55395Y59142D01*
X55402Y59129D01*
X55450Y59071D01*
X55360D01*
X55344Y59040D01*
X55292Y58887D01*
X55252Y58707D01*
X55223Y58499D01*
X55206Y58263D01*
X55200Y58000D01*
X53600D01*
X53594Y58263D01*
X53548Y58707D01*
X53508Y58887D01*
X53456Y59040D01*
X53440Y59071D01*
X53350D01*
X53398Y59129D01*
X53405Y59142D01*
X53393Y59164D01*
X53319Y59262D01*
X53233Y59331D01*
X53135Y59372D01*
X53026Y59386D01*
X53502D01*
X53510Y59412D01*
X53537Y59543D01*
X53560Y59692D01*
X53590Y60044D01*
X53600Y60469D01*
X55200D01*
X55203Y60247D01*
D02*
G37*
G36*
X127604Y57946D02*
X127583Y57955D01*
X127538Y57964D01*
X127471Y57971D01*
X127131Y57987D01*
X126357Y57995D01*
Y59996D01*
X127604Y60045D01*
Y57946D01*
D02*
G37*
G36*
X112815Y58032D02*
X111973Y57097D01*
X110433Y58524D01*
X110450Y58533D01*
X110484Y58559D01*
X110533Y58601D01*
X111021Y59068D01*
X111328Y59373D01*
X112815Y58032D01*
D02*
G37*
G36*
X29777Y53486D02*
X29562Y53701D01*
X29327Y53893D01*
X29072Y54063D01*
X28797Y54210D01*
X28503Y54335D01*
X28188Y54437D01*
X27854Y54516D01*
X27500Y54573D01*
X27369Y54584D01*
Y54143D01*
X27354Y54233D01*
X27309Y54314D01*
X27235Y54385D01*
X27131Y54447D01*
X26997Y54499D01*
X26834Y54542D01*
X26640Y54575D01*
X26417Y54599D01*
X25882Y54618D01*
Y56618D01*
X26165Y56623D01*
X26640Y56661D01*
X26834Y56694D01*
X26997Y56736D01*
X27131Y56789D01*
X27235Y56850D01*
X27309Y56922D01*
X27354Y57002D01*
X27369Y57093D01*
Y56642D01*
X27580Y56660D01*
X27936Y56714D01*
X28275Y56788D01*
X28596Y56884D01*
X28900Y57001D01*
X29186Y57140D01*
X29455Y57299D01*
X29707Y57480D01*
X29942Y57683D01*
X29777Y53486D01*
D02*
G37*
G36*
X68363Y54626D02*
X68045Y54297D01*
X67545Y53707D01*
X67362Y53446D01*
X67225Y53209D01*
X67134Y52994D01*
X67087Y52802D01*
X67086Y52633D01*
X67130Y52486D01*
X67219Y52363D01*
X64969Y54614D01*
X65092Y54524D01*
X65238Y54480D01*
X65407Y54482D01*
X65599Y54528D01*
X65814Y54620D01*
X66052Y54757D01*
X66312Y54939D01*
X66596Y55166D01*
X67231Y55757D01*
X68363Y54626D01*
D02*
G37*
G36*
X106522Y55651D02*
X106552Y55311D01*
X106602Y55011D01*
X106672Y54751D01*
X106762Y54531D01*
X106872Y54351D01*
X107002Y54211D01*
X107152Y54111D01*
X107322Y54051D01*
X107512Y54031D01*
X103862D01*
X103986Y54051D01*
X104096Y54111D01*
X104194Y54211D01*
X104278Y54351D01*
X104350Y54531D01*
X104408Y54751D01*
X104453Y55011D01*
X104486Y55311D01*
X104512Y56031D01*
X106512D01*
X106522Y55651D01*
D02*
G37*
G36*
X43286Y54204D02*
X43207Y54165D01*
X43137Y54101D01*
X43076Y54011D01*
X43025Y53896D01*
X42983Y53756D01*
X42951Y53590D01*
X42928Y53399D01*
X42913Y53182D01*
X42909Y52939D01*
X41309D01*
X41306Y53180D01*
X41269Y53749D01*
X41247Y53889D01*
X41220Y54002D01*
X41188Y54091D01*
X41151Y54154D01*
X41109Y54192D01*
X41062Y54205D01*
X43374Y54217D01*
X43286Y54204D01*
D02*
G37*
G36*
X142589Y49508D02*
X142564Y49696D01*
X142490Y49865D01*
X142366Y50014D01*
X142194Y50143D01*
X141971Y50252D01*
X141700Y50341D01*
X141379Y50411D01*
X141008Y50460D01*
X140954Y50464D01*
X140421Y50411D01*
X140100Y50341D01*
X139829Y50252D01*
X139606Y50143D01*
X139434Y50014D01*
X139310Y49865D01*
X139236Y49696D01*
X139211Y49508D01*
Y53492D01*
X139236Y53304D01*
X139310Y53135D01*
X139434Y52986D01*
X139606Y52857D01*
X139829Y52748D01*
X140100Y52659D01*
X140421Y52589D01*
X140792Y52540D01*
X140846Y52536D01*
X141379Y52589D01*
X141700Y52659D01*
X141971Y52748D01*
X142194Y52857D01*
X142366Y52986D01*
X142490Y53135D01*
X142564Y53304D01*
X142589Y53492D01*
Y49508D01*
D02*
G37*
G36*
X60169Y49888D02*
X60153Y50040D01*
X60105Y50176D01*
X60025Y50296D01*
X59913Y50400D01*
X59769Y50488D01*
X59593Y50560D01*
X59385Y50616D01*
X59145Y50656D01*
X58873Y50680D01*
X58738Y50684D01*
X58602Y50680D01*
X58328Y50656D01*
X58087Y50616D01*
X57877Y50560D01*
X57700Y50488D01*
X57555Y50400D01*
X57442Y50296D01*
X57361Y50176D01*
X57313Y50040D01*
X57297Y49888D01*
Y53088D01*
X57313Y52936D01*
X57361Y52800D01*
X57442Y52680D01*
X57555Y52576D01*
X57700Y52488D01*
X57877Y52416D01*
X58087Y52360D01*
X58328Y52320D01*
X58602Y52296D01*
X58738Y52293D01*
X58873Y52296D01*
X59145Y52320D01*
X59385Y52360D01*
X59593Y52416D01*
X59769Y52488D01*
X59913Y52576D01*
X60025Y52680D01*
X60105Y52800D01*
X60153Y52936D01*
X60169Y53088D01*
Y49888D01*
D02*
G37*
G36*
X17032Y51941D02*
X16972Y52022D01*
X16878Y52055D01*
X16752Y52040D01*
X16593Y51977D01*
X16401Y51867D01*
X16177Y51709D01*
X15919Y51503D01*
X15305Y50948D01*
X14949Y50599D01*
X12828Y52721D01*
X13344Y53244D01*
X15041Y55201D01*
X15204Y55460D01*
X15307Y55675D01*
X15352Y55845D01*
X15337Y55972D01*
X17032Y51941D01*
D02*
G37*
G36*
X113469Y48512D02*
X113449Y48702D01*
X113389Y48872D01*
X113289Y49022D01*
X113149Y49152D01*
X112969Y49262D01*
X112749Y49352D01*
X112489Y49422D01*
X112189Y49472D01*
X111849Y49502D01*
X111802Y49503D01*
X111755Y49502D01*
X111413Y49472D01*
X111111Y49422D01*
X110850Y49352D01*
X110629Y49262D01*
X110448Y49152D01*
X110307Y49022D01*
X110206Y48872D01*
X110146Y48702D01*
X110126Y48512D01*
Y52512D01*
X110146Y52322D01*
X110206Y52152D01*
X110307Y52002D01*
X110448Y51872D01*
X110629Y51762D01*
X110850Y51672D01*
X111111Y51602D01*
X111413Y51552D01*
X111755Y51522D01*
X111802Y51521D01*
X111849Y51522D01*
X112189Y51552D01*
X112489Y51602D01*
X112749Y51672D01*
X112969Y51762D01*
X113149Y51872D01*
X113289Y52002D01*
X113389Y52152D01*
X113449Y52322D01*
X113469Y52512D01*
Y48512D01*
D02*
G37*
G36*
X128485Y49000D02*
X128463Y48992D01*
X128426Y48966D01*
X128373Y48924D01*
X128121Y48696D01*
X127568Y48154D01*
X126154Y49568D01*
X127000Y50485D01*
X128485Y49000D01*
D02*
G37*
G36*
X135211Y47993D02*
X135047Y48096D01*
X134862Y48150D01*
X134658Y48156D01*
X134433Y48114D01*
X134188Y48023D01*
X133923Y47885D01*
X133638Y47697D01*
X133333Y47462D01*
X133007Y47179D01*
X132661Y46847D01*
X131127Y48141D01*
X131455Y48483D01*
X131957Y49098D01*
X132132Y49372D01*
X132257Y49623D01*
X132331Y49851D01*
X132354Y50058D01*
X132327Y50241D01*
X132249Y50402D01*
X132120Y50540D01*
X135211Y47993D01*
D02*
G37*
G36*
X24002Y49871D02*
X23960Y49795D01*
X23923Y49700D01*
X23890Y49588D01*
X23863Y49457D01*
X23840Y49308D01*
X23810Y48956D01*
X23807Y48847D01*
X23808Y48826D01*
X23832Y48552D01*
X23872Y48311D01*
X23928Y48101D01*
X24000Y47924D01*
X24088Y47779D01*
X24192Y47666D01*
X24312Y47585D01*
X24448Y47536D01*
X24600Y47519D01*
X21774Y47531D01*
X21855Y47547D01*
X21927Y47595D01*
X21991Y47675D01*
X22047Y47787D01*
X22094Y47931D01*
X22132Y48107D01*
X22162Y48315D01*
X22183Y48555D01*
X22192Y48842D01*
X22160Y49308D01*
X22138Y49457D01*
X22110Y49588D01*
X22077Y49700D01*
X22040Y49795D01*
X21997Y49871D01*
X21950Y49929D01*
X24050D01*
X24002Y49871D01*
D02*
G37*
G36*
X15403Y49959D02*
X15448Y49447D01*
X15523Y48995D01*
X15628Y48604D01*
X15763Y48272D01*
X15928Y48001D01*
X16123Y47790D01*
X16348Y47640D01*
X16603Y47549D01*
X16888Y47519D01*
X10888D01*
X11173Y47549D01*
X11428Y47640D01*
X11653Y47790D01*
X11848Y48001D01*
X12013Y48272D01*
X12148Y48604D01*
X12253Y48995D01*
X12328Y49447D01*
X12373Y49959D01*
X12388Y50531D01*
X15388D01*
X15403Y49959D01*
D02*
G37*
G36*
X85274Y59866D02*
X87636Y57504D01*
Y48842D01*
X84093Y45299D01*
X82518D01*
X78975Y48842D01*
Y57504D01*
X81337Y59866D01*
Y66953D01*
X85274D01*
Y59866D01*
D02*
G37*
G36*
X107326Y46960D02*
X107156Y46899D01*
X107006Y46798D01*
X106876Y46657D01*
X106766Y46476D01*
X106676Y46255D01*
X106606Y45993D01*
X106569Y45769D01*
X106606Y45544D01*
X106676Y45283D01*
X106766Y45062D01*
X106876Y44881D01*
X107006Y44740D01*
X107156Y44639D01*
X107326Y44579D01*
X107516Y44559D01*
X103516D01*
X103706Y44579D01*
X103876Y44639D01*
X104026Y44740D01*
X104156Y44881D01*
X104266Y45062D01*
X104356Y45283D01*
X104426Y45544D01*
X104471Y45817D01*
X104457Y45989D01*
X104411Y46249D01*
X104352Y46469D01*
X104280Y46649D01*
X104196Y46789D01*
X104098Y46889D01*
X103987Y46949D01*
X103862Y46969D01*
X107516Y46981D01*
X107326Y46960D01*
D02*
G37*
G36*
X49242Y44365D02*
X49266Y44091D01*
X49306Y43850D01*
X49362Y43640D01*
X49434Y43463D01*
X49522Y43318D01*
X49626Y43205D01*
X49746Y43124D01*
X49882Y43075D01*
X50034Y43059D01*
X46841Y43071D01*
X46992Y43087D01*
X47127Y43135D01*
X47245Y43215D01*
X47349Y43327D01*
X47436Y43471D01*
X47507Y43647D01*
X47563Y43855D01*
X47602Y44095D01*
X47626Y44367D01*
X47634Y44671D01*
X49234D01*
X49242Y44365D01*
D02*
G37*
G36*
X142589Y39508D02*
X142564Y39696D01*
X142490Y39865D01*
X142366Y40014D01*
X142194Y40143D01*
X141971Y40252D01*
X141700Y40341D01*
X141379Y40411D01*
X141008Y40460D01*
X140954Y40464D01*
X140421Y40411D01*
X140100Y40341D01*
X139829Y40252D01*
X139606Y40143D01*
X139434Y40014D01*
X139310Y39865D01*
X139236Y39696D01*
X139211Y39508D01*
Y43492D01*
X139236Y43304D01*
X139310Y43135D01*
X139434Y42986D01*
X139606Y42857D01*
X139829Y42748D01*
X140100Y42659D01*
X140421Y42589D01*
X140792Y42540D01*
X140846Y42536D01*
X141379Y42589D01*
X141700Y42659D01*
X141971Y42748D01*
X142194Y42857D01*
X142366Y42986D01*
X142490Y43135D01*
X142564Y43304D01*
X142589Y43492D01*
Y39508D01*
D02*
G37*
G36*
X54884Y41843D02*
X54864Y41950D01*
X54804Y42045D01*
X54704Y42130D01*
X54564Y42203D01*
X54384Y42265D01*
X54164Y42316D01*
X53904Y42355D01*
X53604Y42383D01*
X52885Y42406D01*
Y44405D01*
X53264Y44411D01*
X53904Y44456D01*
X54164Y44496D01*
X54384Y44546D01*
X54564Y44608D01*
X54704Y44681D01*
X54804Y44766D01*
X54864Y44861D01*
X54884Y44968D01*
Y41843D01*
D02*
G37*
G36*
X41080Y43071D02*
X40487Y42457D01*
X39555Y41355D01*
X39215Y40868D01*
X38960Y40423D01*
X38788Y40020D01*
X38702Y39658D01*
X38699Y39340D01*
X38781Y39063D01*
X38947Y38828D01*
X34810Y43071D01*
X35216Y43092D01*
X35625Y43156D01*
X36035Y43262D01*
X36447Y43410D01*
X36861Y43601D01*
X37277Y43834D01*
X37694Y44110D01*
X38114Y44428D01*
X38535Y44789D01*
X38959Y45192D01*
X41080Y43071D01*
D02*
G37*
G36*
X134852Y38028D02*
X134701Y38144D01*
X134530Y38211D01*
X134337Y38229D01*
X134124Y38198D01*
X133889Y38118D01*
X133634Y37989D01*
X133358Y37811D01*
X133061Y37584D01*
X132743Y37308D01*
X132404Y36984D01*
X130990Y38398D01*
X131315Y38737D01*
X131817Y39352D01*
X131995Y39628D01*
X132124Y39883D01*
X132204Y40117D01*
X132235Y40331D01*
X132217Y40523D01*
X132150Y40695D01*
X132034Y40846D01*
X134852Y38028D01*
D02*
G37*
G36*
X15403Y41459D02*
X15448Y40947D01*
X15523Y40495D01*
X15530Y40469D01*
X16888D01*
X16603Y40439D01*
X16348Y40349D01*
X16123Y40199D01*
X15928Y39989D01*
X15779Y39745D01*
X15928Y39501D01*
X16123Y39290D01*
X16348Y39140D01*
X16603Y39049D01*
X16888Y39019D01*
X15529D01*
X15523Y38999D01*
X15448Y38549D01*
X15403Y38039D01*
X15388Y37469D01*
X12388D01*
X12373Y38039D01*
X12328Y38549D01*
X12253Y38999D01*
X12248Y39019D01*
X10888D01*
X11173Y39049D01*
X11428Y39140D01*
X11653Y39290D01*
X11848Y39501D01*
X11997Y39745D01*
X11848Y39989D01*
X11653Y40199D01*
X11428Y40349D01*
X11173Y40439D01*
X10888Y40469D01*
X12246D01*
X12253Y40495D01*
X12328Y40947D01*
X12373Y41459D01*
X12388Y42031D01*
X15388D01*
X15403Y41459D01*
D02*
G37*
G36*
X63992Y38866D02*
X63996Y38860D01*
X64096Y38776D01*
X64236Y38703D01*
X64416Y38641D01*
X64636Y38590D01*
X64896Y38551D01*
X65196Y38522D01*
X65916Y38500D01*
Y36500D01*
X65536Y36494D01*
X64896Y36449D01*
X64636Y36410D01*
X64416Y36359D01*
X64236Y36297D01*
X64096Y36224D01*
X63996Y36140D01*
X63992Y36134D01*
Y35500D01*
X63972Y35690D01*
X63912Y35860D01*
X63811Y36010D01*
X63670Y36140D01*
X63489Y36250D01*
X63268Y36340D01*
X63006Y36410D01*
X62704Y36460D01*
X62362Y36490D01*
X61980Y36500D01*
Y38500D01*
X62362Y38510D01*
X62704Y38540D01*
X63006Y38590D01*
X63268Y38660D01*
X63489Y38750D01*
X63670Y38860D01*
X63811Y38990D01*
X63912Y39140D01*
X63972Y39310D01*
X63992Y39500D01*
Y38866D01*
D02*
G37*
G36*
X116710Y36830D02*
X116540Y36769D01*
X116390Y36668D01*
X116260Y36527D01*
X116150Y36346D01*
X116060Y36125D01*
X115990Y35863D01*
X115940Y35562D01*
X115910Y35220D01*
X115900Y34839D01*
X113900D01*
X113896Y35219D01*
X113831Y36119D01*
X113792Y36339D01*
X113745Y36519D01*
X113689Y36659D01*
X113624Y36759D01*
X113551Y36819D01*
X113469Y36839D01*
X116900Y36851D01*
X116710Y36830D01*
D02*
G37*
G36*
X142589Y29508D02*
X142564Y29696D01*
X142490Y29865D01*
X142366Y30014D01*
X142194Y30143D01*
X141971Y30252D01*
X141700Y30341D01*
X141379Y30411D01*
X141008Y30460D01*
X140954Y30464D01*
X140421Y30411D01*
X140100Y30341D01*
X139829Y30252D01*
X139606Y30143D01*
X139434Y30014D01*
X139310Y29865D01*
X139236Y29696D01*
X139211Y29508D01*
Y33492D01*
X139236Y33304D01*
X139310Y33135D01*
X139434Y32986D01*
X139606Y32857D01*
X139829Y32748D01*
X140100Y32659D01*
X140421Y32589D01*
X140792Y32540D01*
X140846Y32536D01*
X141379Y32589D01*
X141700Y32659D01*
X141971Y32748D01*
X142194Y32857D01*
X142366Y32986D01*
X142490Y33135D01*
X142564Y33304D01*
X142589Y33492D01*
Y29508D01*
D02*
G37*
G36*
X70507Y33567D02*
X70337Y33507D01*
X70187Y33406D01*
X70057Y33265D01*
X69947Y33084D01*
X69857Y32863D01*
X69787Y32601D01*
X69737Y32299D01*
X69707Y31957D01*
X69697Y31575D01*
X67697D01*
X67687Y31957D01*
X67657Y32299D01*
X67607Y32601D01*
X67537Y32863D01*
X67447Y33084D01*
X67337Y33265D01*
X67207Y33406D01*
X67057Y33507D01*
X66887Y33567D01*
X66697Y33587D01*
X70697D01*
X70507Y33567D01*
D02*
G37*
G36*
X49412Y31635D02*
X48350Y30434D01*
X48226Y30554D01*
X48006Y30744D01*
X47909Y30815D01*
X47821Y30869D01*
X47741Y30907D01*
X47671Y30928D01*
X47609Y30933D01*
X47556Y30921D01*
X47512Y30893D01*
X47779Y32784D01*
X49412Y31635D01*
D02*
G37*
G36*
X27943Y33774D02*
X27886Y33639D01*
X27877Y33478D01*
X27917Y33291D01*
X28006Y33078D01*
X28143Y32838D01*
X28330Y32573D01*
X28565Y32281D01*
X29181Y31620D01*
X28266Y30272D01*
X27847Y30680D01*
X26770Y31587D01*
X26471Y31784D01*
X26204Y31927D01*
X25967Y32017D01*
X25760Y32054D01*
X25584Y32038D01*
X25438Y31969D01*
X28049Y33883D01*
X27943Y33774D01*
D02*
G37*
G36*
X56705Y30033D02*
X56663Y30001D01*
X56627Y29948D01*
X56596Y29874D01*
X56569Y29779D01*
X56547Y29664D01*
X56530Y29526D01*
X56511Y29190D01*
X56508Y28990D01*
X54909D01*
X54884Y30032D01*
X56751Y30044D01*
X56705Y30033D01*
D02*
G37*
G36*
X17028Y31939D02*
X17030Y31849D01*
X17038Y28969D01*
X14038D01*
X14023Y29539D01*
X13978Y30049D01*
X13903Y30499D01*
X13798Y30889D01*
X13663Y31219D01*
X13498Y31489D01*
X13303Y31699D01*
X13078Y31849D01*
X12823Y31939D01*
X12538Y31969D01*
X17026D01*
X17028Y31939D01*
D02*
G37*
G36*
X120937Y29907D02*
X120924Y28724D01*
X118841Y28992D01*
X118860Y29018D01*
X118876Y29066D01*
X118890Y29137D01*
X118903Y29230D01*
X118922Y29483D01*
X118937Y30259D01*
X120937Y29907D01*
D02*
G37*
G36*
X133535Y28550D02*
X133291Y28735D01*
X133035Y28901D01*
X132767Y29048D01*
X132487Y29175D01*
X132195Y29282D01*
X131892Y29370D01*
X131576Y29439D01*
X131248Y29488D01*
X130909Y29517D01*
X130558Y29527D01*
X129961Y31527D01*
X130438Y31537D01*
X131219Y31616D01*
X131523Y31686D01*
X131769Y31776D01*
X131958Y31885D01*
X132090Y32015D01*
X132164Y32164D01*
X132180Y32334D01*
X132139Y32523D01*
X133535Y28550D01*
D02*
G37*
G36*
X111002Y28717D02*
X111021Y27497D01*
X108925Y27640D01*
X108940Y27665D01*
X108953Y27712D01*
X108965Y27782D01*
X108975Y27874D01*
X108995Y28286D01*
X109002Y28902D01*
X111002Y28717D01*
D02*
G37*
G36*
X38868Y29568D02*
X38823Y29421D01*
Y29251D01*
X38868Y29059D01*
X38959Y28844D01*
X39095Y28606D01*
X39276Y28346D01*
X39502Y28063D01*
X40090Y27429D01*
X38959Y26298D01*
X38631Y26615D01*
X38043Y27112D01*
X37782Y27294D01*
X37545Y27429D01*
X37330Y27520D01*
X37137Y27565D01*
X36968D01*
X36821Y27520D01*
X36696Y27429D01*
X38959Y29692D01*
X38868Y29568D01*
D02*
G37*
G36*
X91810Y28460D02*
X91640Y28399D01*
X91490Y28298D01*
X91360Y28157D01*
X91250Y27976D01*
X91160Y27755D01*
X91090Y27494D01*
X91040Y27192D01*
X91010Y26850D01*
X91005Y26680D01*
X91050Y25571D01*
X88950D01*
X88959Y25592D01*
X88968Y25637D01*
X88976Y25704D01*
X88992Y26044D01*
X88998Y26589D01*
X88993Y26849D01*
X88933Y27489D01*
X88880Y27749D01*
X88813Y27969D01*
X88730Y28149D01*
X88633Y28289D01*
X88520Y28389D01*
X88393Y28449D01*
X88251Y28469D01*
X92000Y28481D01*
X91810Y28460D01*
D02*
G37*
G36*
X97249Y26385D02*
X97089Y26223D01*
X96501Y25550D01*
X96465Y25487D01*
X96446Y25438D01*
X96445Y25403D01*
X94626Y26453D01*
X95891Y27855D01*
X97249Y26385D01*
D02*
G37*
G36*
X96040Y23908D02*
X96032Y23863D01*
X96025Y23796D01*
X96008Y23456D01*
X96000Y22682D01*
X94000D01*
X93950Y23929D01*
X96050D01*
X96040Y23908D01*
D02*
G37*
G36*
X142589Y19508D02*
X142564Y19696D01*
X142490Y19865D01*
X142366Y20014D01*
X142194Y20143D01*
X141971Y20252D01*
X141700Y20341D01*
X141379Y20411D01*
X141008Y20460D01*
X140954Y20464D01*
X140421Y20411D01*
X140100Y20341D01*
X139829Y20252D01*
X139606Y20143D01*
X139434Y20014D01*
X139310Y19865D01*
X139236Y19696D01*
X139211Y19508D01*
Y23492D01*
X139236Y23304D01*
X139310Y23135D01*
X139434Y22986D01*
X139606Y22857D01*
X139829Y22748D01*
X140100Y22659D01*
X140421Y22589D01*
X140792Y22540D01*
X140846Y22536D01*
X141379Y22589D01*
X141700Y22659D01*
X141971Y22748D01*
X142194Y22857D01*
X142366Y22986D01*
X142490Y23135D01*
X142564Y23304D01*
X142589Y23492D01*
Y19508D01*
D02*
G37*
G36*
X101363Y23031D02*
X101400D01*
X101410Y22651D01*
X101440Y22311D01*
X101490Y22011D01*
X101560Y21751D01*
X101650Y21531D01*
X101760Y21351D01*
X101890Y21211D01*
X102040Y21111D01*
X102210Y21051D01*
X102400Y21031D01*
X98400D01*
X98590Y21051D01*
X98760Y21111D01*
X98910Y21211D01*
X99040Y21351D01*
X99150Y21531D01*
X99240Y21751D01*
X99310Y22011D01*
X99360Y22311D01*
X99390Y22651D01*
X99392Y22745D01*
X99338Y23545D01*
X99319Y23615D01*
X99298Y23662D01*
X99274Y23688D01*
X101298Y24248D01*
X101363Y23031D01*
D02*
G37*
G36*
X91016Y22583D02*
X91040Y22311D01*
X91090Y22011D01*
X91160Y21751D01*
X91250Y21531D01*
X91360Y21351D01*
X91490Y21211D01*
X91640Y21111D01*
X91810Y21051D01*
X92000Y21031D01*
X88000D01*
X88190Y21051D01*
X88360Y21111D01*
X88510Y21211D01*
X88640Y21351D01*
X88750Y21531D01*
X88840Y21751D01*
X88910Y22011D01*
X88960Y22311D01*
X88990Y22651D01*
X88994Y22792D01*
X88992Y22956D01*
X88976Y23296D01*
X88968Y23363D01*
X88959Y23407D01*
X88950Y23429D01*
X91050D01*
X91016Y22583D01*
D02*
G37*
G36*
X58829Y19788D02*
X58886Y19793D01*
X59190Y19800D01*
Y18200D01*
X58885Y18192D01*
X58829Y18187D01*
Y17950D01*
X58771Y17998D01*
X58694Y18040D01*
X58600Y18078D01*
X58487Y18110D01*
X58388Y18131D01*
X58371Y18128D01*
X58161Y18072D01*
X57984Y18000D01*
X57839Y17912D01*
X57726Y17808D01*
X57645Y17688D01*
X57595Y17552D01*
X57578Y17400D01*
X57584Y18196D01*
X57431Y18200D01*
Y19800D01*
X57653Y19803D01*
X58208Y19840D01*
X58357Y19862D01*
X58487Y19890D01*
X58600Y19922D01*
X58694Y19960D01*
X58771Y20003D01*
X58829Y20050D01*
Y19788D01*
D02*
G37*
G36*
X23298Y22765D02*
X23856Y22331D01*
X24425Y21968D01*
X25005Y21678D01*
X25597Y21458D01*
X26199Y21310D01*
X26813Y21234D01*
X27438Y21229D01*
X28074Y21296D01*
X28721Y21434D01*
X24507Y14321D01*
X24301Y15088D01*
X23806Y16527D01*
X23517Y17200D01*
X23199Y17842D01*
X22854Y18453D01*
X22481Y19032D01*
X22080Y19581D01*
X21651Y20098D01*
X21194Y20584D01*
X22751Y23270D01*
X23298Y22765D01*
D02*
G37*
G36*
X114520Y16608D02*
X114698Y16480D01*
X114897Y16367D01*
X115116Y16270D01*
X115357Y16187D01*
X115618Y16120D01*
X115899Y16068D01*
X116202Y16030D01*
X116525Y16007D01*
X116868Y16000D01*
Y14000D01*
X116525Y13993D01*
X115899Y13932D01*
X115618Y13880D01*
X115357Y13813D01*
X115116Y13730D01*
X114897Y13633D01*
X114698Y13520D01*
X114520Y13393D01*
X114363Y13250D01*
Y16750D01*
X114520Y16608D01*
D02*
G37*
G36*
X101918Y13981D02*
X102916D01*
X102726Y13961D01*
X102556Y13900D01*
X102406Y13800D01*
X102276Y13659D01*
X102166Y13478D01*
X102076Y13256D01*
X102013Y13023D01*
X102076Y12791D01*
X102166Y12571D01*
X102276Y12391D01*
X102406Y12251D01*
X102556Y12151D01*
X102726Y12091D01*
X102916Y12071D01*
X101918D01*
X101916Y11969D01*
X99916D01*
X99913Y12071D01*
X98916D01*
X99106Y12091D01*
X99276Y12151D01*
X99426Y12251D01*
X99556Y12391D01*
X99666Y12571D01*
X99756Y12791D01*
X99818Y13023D01*
X99756Y13256D01*
X99666Y13478D01*
X99556Y13659D01*
X99426Y13800D01*
X99276Y13900D01*
X99106Y13961D01*
X98916Y13981D01*
X99913D01*
X99916Y14071D01*
X101916D01*
X101918Y13981D01*
D02*
G37*
G36*
X92480Y10083D02*
X92190Y10078D01*
X91699Y10036D01*
X91500Y9999D01*
X91331Y9952D01*
X91193Y9895D01*
X91086Y9827D01*
X91009Y9749D01*
X90963Y9660D01*
X90947Y9561D01*
X90959Y12071D01*
X92480Y12083D01*
Y10083D01*
D02*
G37*
G36*
X36166Y14943D02*
X36237Y14239D01*
X36360Y13557D01*
X36536Y12898D01*
X36763Y12260D01*
X37043Y11646D01*
X37374Y11053D01*
X37758Y10483D01*
X38194Y9935D01*
X38683Y9409D01*
X36561Y7288D01*
X36036Y7776D01*
X35488Y8213D01*
X34918Y8597D01*
X34325Y8928D01*
X33711Y9208D01*
X33073Y9435D01*
X32414Y9611D01*
X31732Y9734D01*
X31028Y9804D01*
X30302Y9823D01*
X36148Y15669D01*
X36166Y14943D01*
D02*
G37*
G36*
X56065Y8580D02*
X56121Y8437D01*
X56214Y8311D01*
X56343Y8202D01*
X56510Y8109D01*
X56714Y8034D01*
X56954Y7975D01*
X57232Y7933D01*
X57547Y7908D01*
X57899Y7899D01*
Y5899D01*
X57547Y5891D01*
X57232Y5866D01*
X56954Y5824D01*
X56714Y5765D01*
X56510Y5689D01*
X56343Y5597D01*
X56214Y5488D01*
X56121Y5361D01*
X56065Y5218D01*
X56047Y5059D01*
Y8740D01*
X56065Y8580D01*
D02*
G37*
G36*
X69420Y6695D02*
X69493Y6668D01*
X69584Y6645D01*
X69695Y6624D01*
X69972Y6593D01*
X70325Y6574D01*
X70753Y6568D01*
X71102Y4968D01*
X70882Y4965D01*
X70332Y4918D01*
X70187Y4890D01*
X70060Y4856D01*
X69952Y4816D01*
X69863Y4770D01*
X69793Y4717D01*
X69741Y4658D01*
X69367Y6724D01*
X69420Y6695D01*
D02*
G37*
G36*
X51922Y3000D02*
X51891Y3285D01*
X51801Y3540D01*
X51651Y3765D01*
X51440Y3960D01*
X51169Y4125D01*
X50837Y4260D01*
X50446Y4365D01*
X49994Y4440D01*
X49482Y4485D01*
X48910Y4500D01*
Y7500D01*
X49482Y7515D01*
X49994Y7560D01*
X50446Y7635D01*
X50837Y7740D01*
X51169Y7875D01*
X51440Y8040D01*
X51651Y8235D01*
X51801Y8460D01*
X51891Y8715D01*
X51922Y9000D01*
Y3000D01*
D02*
G37*
D22*
X91388Y32000D02*
D03*
X102412D02*
D03*
X107000Y50500D02*
D03*
X95976D02*
D03*
X104900Y77500D02*
D03*
X115924D02*
D03*
X100400Y17500D02*
D03*
X89376D02*
D03*
X13888Y35500D02*
D03*
X24912D02*
D03*
X13888Y44000D02*
D03*
X24912D02*
D03*
D23*
X103577Y98500D02*
D03*
X88223D02*
D03*
X16323Y66000D02*
D03*
X31677D02*
D03*
D24*
X36884Y39500D02*
D03*
X48916D02*
D03*
X17400Y55500D02*
D03*
X29432D02*
D03*
X36884Y31000D02*
D03*
X48916D02*
D03*
X93484Y41000D02*
D03*
X105516D02*
D03*
X43484Y15500D02*
D03*
X55516D02*
D03*
X100916Y8500D02*
D03*
X88884D02*
D03*
X84416Y77000D02*
D03*
X72384D02*
D03*
X53984Y6000D02*
D03*
X66016D02*
D03*
D48*
X55158Y70400D02*
X60100Y75343D01*
Y82000D01*
X47986Y70400D02*
X55158D01*
X45386Y73000D02*
X47986Y70400D01*
X28805Y73000D02*
X45386D01*
X109900Y65900D02*
X124945D01*
X126350Y62000D02*
X135850Y71500D01*
X115369Y62000D02*
X126350D01*
X135506Y71500D02*
X145900D01*
X44609Y62809D02*
X44800Y63000D01*
X40448Y62809D02*
X44609D01*
X37000Y59361D02*
X40448Y62809D01*
X116671Y57500D02*
X118166Y58995D01*
X128675D01*
X116400Y57500D02*
X116671D01*
X109900Y66171D02*
X110880Y67150D01*
Y71480D02*
X113774Y74374D01*
X110880Y67150D02*
Y71480D01*
X109900Y65900D02*
Y66171D01*
X99800Y65900D02*
Y66171D01*
X102400Y68771D01*
X104900Y65629D02*
Y65900D01*
X105512Y50500D02*
Y65018D01*
X104900Y65629D02*
X105512Y65018D01*
X105524Y50512D02*
X117000D01*
X96300Y72425D02*
X99000Y75125D01*
X102400Y68771D02*
Y73785D01*
X96300Y62100D02*
X101500Y56900D01*
X96300Y62100D02*
Y72425D01*
X29432Y54056D02*
X30876Y55500D01*
X32000D01*
X22000Y59500D02*
Y74100D01*
Y59500D02*
X25882Y55618D01*
X24900Y77000D02*
X34888D01*
X58404Y100516D01*
X59900D01*
X29314Y55618D02*
X29432Y55500D01*
X25882Y55618D02*
X29314D01*
X22000Y74100D02*
X24900Y77000D01*
X53950Y6899D02*
X57899D01*
X53050Y6000D02*
X53950Y6899D01*
X57899D02*
X68697Y17697D01*
X53984Y6000D02*
Y7496D01*
X68697Y17697D02*
Y36000D01*
X101429Y32983D02*
X102412Y32000D01*
X101429Y32983D02*
Y45411D01*
X101500Y45482D01*
Y56900D01*
X121420Y45077D02*
X123077D01*
X110002Y43328D02*
X111800Y45126D01*
X121372D02*
X121420Y45077D01*
X110002Y26602D02*
Y43328D01*
X111800Y45126D02*
X121372D01*
X123077Y45077D02*
X128500Y50500D01*
X30198Y44988D02*
X37000Y51790D01*
Y59361D01*
X112000Y88000D02*
X115924Y84076D01*
Y77500D02*
Y84076D01*
X102443Y92543D02*
X117357D01*
X128400Y81500D01*
X99000Y89100D02*
X102443Y92543D01*
X99000Y75125D02*
Y89100D01*
X73500Y70229D02*
Y70500D01*
Y70229D02*
X76432Y67298D01*
Y64969D02*
Y67298D01*
X30198Y39764D02*
Y44988D01*
X25691Y66191D02*
Y69886D01*
X28805Y73000D01*
X25500Y66000D02*
X25691Y66191D01*
X124500Y36820D02*
Y40100D01*
X135900Y51500D01*
X119937Y32258D02*
X124500Y36820D01*
X105516Y41000D02*
Y50496D01*
X110475Y57106D02*
X115369Y62000D01*
X110475Y57025D02*
Y57106D01*
X76432Y64969D02*
X77400Y64000D01*
X114900Y24500D02*
Y37876D01*
X117000Y39976D01*
X119937Y27987D02*
Y32258D01*
X119746Y27796D02*
X119937Y27987D01*
X124500Y30494D02*
X135506Y41500D01*
X124500Y23600D02*
Y30494D01*
X135506Y41500D02*
X135900D01*
X145900D01*
X122400Y21500D02*
X124500Y23600D01*
X128400Y19000D02*
Y29355D01*
X134927Y30527D02*
X135900Y31500D01*
X129572Y30527D02*
X134927D01*
X128400Y29355D02*
X129572Y30527D01*
X90000Y18124D02*
Y30612D01*
X91388Y32000D01*
X89376Y17500D02*
X90000Y18124D01*
X100000Y24729D02*
X100400Y24329D01*
X100000Y24729D02*
Y25000D01*
X100400Y17500D02*
Y24329D01*
Y17500D02*
X100916Y16984D01*
X95191Y25191D02*
Y25741D01*
X98907Y29457D01*
X95000Y25000D02*
X95191Y25191D01*
X88884Y8500D02*
Y9996D01*
X95000Y13602D02*
Y25000D01*
X88884Y9996D02*
X89971Y11083D01*
X92480D01*
X98907Y29457D02*
X100262D01*
X92480Y11083D02*
X95000Y13602D01*
X59400Y37500D02*
X68889D01*
X48916Y39500D02*
Y40996D01*
X51325Y43406D01*
X57235D01*
X124400Y15000D02*
X128400Y19000D01*
X112577Y15000D02*
X124400D01*
X135900Y21500D02*
X145900D01*
X135900Y31500D02*
X145900D01*
X135900Y51500D02*
X145900D01*
X135900Y61500D02*
X145900D01*
X135900Y81500D02*
X145900D01*
X135900Y91500D02*
X145900D01*
X117900Y21500D02*
X122400D01*
X114900Y24500D02*
X117900Y21500D01*
X128400Y81500D02*
X135900D01*
X102750Y74136D02*
Y75350D01*
X102400Y73785D02*
X102750Y74136D01*
Y75350D02*
X104900Y77500D01*
X111261Y108861D02*
X111400Y109000D01*
X107761Y108861D02*
X111261D01*
X103577Y98500D02*
Y104677D01*
X107761Y108861D01*
X86270Y96371D02*
Y100047D01*
X88137Y97086D02*
Y105114D01*
Y97086D02*
X88223Y97000D01*
X91917Y108894D02*
Y110484D01*
X88137Y105114D02*
X91917Y108894D01*
X113774Y74374D02*
Y75350D01*
X115924Y77500D01*
X109900Y26500D02*
X110002Y26602D01*
X79582Y82182D02*
Y82751D01*
X76983Y79583D02*
X79582Y82182D01*
X73471Y79583D02*
X76983D01*
X72384Y77000D02*
Y78496D01*
X73471Y79583D01*
X100916Y8500D02*
Y16984D01*
X83400Y53500D02*
X83728D01*
X82916D02*
X83400D01*
X83728D02*
X85728Y51500D01*
X102412Y31606D02*
Y32000D01*
X100262Y29457D02*
X102412Y31606D01*
X27061Y38043D02*
X28477D01*
X30198Y39764D01*
X24912Y35500D02*
Y35894D01*
X27061Y38043D01*
D49*
X31400Y82000D02*
X52550Y103150D01*
X6400Y73500D02*
X14900Y82000D01*
X31400D01*
X39971Y6000D02*
X53398D01*
X36884Y40996D02*
X41911Y46023D01*
X36884Y39500D02*
Y40996D01*
X41911Y46023D02*
X43309D01*
X43500Y46214D01*
X52600Y6000D02*
X53984D01*
X30242Y15728D02*
X39971Y6000D01*
X31677Y66000D02*
X32177Y66500D01*
X32600D01*
X52550Y103150D02*
Y110496D01*
X15538Y28362D02*
X28172Y15728D01*
X15538Y28362D02*
Y33850D01*
X13888Y35500D02*
X15538Y33850D01*
X13888Y44000D02*
Y51660D01*
X15646Y53417D01*
X16813D01*
X17400Y54004D01*
Y55500D01*
X13888Y35500D02*
Y44000D01*
X7049Y19237D02*
Y21242D01*
X6400Y21891D02*
Y73500D01*
X7049Y19237D02*
X10558Y15728D01*
X6400Y21891D02*
X7049Y21242D01*
X17400Y55500D02*
X17644Y55256D01*
D50*
X65617Y75517D02*
Y87198D01*
X59000Y68900D02*
X65617Y75517D01*
X59268Y66550D02*
X63306Y62512D01*
X59268Y66550D02*
Y68632D01*
X59000Y68900D02*
X59268Y68632D01*
X64368Y68432D02*
X67018D01*
X64100Y68700D02*
X64368Y68432D01*
X67018D02*
X69043Y66407D01*
X63306Y62512D02*
X63700D01*
X68498Y81328D02*
X70927Y83758D01*
X68765Y70362D02*
Y72404D01*
X68498Y72672D02*
X68765Y72404D01*
Y70362D02*
X71643Y67484D01*
X68498Y72672D02*
Y81328D01*
X59900Y88484D02*
X60100Y88284D01*
Y82200D02*
Y88284D01*
X66904Y88484D02*
X68400D01*
X65617Y87198D02*
X66904Y88484D01*
X91825Y77322D02*
Y79020D01*
X23000Y45912D02*
Y51000D01*
Y45912D02*
X24912Y44000D01*
X83400Y53500D02*
Y63906D01*
X90000Y45731D02*
Y63211D01*
X88500Y44231D02*
X90000Y45731D01*
X89211Y64000D02*
X90000Y63211D01*
X88787Y63440D02*
X88915Y63311D01*
X42198Y18283D02*
X43484Y16996D01*
Y15500D02*
Y16996D01*
X41387Y18283D02*
X42198D01*
X27261Y32408D02*
X41387Y18283D01*
X66016Y6000D02*
X66516Y5500D01*
X71668Y5768D02*
X75977Y10077D01*
X66516Y5500D02*
X68500D01*
X68768Y5768D01*
X71668D01*
X40888Y25500D02*
X52219D01*
X36884Y29504D02*
X40888Y25500D01*
X52219D02*
X55708Y28990D01*
X36884Y29504D02*
Y32496D01*
X88787Y63440D02*
Y68415D01*
X85702Y71500D02*
Y74217D01*
Y71500D02*
X88787Y68415D01*
X42109Y52939D02*
Y55410D01*
X42900Y56201D01*
X32998Y43828D02*
X42109Y52939D01*
X32998Y35172D02*
Y43828D01*
X69043Y58617D02*
Y66407D01*
X71643Y56917D02*
Y67484D01*
Y56917D02*
X75977Y52583D01*
Y10077D02*
Y52583D01*
X47916Y32000D02*
X48916Y31000D01*
X46500Y32000D02*
X47916D01*
X42900Y68799D02*
X43776Y67923D01*
X46077D01*
X48434Y65566D01*
Y40996D02*
Y65566D01*
X56202Y19000D02*
X59900D01*
X54916Y17500D02*
Y17713D01*
X56202Y19000D01*
X55708Y30820D02*
X56483Y31594D01*
X57235D01*
X55708Y28990D02*
Y30820D01*
X83306Y64000D02*
X83400Y63906D01*
X84416Y75504D02*
Y76959D01*
Y75504D02*
X85702Y74217D01*
X73380Y83758D02*
X74317Y84695D01*
Y87198D01*
X70927Y83758D02*
X73380D01*
X75604Y88484D02*
X77100D01*
X74317Y87198D02*
X75604Y88484D01*
X68400D02*
X68618Y88702D01*
X72384Y75504D02*
Y77000D01*
X68618Y92034D02*
X74317Y97733D01*
X68618Y88702D02*
Y92034D01*
X75604Y100516D02*
X77100D01*
X74317Y99229D02*
X75604Y100516D01*
X74317Y97733D02*
Y99229D01*
X24912Y35500D02*
X27261Y33150D01*
Y32408D02*
Y33150D01*
X68980Y58554D02*
X69043Y58617D01*
X64094Y51488D02*
X68980Y56375D01*
Y58554D01*
X54400Y58000D02*
Y61889D01*
X53777Y62512D02*
X54400Y61889D01*
X53777Y51488D02*
X63700D01*
X64094D01*
X34387Y33783D02*
X35598D01*
X36884Y32496D01*
X32998Y35172D02*
X34387Y33783D01*
D51*
X10558Y15728D02*
D03*
D52*
X30242D02*
D03*
D53*
X135900Y31500D02*
D03*
Y41500D02*
D03*
X145900Y31500D02*
D03*
Y41500D02*
D03*
X135900Y71500D02*
D03*
Y61500D02*
D03*
X145900D02*
D03*
Y71500D02*
D03*
Y21500D02*
D03*
X135900D02*
D03*
Y51500D02*
D03*
X145900D02*
D03*
Y81500D02*
D03*
X135900D02*
D03*
X145900Y91500D02*
D03*
D54*
X135900D02*
D03*
D55*
X92000Y110000D02*
D03*
X52632Y110012D02*
D03*
X91908Y78536D02*
D03*
X52483Y78517D02*
D03*
D56*
X59000Y68900D02*
D03*
X64100Y68700D02*
D03*
X60100Y82000D02*
D03*
X124945Y65900D02*
D03*
X44800Y63000D02*
D03*
X128675Y58995D02*
D03*
X109900Y65900D02*
D03*
X99800D02*
D03*
X35182Y99200D02*
D03*
X38591D02*
D03*
X31773Y91000D02*
D03*
X28364D02*
D03*
X31773Y95100D02*
D03*
X28364D02*
D03*
X31773Y99200D02*
D03*
X11318Y91000D02*
D03*
X4500D02*
D03*
X18136D02*
D03*
X21545D02*
D03*
X14727D02*
D03*
X7909D02*
D03*
X24954D02*
D03*
X11318Y95100D02*
D03*
X4500D02*
D03*
X18136D02*
D03*
X21545D02*
D03*
X14727D02*
D03*
X7909D02*
D03*
X24954D02*
D03*
X14727Y99200D02*
D03*
X4500D02*
D03*
X7909D02*
D03*
X21545D02*
D03*
X24954D02*
D03*
X18136D02*
D03*
X11318D02*
D03*
X28364D02*
D03*
Y103300D02*
D03*
X14727D02*
D03*
X18136D02*
D03*
X11318D02*
D03*
X4500D02*
D03*
X7909D02*
D03*
X21545D02*
D03*
X35182D02*
D03*
X38591D02*
D03*
X31773D02*
D03*
X24954D02*
D03*
X42000D02*
D03*
X28364Y107400D02*
D03*
X14727D02*
D03*
X18136D02*
D03*
X11318D02*
D03*
X4500D02*
D03*
X7909D02*
D03*
X21545D02*
D03*
X35182D02*
D03*
X38591D02*
D03*
X31773D02*
D03*
X24954D02*
D03*
X42000D02*
D03*
Y111500D02*
D03*
X24954D02*
D03*
X31773D02*
D03*
X38591D02*
D03*
X35182D02*
D03*
X21545D02*
D03*
X7909D02*
D03*
X4500D02*
D03*
X11318D02*
D03*
X18136D02*
D03*
X14727D02*
D03*
X28364D02*
D03*
X23000Y51000D02*
D03*
X95000Y52000D02*
D03*
X88500Y44231D02*
D03*
X68500Y5500D02*
D03*
X53050Y22307D02*
D03*
X73500Y70500D02*
D03*
X53050Y6000D02*
D03*
X25500Y66000D02*
D03*
X116400Y57500D02*
D03*
X92400Y41500D02*
D03*
X110475Y57025D02*
D03*
X46500Y32000D02*
D03*
X128500Y50500D02*
D03*
X90000Y24500D02*
D03*
X100000Y25000D02*
D03*
X95000D02*
D03*
X59900Y19000D02*
D03*
X119746Y27796D02*
D03*
X109900Y26500D02*
D03*
X79582Y82751D02*
D03*
X104900Y65900D02*
D03*
X54400Y58000D02*
D03*
X68900Y100500D02*
D03*
D57*
X32000Y55500D02*
D03*
X14500Y66000D02*
D03*
X32600Y66500D02*
D03*
D58*
X112000Y88000D02*
D03*
X112577Y15000D02*
D03*
X111400Y109000D02*
D03*
X82916Y53500D02*
D03*
D59*
X43500Y46214D02*
D03*
D60*
X83306Y64000D02*
D03*
X89211D02*
D03*
X77400D02*
D03*
D61*
X57235Y31594D02*
D03*
Y43406D02*
D03*
D62*
X59400Y37500D02*
D03*
D63*
X68889D02*
D03*
D64*
X63700Y62512D02*
D03*
Y51488D02*
D03*
X117000Y51000D02*
D03*
Y39976D02*
D03*
X53777Y62512D02*
D03*
Y51488D02*
D03*
D65*
X42900Y56201D02*
D03*
Y68799D02*
D03*
D66*
X59900Y88484D02*
D03*
Y100516D02*
D03*
X77100D02*
D03*
Y88484D02*
D03*
X68400D02*
D03*
Y100516D02*
D03*
M02*
